<mxfile host="app.diagrams.net" modified="2021-04-11T12:24:03.145Z" agent="5.0 (Windows NT 10.0; Win64; x64) AppleWebKit/537.36 (KHTML, like Gecko) Chrome/89.0.4389.114 Safari/537.36 Edg/89.0.774.75" etag="_-924dhNoKwAmfcbvroE" version="14.5.8" type="github">
  <diagram id="U2VqpkZvo0bDtKIlAS_Z" name="Page-1">
    <mxGraphModel dx="2370" dy="1323" grid="1" gridSize="10" guides="1" tooltips="1" connect="1" arrows="1" fold="1" page="1" pageScale="1" pageWidth="850" pageHeight="1100" math="0" shadow="0">
      <root>
        <mxCell id="0" />
        <mxCell id="1" parent="0" />
        <mxCell id="vNcr9SBU0Z8C4WFo4syq-2" value="" style="rounded=0;whiteSpace=wrap;html=1;" vertex="1" parent="1">
          <mxGeometry x="210" y="200" width="330" height="130" as="geometry" />
        </mxCell>
        <mxCell id="vNcr9SBU0Z8C4WFo4syq-4" value="" style="shape=image;verticalLabelPosition=bottom;labelBackgroundColor=#ffffff;verticalAlign=top;aspect=fixed;imageAspect=0;image=https://www.distrelec.biz/Web/WebShopImages/landscape_large/3-/03/Raspberry%20Pi-RASPBERRY-PI-4-CASE-RW-30152783-03.jpg;" vertex="1" parent="1">
          <mxGeometry x="283.87" y="231.02" width="141.13" height="78.98" as="geometry" />
        </mxCell>
        <mxCell id="vNcr9SBU0Z8C4WFo4syq-5" value="" style="rounded=0;whiteSpace=wrap;html=1;" vertex="1" parent="1">
          <mxGeometry x="190" y="500" width="455" height="270" as="geometry" />
        </mxCell>
        <mxCell id="vNcr9SBU0Z8C4WFo4syq-7" value="" style="shape=image;verticalLabelPosition=bottom;labelBackgroundColor=#ffffff;verticalAlign=top;aspect=fixed;imageAspect=0;image=data:image/png,iVBORw0KGgoAAAANSUhEUgAAAggAAAEICAYAAAA6FAz+AAAgAElEQVR4Xuy9B5idxXU+/m65W6Vt0q56Q70LdSEEaoAQvRuM7ZgOtv+OHZckjuPETnGSXxKIbdzigBu2wTa9I5qQQKJISAKEeu+rsr3v/3nP3bOMhvnuN/fu3VXhLg+PVp++Od+ZM3POnDnnnTNpra2trQDAP9LS0vhr+4/9zOedzqbVxu5xvCbKly+t44TS9pdEZXM60XLJL6h/fG7OL5f87Hc6Qsueyz5yd81d19w6WWn56IHvnD8RtMLsT2fbFt/x95FNMmmdiDHzmeO+cjhVaPnI+UTZvDDd6Cw7laYOgmsQU89SEkhJICWBlARSEkhJ4JMpgXYHoaWlBenp6cdFD+iVmM/4Dj0Z05txtXPtFu1nPt9zeWu+PNi8d4SWb3+SKRuTFnn36U9QH8PGNchz/qSNWUflfKLH7EToRjLnpa+ehc1nHznwWz42KFH7lkxd9OmP79wlLf7Ydt2Wqe9YJHPOJ9N+hs2RjqwHPnM+2WOWTNnEM2biILAzTU1NiEQi7Ys//87n5rOGhgZkZGTI/6pgzc3N8nf9KNvwWWZmZjutxsZGeV+fUcB8xr/rQJrtdHKSDp+7aJEvDeMlSov94fdJ36Rl9tmXLx9aZn+0j5Qz5WH2sb6+Xv5uytkenyBapKvjQbrki/1RObMd/1f5cdxIW9spX5Qp/82UjYuWzhENcZm01JEMopWVlXXcfCMN8qXKSz7N/vB30mJfTNnwWby0XHOQ3yP/Ni2du8oX3yEP/J999KVlyiGMVpgumnKwacWaN6rX7KPOee2PtiM9PuPfTf2056DqtamLLtkki5baKdNumPM5aL6pDtt2KszmBdkptlN95Tdj2bxk2CmXnDvD5rnsbixb7FoPVKax2sVr88Jo+dg8XUdMu+uyLR2xeWorfe2U2vCT2eaJg6Dep+1ZUKhqNNhpdkiNohoXXRhUOV2erMtrddFSb72raJEHfkuNIHm3+xzkmdteZFB/TPl1VDYmraCdgL078OErUVpsxz4lylei7cLGLNH+uMa/K2jZuwPfMXPpq62ftk4FjZkvLZ8xc+1QwmxLkJwTpeXTzmW7UjYvikdz7ZJPZZtn856oXvvaPJ+1JVEeutJOpTAIso9K/aQkkJJASgIpCaQkkJKAKYGUg5CaDykJpCSQkkBKAikJpCTwMQkcl2IIA3YEAS98QA+uEI9vGNAG1NhhdBeQKNHURxCtRGUT1s4VzgtK5SRKKyzNoTlsE3zqeqZ4E51FQaFIzfPpe65505m0XN9z9cd+Lyh0Z6cAgmjZ42OHq330hzLzmYOJ0upIKN83TJuoXruAWMmwLSrTk41WUGrXV84uexDWx6DxT8S2BM3BRGidDDYvKBWeiP3sbJtn24iO2LxYa3OHQYrxAHZMIB4BLjZI0aYVBECiwpvgHxs8R2HZYJkg0GUQSFEXORcY0AZPUsAK2HEBHmPRsgE7SssEKZrguVi0XGBQH5Ai6ZtYAhoZX5Ai2xLwpg6ZC4DkAnASiJmdnR0TpEha5EXBZey7CxiVKEhR52AswKMJEFPHwOaLz23QmAvwGARSNPvoouWau74gRb5nglR9QYpsZwOSbTkHgRRNMKCrP6Z+msBCW68V3KiLnrYLAyna881sF4tWkI0Is1OkHwTMVjsVNHd9bB77Q77DbJ7yoDaiK2xeEJi6ozaPMtX5diJtHu0U7ZsJ8iZvCizkuCgw2wQpuuYgn4XZPBcwuzNtXpCdUl1M+jFHEtbFItZO07V7cwFjXLtRVwQhzHMO2vX5RCNsHnx2o0E7wURo+e7UfXe2PnJOJq2O7DR8ohGuHXcicj7Vx8xHp1y7JJ/57JqDQbTMSFRHIiK2HekILXuOJJtWR2yebbs6YvMSpZWMY46nm/74zhEf/ekKWonYvLC1JYVBUC8m9WdKAikJpCSQkkBKAikJtEugyxwE127AHgffd2xPyTWeyaT1SZ0vYTJ0ec5BYxE2ZsmmZe9iT/UxDBsL9s/3nbCxOBG0TvXx6YgNCpur8ehGsmidbuORLN2IZyzC9CweWmHj2lnj1Q5SVNCYMsKQHP838ypmERQ1IkHtzLyxmVeJpx2/b+bG2dbM/3YVLQ3Jq2zs/pAPzdmaNRVcsukILXMsVDbmuXeXnF1FaviemRvVdj60TByJa464ZOMaMzP3quE3e751hJY9b3zGTHPJLtnY9UA4F8ywrJkv1/4EydksSKTgrLB545KNyQP760NL8SbmXHKd2U42LdMe6LwxnwXptRakCtP1eO2UysvFl4kj8pGDqz+fZJsXr52KZT/jpcVxddm8ZNqWE0HL1AMX5sVl34Lspz3nY9mp40CKZnUwNtKGNEQUvAlc0txFLJCielAuIJ4PLZsHnUj8MxZgx2wXxAOfB4GZzCqDpGVOCAWlsP9mZUgbpOgCSsZDK5ngn7BKirpo6MKVbJCiC/DYGSBFe6xjVSiz57Mu6jYwKlFgoQn+Ub46QstUYnt8dCdiOql8R4FeQSBFbaeOv+m4KOhSc9phYCaTlg1StMGGQbZFAcNBtFxgQ19adn/ioaVgzURsnl1JMYxWsm2eAup0c5OozTNtl64HLpBvrEqKsdYDX1qm4696QLq2LU6WzXOBFCkLG5itPOhO3gUs7AyQomlbdF1U/TEdBHMNt0G+HDOtrGrblpgpBjss4xOmCQp1+NDyoe8Ky7jaJZOWT/gmUR58Q5M+/TlZafnKxqePvrQ+iWPmI5uOhDVdOhwWRu2IPfAZQ40smCFYn3l0svDlw2vK5vnOhOh7PnrQEVvpO2Z2WqCz+fKRUrw8dBkGwYf51DspCaQkkJJASgIpCaQkcHJIIBVBAI67ndLHO/T1PhMd4kR5OBF8+fDq67Umk5aP7H35OlVo+fQnFUGIPZo+kU6f+RC0k7Xb+s55n0hNMmn59NHnez50fGXV2bR89MeX1xNBy0c+vnwprbSWlha5rMkGjWnOyQRsuYB4djvSYlsbgMQP2rdd2bfFsZ0NgrOfBRWlCLqB0QQWaj5OO2/fDKhyMPvsAiC5wHk+tMxcv8kXv2sX2XAVZ9E8Efl3gc3ikU0YEM8GjfGbWnTJBLK6AC52f2zZkJZiEHQsgvrDb5kAQdccNHEDQbJxAXaCinWZcnbJ1CUbM8dNHjTHbdMy+6O64uqjqQcuXQwCfpo6RfpaKClMD+x2NtBLafnIxtR91SkXfXMOBsnZRctlI2w7Zd746bJvXWHz+I1Y9tMFNnM9szE8QbrItjY4vLNtXti4JtPmBQHn7bXFx075AODVTpm3u/oCmV3rgWIQYtk8l506kTav/RSDFhJRQ8LJrRNOO2QjtfWdRG6QoyDC2rnoByEzzQXW1c41IWxaarATpeVCldu0+A27dDSf2Sh5l2x8btLjWMVC17vGlbKx27meuZD6Nu+udpSzC/XvQiiH9dGm5Roz3/645qA6pDrnfWkF6UbY6YdE5eySA2mFna5w6Y+vLtqycelPkB2x57OLlq0/HaHlc+usj83zlY1NK8jeJMvm6SZM5+mJsnlh40q+fGyej/64ZOqjP742L8hO2aj/RGxekJ3ypRUmZ187Fa/N6zIMgiu0kQq3+QSFkv+Oz1j4hNJIxzf0GfZesmmdqHPDyR+tKEWfMfN9J2ws4vleMmmdKmPmI+d4ZBjW73h0I1m0fOaxrxx8aHX2Oz68+sjZ5x0d+zDdiIeWz7iGvZOIjLvMQUiEuVSblARSEkhJICWBlARSEjgxEjjuNkc986wekCs05HonrF1QmCkRWkGhlGTcbKZ8dmV/Ghsa2naHH02AltZWpPG/NN09Atyr86/pGenIzIxIG9f4sIUpC1dISb1pM51k03J5t0G0wm5vC0o7hKUTNGRuesb2M1f40MW7q51LDnZaLWi+mXOEMvfhy6c/QbQS0UUXraAwrT3nXeF3n/nm00cfexBLDmH66TvWPnoQDy0fPUimzUsGrRNh84LsgU9ayGcOJmrzXHM3KMVk2i5fW2nblo7ogYuWHbHw1cVYNi+wUJJ5E5guXT7FjfgxM7/ISWwWSjJpKRBPBWUXXVJwlglKct2uZ9+k5+LBRcssGqKDrKAuFbbZTp/FU/jJLLpkt6uqqMD+Pbtl8U9Xb4AAROaS6RCki5sg/y4uQiuQlZ2NPv0HIC093buAkxYN0cXUBBa6xofPFBil+Te2NW+GNGm5ioaYebsgWib4xwTi6ViYOW51ErQAiRoTjrVd3Ejl7FMoySwO5qIVb3EjNdrkPVYBEu2jCTZkWz53FSmyx8wEQZm0tOIaabE/WrhG5ad6rWPGmeUqlGQXN3LRcumi3Y68xSqUpPZA5cDxCOuPOWZBdsosumTyYM4b29742jzN/+tYx7J55hw07dQn0ebFsp9moSRTNkH2M4yWj80jDVdxuCCbx/dtO6X2k/9mA80VwKm6qHbK1EX21XUzpGk/O9Pmhdmp4yII8XrAvrsdH08pyJN1eUX2LtnXy7dpuUApunNSw+Xi3fUs3t11a2sLNq1fj4qjR9qdAzoCMmHketEMNDbUR6MLbcxIFCEtHQOHnIGS0lJ5au6uk8GX9ttn1x8kG19PNmy+uTzzIC+/s6IRPl54V0QQXF6+TxTDZ8dly9l3V+kTXYmHViL98bEtXWGnbDn78BWPbBK1eTZfnWnzVM4+eu3iyxVB6EpaQfPZhwffdcoGqNvj6mPzdHPWFTYvhUHQFbGL/zx86CC2bvgQ6RkZ7V/mBO1eUICBZwwVB+HQwf04sGdP+45K4gitrehWUIjBQ4dJNCH1k5JASgIpCaQkkJJAZ0jglHMQZEdthOODhJLs95Ip/OamJmx4/z3UVFW2OwiymwAw6Iyh6FnWSz5XU12N7Vs2oba6+rg+s//9Bg1Caa8+yWQrblrJlnGy6cXdoVO8gY/8fN6JRwzJphfPtz8p7/rKONnvfVLkq/30kZ/PO51F70SMR1x1EOI5E2yDOHxDSi6wVFgoJVFQiivc5jpf7BM+tHngYAadVS4/sB+7tm/7mKPD7xBfUNanrwANqysrsXPrFtTV1jCX0D4/+F73gkIMGDIEObl5x0Ug7JCV63yxT9jZFW5z1UGwvxcUpnPxZddBSIQW+2KfqfflId4zwSpoX5BVLPBPGK0w/fFNq7l4oMxsnfIBvPn2J1FaPikGTQGaAFubr3jsVFi9EV/b4gNAS5SW73zTxStMNvx3G8gcNt9cKRMfAJ+vLvrWQfCxESejzeuInXLpelfZvE6rpGhfJ0sB2ZUUw6omUjD8377KlZPEpmVXP1QBqrK4aPlUP9R2drEMmy/79i72VwFipkfJqMDu7VslOiCLflstAWISWlpakZuXh8LiEkSyIqiuqsKx8sNoaWk+LhWhStJnwECJNmgfTVCffjOZVcV8aLl4cFUeJK2wypAuWq4xS7SSom+FMsrSNKBB/bGreZogRdJwtVOAoGmw7aqMJjBKx9Vup/PNrGzHd5NFyzWfyYOtiy7jbIL6+L6Llqvapg8tl2xccySIh7CKlbb8lHezncv483udbfMSsZ/JtnlmxVfXuLrsrks2dlVTX1quOehjp8iX7Sj76rUJGNaNoG0jToSdsudbkP20Kxjbdsps155icIVO7Gc+76gBsNMALvBfGMDORcvlybr4dO36Sc/8pguA5qJlt+M7LlqmkQ+Sw5HyQ9i3e5cs+kIDaWhuacaO7VtRV1eLUaPHYc/uXTiwfw9GjhqHqqpK7Nu7B0OHjUB+t27teATyQEeiT78ByIxEhJaLL9eYucbCp4+dLeeuHjOf+RwkU5e87Dmf6FxKdMx857NLzi59tXf0Nl8+3wvSg86k5TOuvnz56lQiY+ayZaebzfuk6E+ia4uvzQtbWzpLzqccBkF3UKfqn3QQDu7bC0YMdFLRg3t39dviDJw7dyE+eH8tNqx/D3MXXIDy8kPYuGE9ps+YjZKSHhJRiRqRFgEr9uo74Lh676eqXFJ8pySQkkBKAikJnFwSOOUcBJen5BKpy6PvyHvJGjZxEPbvRWvbQq87hsqKCsmll/TogcrKStTUVKGkpCcaGxskHVFYVCQFkvTnZHAQ4pGx7WHb8vQd16CdX7LG51Sm4zMevnL2oZUai66ZLakx6zo5hwHg4xmLMJt3KuhPe6EkE/RAIWluz87/a/5CBeUqqGICdsxCEnYe16RFejYPpGNjCcyck/Jg31hnttNBCstVmv3RPmuBC7s/mkMzC2rYRaT4XS3EojyQzuHygzhy8MDHji4qLTO3bIIo9ZsfAZBakN+dEYT+7TdgqmxsvsyCVCobswCJ2R8zqqFgJv5J+diFXjS/GFboQ/NxCggjLcUgmPgJPjcL5RyXC2sDadq0yIOJ9dC566Jl9ydWMSBTDvzd5itRWmzH8dH5Zo6xytmeN7Yuqk65aKmMzTEzsRGmHqgT4MJixJKNjplLF03gmtkfnZOqUzbIylUoyaYVS69tO0U5mHJ29ScRm6d2KlZ/TJtnF35KxOa5inW5bJ7LTilWSscsqMCWafNc9iBRmxdkW6hTseynaz2Ih5ZdhM811vyGWShJ56Btp7ToEnk27afqTxDexC5aZhdKMtspLZsHftPH5tm6aNoIsz/x2jwvB8E0NhRovIrns3Al4iCoB6YG1QQkBk0IG9zINvpMF0Fz8QwySjq5XLLRiWQvXKS1f+8e7N29sz2CwG9nZ2fL9ceMCuTm5sniyUmRl5eLpqZmiSLk5OTKolJbVyu4BdIq6tEDAwcPlRSD7YgpX2b1Q/LlWmxiOQiqQEGLOvkwHYRYyhJGy1zUXRPcVBYXrUQXdc3vsS+uqoy2g2A6cS7nSeVsgpliLeqxHLGgMTMBVUHOujmfzUWdz22nTo2ZqVP2IqjzOZaDYBsgfst+RrmobEwnQnUx1uaD7Uy+gmj5Ogg2LXNBVd5NWok4CLZMSY90fG2e6SAkYvNMgLWLljob9mYqyGmIx+YF2RbVddNO8Xuq12F219Z109mIx+apA2frp8rZtZFx2Tx1eDTW4QIp+tCK5SCYsnHZKVOv1W4EbWTU5nF8TJCi7dzGTDGoV5OMAI8PLd93khW6UUOkBi8Z/Qyj8e7qVVi29FU0NTWgtaUZfXv3wajRYwR30NBYjxkzZgvmYNuWTZh51jk4cuQwtm7djMlTpqOurh5vvrmCFzKguaUVw4aPwLz5C9G9e/ewz3bav/uOmY+Mk0nLp8M+3/OhE/ROMun70PJ951TWH5/x8JFDasw+OjbtI9MT8U5HxtHm14eWzzvqOITZsxNBy2eMfPlSWqccBsFHCCfzO1s2b8L769agualRjjgWFBSgV69e2LdvL1qamzFo8BlyaoFVFIcOHylHHQ8dOijPm5oasXnzZjkeySOR/QcMwplTpyEv76NaCCdz31O8pSSQkkBKAikJnDoS6JJjjq6duu3JBO3m7fd8jlZp+C7RoyGmd+jLl08fOS0OHtiPfbt3ijMgOeT0dDmmGL34hqHfbHEEmhobkZ2TI6FYMwTEVIR6sTzmOGDQELm7QX9ccrW9XR/Z+/Qn6B17h5romPnST1Z/XLsDl8ftI5tk0vL9nq+c7fFJtI8uPQuilegcDGsXj5y7kpbPmPnaFt9xJb2utnlhMvXto8+86WxavnJ26Y/vM3ttscfMZ94EzflEeAjTHymUZAK9tAMuUJ9dzMLVLghYyI6bxYwSpRVdSPExWnaRGsUghPVHb31TQdlFd1z9ccmGC7eZQ2N/XbRWr1qFFW8sR3NjA1qam9Cvb1+MHDU6mmJoqJfjjJs3foht2zZh+sw5OHrkMLZt24LJk6ejrr4Ob739Jq95RHMzcMaw4Zg3fwG6desmMnEVDSFfNsjGVRiD/IYVpCIt+wZGyiKs4JGd9ySvpEXshf6QJ3uOuPrjKkjFZzYt0rX7Iw6ZcfeFaw6S11i0yKNiEExaLjnbtIKK1GiOW2VhF3rRPLspZxODoHPX5kvnoKkbfIdz2qTlAimagFTSV12325m6qLIxC7G4ngXRsvFAil3QRU9p2cWN7DkYJGdXgZggAKc5FmYxIOXdfmbbG9d8/iTaPBPz5MLBqJxt++maIy58k6/NM/FA/GYQVsqcg2qnErF5QXbKpBVk81x2SrF/qosuO+Wynx21ecfd5khiOoj8mImKVaG6btyy26k3aNKyPSUFG5k7X5925Ik/PqVCXXyF3aYVxFdYO9v7dMmPz95/bx3eeetNSTEQg9CzZ08MGXIGtm7ZKA7F+PGTsH3HVgEyjp8wGRUVFdizZ5cUUKID8d5777HzkmJg2mHW7LORn58vMgmSTaK3pNkeqY9sXB6wyzPvbFo270E8hJXadcn0RNCy9cc132z9UZ01HRmf/mhkwNSfZNJy6YZPf1x8JdtOpWxetOCaa77ZdtfX5vnQoj0I00Vfvly0fHbqJ8JOJcJX0NrSGTavyzAIarzat4yOX3zfsQXhoplMWrF4Nh2cMOAK3z125DDKD+yTxZzv80/TKH00uekEsNoi66ZH34sqKG9/jCpwt4IClPbq215J0YdP3W368BomQ5czEDQWYWOWbFo+/fOV18nwXthY+I5rPHIOk2GyaYV972QYB185+77nO65h+hPP93xo+cjah3cfOl3xjg+vPvPZ5x0dizA5x0MrTDd8+peInLvMQUiEudOljXq+7M+mjRuwZvUqtDCC0NqC4uIi9Os3ALt37ZAIwrARI+Uo5IED+zB8+GhUV1dh//69OOOM4WhqbsLmzZskxcAIQr8BAzF5yjS5vyHoxzVxEp1MidLybefDly8tn7kTRsveQfvQTL2TkkBKAikJnC4S6HCKgTvbsBC2b+jbhxZ32DTcdorBFZ4K48umpaGbsHauUFesEFlNTY1UQ0xLT8emDRvw7rvvRDEILc3o3as3Ro4YiQ8/fF/qH0yeOkPSDTu2bcHU6bNw7OhRwSBMnDQFDfX1WLV6lRxzVAdh+vQZyM1ljQTxW9vmpXmEic/sI032e0HtxAc25rpNS9uZ7wXRPhG0bN6D+Yw6C3p3Vpp0m/lCnhCx55s9n4PmjR2uDgrvkyszz+7SAxctV0owTA9Ih/zaaQdfWnY7H1rqiMVKXyaa+lDZm3wFhZh9UqEdSTGEpSGDbESYvTnVbJ7ZH585z/nvI5uO0LLnYNCaFLa2BOmPqcPaH5OWa5760vJJ5fjIJhE7FVgoScFMJrDQrhbID5pFijRkroAdDbEoGMN1m6NZNMRVWMgG/5ggRQ3RuKqK2TwEgS4VpGjTUt5NkI3rGfvMtrZs+K6CFI8cOYLD5eVilBvqalFXU8UkgSy8GekZiEQy0djYJKtTJDtLTjA0NzUjKzu7rXJXEyKRLPkOnQhZs1uB9MwsZOZ0O+4q6NPFc+2qfnAU0gFkR9JxrLYZ2ZnpyM3iE4hzwBLXHDe7Ip6Cf8zxV/Acn7kKkLgq4plgQ5OWXenSBFnxvaCKeGb1Np2XQSBFNZoukGKsimu60Lt00adQEo2ZqeuUtcrBVXlQF3ZtZ8vZBqCpbJSW2ikFKcayU/yGbfNcVfl8Kinyu1qQSu2BTSuW/Ywl53hsngnqpP3oLJuncjbnrm372Sfzmc55BXBqET4XLZct1jmofVQbqcBs3czZa4uCFM1KiqqfPkWXfIvDqbPEeaXrgY6rCVJUXVTQpVncSgGPLlrmGsvf7cJPssZkZMgmR+2BqT8mX0rLtFPtEQT9RzXMumCauQ+fZ0Hv8LnpYdvv6UDaXr7Nl8tTUuGavId9j+/60uqIbNifo0ePtjsI5YcOCgBR8AWtrVLkqKy0DHv27kZjQwPOGDpcjkIeYFph2AjU1dVJymHQkDNkgJliaE1LFx8hkt8DkZKBaG1NR2ta2869NXpjJWUtHipaxQkR77E1Gu2Rvjfz9zSk80SEAfzUNuYCLbiHNtDqR5O0WSo6MirC9mkc37YSwrxnIvp79Arr9iAEnZp0AmHb8BX8+8faRMGx5nsyJ9gfXqHbPshRv0j7Rh6ivEXH1WwT9e4ZdflIHuwP25BedmYahvTMxqYD9SjOy0C/4iwpREXwZ3FJSbuChemGrSs+czBIXxKhZe80yK+tG0Fz3pzjHdVFF61Yuq98humZj/05mWiFjX9H5eyaI8myn2FjEUvO8a4ZaotdEZ5E5o1G4BJZD0welC+bh7BxdfWnK2j5jJkrGhGrPykMgrkSdtLvpoOwYcMGrHr7TTQ11ssxx4EDB2LSpMlY9c5K1NfVYe6C86WQ0voP1mL+ggtRfrgc699fi7PnzEd9fR1efuUlhg7QgjT06dsf06bPQEH3Ao2Ny6pJ75hHIrOzsuWCp6rqSkSkpHOOPOeqmJuXi7raWolcMEXBRbyutg45OTmy6MpLbfcfSHnntDTk5eShrr4WDY2NUhKaDgB5ys3JQ3paGqrrapGZniHfra2rkYU1Kyu7nTc6Bg2NDRIF4TfZpoZtMjMRyYygpjbahmWl+Q4jKTm5ufInT3Dwm+LxM5/SViyqprZanJz8/DzU1zegqbkZuTk54q2Tt7zcPHFC2IesSJa053fYn3zpQ9SByUhPw7GaZmQxghBJE8eBDgIvzzLD1500RVJkUxJISSAlgZNOAl3mINg7GZckfN+xPaXOpuUzarF4VweBnmhdbQ1qKivar3tmqIq5bi6ApMFFkGeCef8Cf5dQNRfKnFyJANTV1crilZkRwboPPkBNXQMuOP+86E4d0bz5xk0b8dijj+H666/H4CFD8E//9E+YNm0a5s09F7/81a9RXFSE6667Di+//DJefuUVfPELX8CuXbvwyKOP4uabbkJRUVHbLj4ahbj/l/djQP/+uObaa/H8Cy/g9eXLcccdd2Dz5i144okn8MUvfgH5+d1wzz13Y8b0GZgxYwZ+dO+9GDNmFC44fxFqa2uFN9YXePOtt/D000/hG1//uuAbfvLTn2D2WWdh0qQzcc///A8mTpyIiy+6CM88+8Xl2nEAACAASURBVAzoTP3F5z6Hd99dgyeefALf/MY3pX+6Q6Bs/uu//gtTp07FRYsX44mnnsTePXtx44034q2338ajjz6Cv/vWt1BdU4vf/e53OG/hAowcNUrkcfbZs7Fg3gLUM2XT9sOoRXRXF31wMjkIvrph7t6C9KKr9SdZvPvoYVe849Mf8uHznu87qTHr2MgmS86uKFaiehYPLR+9DnsnEQm2pxhsYJQLQOEDJJFQtgVc9KGl74SdhSUP/IkFSkqUlvLuAmLZwBu+a76nRWpssBnfIQbhyOHDEgKvqqzAkfKDcllT1CHIlTRDZWWFyK2kpAeqqipRU1WF4h5t1z3XVKOoqBjNzS1CiztehvebWoBuBYUoKyttX9T4DS56+/bulRLOLKK0ecsWdMvPl5oL+/btk913nz59BAB58OBBDBg4UBwR/lvfPn2Oy5uS3p69e+VZn969cOToMZQfOoQBAwbIdw4cOIB+/fpK1GD79u3RRbWkBLt270Zebi569OghtHXMeJX1gYMHMXDgANnR79i5U3ijU8Lf2aasrAxHjx3DsWPH0K9fP1RXVwtvQwYPbr8oTJVhW9s3e/fqhcOHD0t0oE/vPtJmz949GDJ4iMh979698o2C7t2xeetWdO/WTeShIXeX8uQxxVBcLN+0x1XTONrOzL3zGenyfxN3Y4f3db7ZtGw9CwIz2SFZDR/GAjz66I+LL5duxEPLR69NObjsSDy2JZm0woCf8fDlsiM+sjnVbJ7qhcsWu+ZzLPtp0uLvYWBQWxeD7LpNywUGdem1bftdaTsXAN7ExamNOBG07DkYy05JJUUySeZNYITLwLnATHY7pWUaRgWEuECKauj1eyYPLlquylkK2DEnEun59IfCMhf6IFq2obcHNgjoxR2vOgj8zpbNm7FmzWo0t6UY+vfrj7HjxuO9taslcjDr7HOwYf372LLpQ5w1Z544Flu2bMS06WcJHuH1N16P5vCZYujTD1OmTkNObs5HBxjadi46sTMJjGxslBw+yzqr/Ljgc1yaW5olDcH+CJAnM7O9WJa5+NGp4L9pG6YEtI2CXgRols7y0RlR0FnbN5UOxzravkVo8ScKTuMYRHnjO5RTdD5EeWuR+dmEzAw3b2xDHkzwUztvkcyoM9XUKDgEjndjU5OkN8JSB3QQCgsL5b1YziD7oZUHzflsg+eCDJACC1VOidBSXXHRMkF3LrCuyzirk2I6Gy5gIXm2K1a6dNh+FgRStOUcRovzxJazOY90J++yUyZAMMip60yb57K7J7PNsxeSIJtnzjfXOuJaD+wqk+32KBJp992DNpq282RXIg1y1l2bPLU/+tGO0DJ1kd9SkKLSdsnBx0Z0hJbLtlAP7Gq4KtMuuYtBldQGr4SBWYLa8fnJSMsO8WhYy0wxHDt6BAf27UVrK0GKLejWrbvsuMvLD8mi2Lt3XymvfOzYUXEAmEdnNcXSsjKZYBoB4MK5d/8BZGXnYubMmdFcOo11JCLpgldffRXnLVyIvv364de//jVGjRqFiRMm4Kmnn5aowgXnnY/Va97F6tWrccXll8sOm20uvfRSiWgo7+TpiSefRK9eZVi4YCHefucdrFu3Dpdecgl27tqF119fjquuukrSIX/60x8xauQojB49Gg8/8jAGDx6C6dOmRU9etJXH/mD9eqxcuRLXf+pT8oxpjXHjxmLEiBH405/+jKFDh2LWzJl4Y8UK7NixHRctvghbtm7B66+/IW3omCjYkrw99Mc/StsZ06dj6Wuvoby8HBdeuAibNm3G0teW4sZPfxq1NbWSGiEvgwcPxq9+8xuMHTMaU6dMbbsDo01l2zAXGo5RkKK5ALrmpO8zlWm7xQsIQ/u8F/ROIrrRFbSCdENl4dPnk0nOYf35pNu8WHNcbVUsGx401iZdfSdszieTlot3mydfvuKhFTbfOotWl2EQXEL8pDwzHQSWWG5prEdlVZXskJk2UE+Wk6CpqRmZGenIyIzIjliPnPDPnJxsOf7IXXphQQEqqmvQ0JqOAQMHtEcQMjIzUFlZhU2bNmLYsGHoUdIDb739loTTGa5f/8F6ZEQiGDViBA4cPIDtO3Zg/LjxqKqqwqaNGzFm7Fj5TmsL6wLw9EAa3n//feTl5ctCTAdl1+5dGDdmLCoqK7F5y2ZMGD9ewI1r1qxBjx490adPb6xdt06wDv37D0BzU1PUecnMxKHycmzbthWTJk2SSAPfKy0tRe/evaV9SY8SDBo4UJycQ4cOYcyYsTh67Ci2bom24c5fF5P0jHTBJ/Ts0QMDBw3Etm3bUVFxDGNGj8GRo0cFizFl8mSR2foNH4LRGn6L8mBapl/f/u2nScCTHPz/o2IIJxUG4ZOiK6l+piSQksDJI4EucxBcOwSXNxgGtOiIp+TjfXbG0BznIDQ2AC2N2LZ9p6Dus7KioXoJbWWyHkIDGht4SiBX/u3IkWMSfue10PQC6EBwESsr7Yns5mZEjh5GS1toXnnX/Gt7jjgzWliJuAc9Z0znJI0h97awv9nGLoekbZiOYJqCKYH2PHl6mizA/NHUgDo8TA3orZXKWzT/xfZRp8Fuw7bkjekATUnwfToDdDSUN/2TDhGdGcG9ZKQDrWmSNpHUUVtKRfumIUo6KnynpbkVPK/QypMWpb2Q9u6baC3pCYyeBDQ3nVQOwqmsPz68d4benWiaPv32fcfeJQftWpNlP0+07JL9/WTJOZ71J2zM4qEVNq7Jllf7WkIAgubxNJQa3clGb31LRqEks5iFflhzITTkFJSdc2rPV3MRjETaUwqu4iwMYds3bpn5MqVl9yfRoiFBhT642NnFWciX7SA0N9Shpq6urfARc+PR8/uSW2pqEiwCd9fcyfMYIumymFJTY3RM0jMzJIKQ0diASGUF0uQEw0dVA81ahmatQ3MStdVa+ti8Cqq5KJPdqNXoQ0vbmO/GqrPYPimtmpCuOo98167j6Oq3ybPNf7SvdBCygJJSpK15E61FPYBR41naTRwEOmZ03Lq6UJJZzMTWRc5n30JJtm4oLc5LNZomLZFIW740qKCKGivfQklm3tPWa9Me8N/MwkImQIz/xrlvFxYSTEubjTBpUadsXbT7Y4LG4rV5ClxVvmxaLtkE2bygwk+x5ByPzUtGoaRkFjdKJq2gQkns80eboeNxKjoHdSOjC7mrUJLeYKtYHJ1vpv64cHGu4kZ666yOazILJQXpomIq+KfqtT13TWyE2hbKRNZddRAU1KfCskGDuoArcfV+TMS1KotNS8EYCjhy0eIzW8lcwEUXACkIbKSAJ3NC2EBJ/ps+U75MR8nkQWUT1B8T8Gg6PC4Hgd9taGqSUwAZGZnIzc1BXV29GMHqmhpkZ0VQV9+AnOwc2VE3NDQiOydLdsslJUUo6NYdyMhEJL+73M0Q34+9D4+vdcffjkYzyHfinnFr1EOQVd52a3w51OJSrW3pBUYg+Hs0IkIHQSspqrHhcxNIpIqni5kakiCnWxXW1B+NcJi0TKOuwELbgXfRUoRyLFr8tl1xzQZUufRa9dM0cJSH6TzZ7VSvTV00ZaN8qkxtOZv9celismmZ4OZk2Dzbtpj2Mx6bp3JWB87H5rnsp1klz6blsm++60EsWvw31Qt7cTYXLsrK1B/XOkJaOkfUqbP1R4HmOk+DbHgQLZ2ruqDaV4Lb+tMeqTWuknetUzZfJkhRnXWlZZ40cIFBTTC9vb4F0dL5Zuq6Ot125VaVTZelGHxNdth7yQ7L+ISewngK+3cbg9BcH60L0NjcLDl5FvphOoF/stBPVXU1strKL3Pg1AjqoPXsUSI1BZgiiOTkxrVAcjKxLgH/5+7YNO5h/dB/Jz/0hkmLfMTzox4qjzBm5+TIcUMdU186fJ8nOujdcxE3o1w+NMgD25IGsRPtCF4Df6AOwulWKOlU1B+fMT2d30mNWdeMru9a4POezzvqVCW+Sep8uZxUDoKPUH3e8RW8Ly2fYYhFy3QQWglMbGoUkrrQ8TInXeiOHjmKgsICWXy5iNPby83JlagC8/aFhUVSVImLG09AZOcG3+To4pt0uTjz6CXrDeTn5ckxwnh+6B2z5gA9bZ7AiGeC6+LM9pGsLAEYJuIgsJ5CTW0tigoL2y6r8u8DeWCdBMqAxxh5qsP1czoWSkq2biRTh+KZg6fLuz7y83kn2ePqI19fvnxonQzv+PbH5z2fd3zH7ETKJvCYIzvI/+2iFDSu5oLgEoT9zOUBcxdq0nJ9j4KRnHvb/QH6d5sH+x0XLR8eXN9ztYuXlukgyKRoG3ECBHnigKcCBg4YILvxTZs2YdjQYciMZGDP3n1STIhHDPfs2S1OwdAzhqKyukrKIie6e6ZDwgWWiyN30PEu0JQ3j15yXHgkMh4HgV1nGI19IfCCDkq8P+SXITY9v2sfQwyjJ+mdhgZxwCjzoChIPHcxJDoHg+aSOeeTPZ9tvXbpsI9+BvFlzweXPXDxwHELsy0+crZ5V0Ns0+8ILbuPLlqu731SbJ7qYDLsZzJoJbImudabRHUxqF0ieuDLQzJsixRKMvMQOvFNMIYOkAIvNEdjgobM3JEWQTFzlWTWDAXbhTFcPNj5RfJhgjFMvuw8Edu68rg2DwpmUiOiQBKl7eLBBJfoewxZKzBGJ1b0aGLOcZUUzcVLd7KsLMhSxvzZuHEjhg8fLrtzVjBk+JtVAnfvjjoIPLqohX50AjA1wdoArXTeCD5jfp+3thGbYF5e1Ab00pydme/SSacGzDSy5oQ87nc6O4YDZ7bh7/wh2JInBvhjAlLN+WJ+M6iNmY/0/U5QGzPfzXeCHKRu3buLA2TPES0sZBb14fjrDXLqBPE90/kIyv/axbpctMizWczEBSy0+WK/YoEUdS4G5TjtnLBdUMXWRX7PxmK4nrlsi0s2JqhP9dOVx7VlY9spFw+nm81z2SnFrnS1zTPnvImfibUe0LaRT3ttsQv42HbdnjecJ6TFdi5goc55V5Ei1xykLko6t61GimvuxgIpmngGm5ZrHbGxC+TXte7yGdcW/XHRsm2E0jL1mv3Rdcqkxd9l/SRI0eVp6CJn797Nv6vSmp5ykMdoe0q2xx3krZm09XthtE4Wr1X7eJTXPbeVWtbFUHlkqHv3nj0YNGigLKbvvf8+hg0bim753bBjxw5kRjKlfsHOHTulVgGLEHEyKLpWFYLh+khjE+qefw7pZWXImjYN9c1NcmujRAnoXDU0tKPEZRHKikiEgr+TLyooJx75zs6JXjXNycMyyvzhjpuKx2JMVELeXcB/YxtONH6nqTlau4HPOVeqa6qRnZUjis+iT3zG93hplPKm0QA+Jx8sl8z2ko5oqI9e4JSdg1pGHdAq/8Y2/Cb5VN74jt2GtNh5KjmrKfKYqEZNNIJgLvSmA0fnoKit1LL53Mczd+lPPPMykQiCD18+uw/XO0H2wBVRtHU2SNfDIoNB8grbvbu+l0xaQREKO/oRZqdcNk9tXLy0gmy4vXN28e4T/XDx5TOu8fBlry3J4stnzrvWsiAd9tn1JyrnIB32iZq71spEdNHk4aTCIJhGOOh3e8J31Xs+vAW9Y6YYuLDpjo0LFR2ElW++iQkTxgvWYPny5Rg3fhwGDhiIFStXyOI2efJkrHtvnRyXnH3WbPD+geeffw5XXnGl5PH/++678flbbkHfFStw5DvfQWT+fPT6t3/Dg889h727d+NLX/wi1r33HpYtew1XX3WVgBv/9fv/ijtuv12KB/3hwQflboTzzzsfv/7tb+WuhTvvuAPvrFqFVatW4ZqrrxYH4++/8/f4ypf/Uu54YJsRw4dj/vz5+MV996G+rhY333SzVEBkYSW24V0N3//+v+JLX/oSiotL8NBDD0nVxHPmnIOf/PSnsvB/9rOfwWtLX8OmzZtw7TXXoqq6CnfffQ/u+sJd6J7fDb///e8xZepUnD17Nn784x/L7Y43XH89Xnr5JWzfvgOf+tR1OHLkKH5877246667kJWdjQceeABz5pwtF0f96N4fyW2X11xzDZ599lnsP3AAn77hBqkced/99+EvPvcXci+FRlNsB4HXPduGqyNzoTPb+uiGzzvx8JhsevF8+5PybrJlnGx6p8s4+MjF5x2Vh8+7Pu+cSPmecg7CiRRWot+uOHIUh3laISN6O6KEZlsR3clmpONgeTkKunVDJD0dhw8fQUFBd2Tn5Umen8WBeMkQQYqMAPB37vgPHjqE0p49ZTe/Y88e9GxsRMt3v4uM0lJEzj0XOYsWobyiQrAGxDdwx09QHisJMnTEC5yYuiBAb//+/RIZYLVFVi9kG17GROelsqqyrU0EGzdskGgG+ebxTF4ZzUqNbM/dOP+NFSLZjoWc6Ijw7gk+z87Owv4DB+UyJp4M2LNnjxRR6tO3r/ST0ZFeZWWCS9i2dRv69+8nEY19+/dLG/LG6or0pFl1kW1YybFP794i0507d6J///7idOzdt09OR/CiJV4axf6SNqsrkjdeSEUZ7t27T6o+6plme3wZQTiVHIRE52eqXUoCKQmkJOCSQFy3OZqFSzQko2EgDYnRI7KfaZ437CKWIFpmO9eZU/PsdRBfmhM3d4Oas9Vn5J20zAtilHfzXGpQf+yz5MdaG9GcnoaaYxU4eviwXF4UlVP0DH9LZiayduxCZPtONI4cjmO9irEjuwn9a9PRtzEDtW2hf1ZVZBli3rw4c9Ys5GRnSc0ELQ5VT5or3kD9T3+GjG9/G5n9+yMnK0scCub/GXpnv8wcsuT8siJyAZIUZpJiTBGp5KhheGnTzIs8sqXSAMGNkmLIzJS0Ah0e3o1gpxgkJxzJksW+ti1dICmGhgapbsjvREGKkHQBT2fweCd/54mKeoIHc3Jk5y4pBh7njERQW1fbdiQ0q70/TB1w3PTIoqQY2vpDXvUkCH83UxkcQ8nPZ2dFsRqOHzoIrINgjitfM+sg6HxzzRvNlyppu10yaaneKb4klh7wXVOn7HCoS4f1WTJ0UfXMBJe6ZOprW8LkHKs/iei1L1+2nH3sVDLl7GunkmnzgmjZ882WjcsW+6wjia4trvXApZ/2muf6ng8t15z3pRW0Tpn646Llo1NsZ+uP2Z/2QknmwNLImOASNXCuSmB2OxLnM7uoCwVkFylSsITmiOx2Ji0T4EJ+zPP7rsIYNq0wwI7mXewCFK7+2MAbtlVACPmqb23GqziCZS3l0dx7QwPq65jn/2gVamWlxJo6zP3af6LozXex+us347XrFmBtVh0WVOfgy0d74slnnwFvFGSInKF6phbuuftuDBkyRC4fWnTBBbJw/vLBB3FxjxIUPfEkXp03D6UjRuCcs87CM88+g/37D+AzN96I9Rs24J2338aFixYhPSMDP/vZz3DdtdeiV+/eePLJJ2SXf/bZc/D444/LxVE3XH+DpCXWr/8AixZdKAWE7r7nHvzFZz8ru/mnnnla+Jg1cxYe+uNDshAzRfDuu+9KdGLRogvQUN8gqQSmEXg88+mnn8aIEcMxbeo0/PaBB0Q2V15xBd5++21s37Ediy9cLBGIX95/P278zI3Iz8vHk08/hXFjx2LymZPx69/8Wk5uXHLxJVixcqVEFC65+GIcPnJEUhE3fvoGcWYefewxTJ0yBRMnTsRvfvMbOa2xaNEivPLqq+JkXX7ZZRL1eOTRRyRN07O0VKIZrghCQWGhOHXmfDOBRPw3Hf+giniky/dM0JDON1P5g2jxHc5Ds5hJPLRMAG9Q9TbbuTUNI/ni923wsQnqMvujDrb2JxYtlbnK1JazSUt10XymoDETiGeCNYP4CqJlG0tNB2pxHnsTobIJsnlmZcgg+2kXZlNaavNcco7H5iWjkmKQzaNczOJWtv201xH2Seeg8kWZKmjdlLPON9Uf0jIdC6XFf9c5obQUMKwOlzmuur7ZtFTOQbTUoVdd1PSA8mWvb6pTOkdI36z4G6SLZn/4u+q6OrP8vtJS2di0lFdbNjoHFdNgbxxNmbaDFHW3YQNj9OOqxK58ic8zVVKbftj3XHy5vDWbB3U4bKCXqz+J9DGoP0rrdRzFL7EbZ6EIZyBPwucM2xPUF/1JA/LykP6rBzDw/oeQPXI0yj91GT48ezyWZ9fgrOosXFJdiJ3792L//n34+c9/jn379kvdgr/567+WsPy2rVvRj5GCggJ8sGkTei1bhsjSpTj2la8gUliIfn36CPiR3x0+bJiE1hmu79+vryyi69a9hzPOGCILLm9l5MTt168vdu7chZqa6uhxyspKKeTUv1803L9q9WpZ4PNy86QNQ//M32/dtk0U/IwhQ9prLDDcT0dk7dq1GDZ0qNQqYJtu+fmSItiydaukT+hkcIFnbQZ+h2NGx4RtmMrYsXMnCgsK5XIlOh48NcE2hw6VS/qDpz+Ij1j/wQfShpgMOlIlxcUoKy3F5q1bReK8AIpOAWsnMOXCebRh40YMGjQIuQFHPRWkaO4ydU6GzZuwOWLqVDJp2QA+X91wAf9cAMQw8JyPPUimvYlHzj6yCRsLF++J9sfF+8lg8+KRaZi8ThStsLXFxZcdSQsaV7YNW1uSSSvR9TMZ7VIYBLXUSfqTi9UD2IMdqMVtGIBiZKH2yDG5hji60LQd98vJwbGvfgXpI0ag6C//Eo3HKpDe3ILMnGw01NejsbVZFsY33ngD//7v/47vfve7GDt2rDgbchIgNxe1DQ1oeu89RJYsweGHHkLWzTejx513ormOhZRqkUcnJD1d2tAB4P9ME/CHVRTpAHAScfGmByrFl/LzJRXCNgzfM4UgJwEA2YmzDSc/29AbZThfCw3RCWEbep6MKFBJu/M7FRXyHToUDY2N4kywDZ9pG3rtmg7gwqy8sQ98X9rk50sKgn2Q72RkyILPPpIeeSZN1laoowwbG8UBIr+kTZ7lZEV1tfBI2vxdnU57CqQwCElSihSZlARSEjglJdBlDoJrZ2FLzPcd22t10Ql7J2gnmCgtbcfT/3QQ9qIet6I/ihA57rImLnRMOWQXFqLxW99CZe/eWD9tGiaPGoWc7Gw8//zzmDlzBnr37oN3Vq+StMCyZcuxePFilJb2xLnnnCs74fc2fIgJrUDzPffgjW3bMOVv/xZ9r7gCK996C/m5uRJeX7lypVyVvGD+AgEFbti4AVOnTJWF+8mnnsT8efMFyMf3+Oe4cePkFAUX4Llz52LHzh0CGJw2bZoszI8++ijOP+88cRQY4mcBJ16t/OrSpXKEcM7Zc7B161YBBk6bOlXwC08++STOW3ge8rt1w8qVKySVMWrkKLz40ktyk+Ts2bNlJ39g/375DmXz7HPPYf68ebKzX7FiBQYPGSInJl588UU59sm0xgcffIDyw4cxc8YMcRJeeOEFaUPQJp0qXk09bOgZWPLii+JMTJ82HevWrcOxigrMmjlTAI6vvvqqnI4g8NPlJJxMDsKJ0A17x52obvjwfkpazxCmffrt+06YPQuKRiQyZr60TqUxO5Xl7MN7Z41FO0jRB2TlA+pjZ2xarhyNDy0FUJigwSBaNrCQbV1gQxsoSSNoFrMwc4kUuouHIGCMhGQzMsRB2NNah1ub+6E4M/s4B4G7dN610K1nT7T8/d+joqwMK0eOxJwpUySk/ueHH8b5558nxw+XvvYa3n77Laxe/S7OOecc9OjRA5decgl27d+PFa++iqlr1iCruRnPjh2LBYsWoV9JiSyUvOlx1qxZePmVV7D/wH5cdcWV2LZtG9asXYO5586VRfRXv/qV5O95ZJGLKBd7HgsktoF5+quuvBIfbtgglR3nzZ0rUQXiFnh8kXxwgWeofsqUKXjyqadRXV0lvHHhZoh/7txz5RroX/7617j6yislYvHSyy9jyODBmDRpEh557DG5avnCRRdi7bp1gifgd7jz//0f/oCrrrhCdv8vLFkiaY0J4yeIbCgjOilMd7B41HkLF8pi/8jDD+OKK68UZ4DHGcePH4dxY8fhT3/6kxQ7mjdvnhwnZd8WXXC+pCiefuYZXHjhIjmJwXF3RRBskCLnt4YPbcCrPd9I08yNB4GGTGAhebCBUa4576KlILhYoNtEabnATHZRF5fu6zMT49BRWi5dN/O/PrbFxWsQXzY+w7ZvybR58dA6GWxemGzUVpppOtU10xYr1iNewHgQLRN3EcuG+/DlQ4t6GwaANzEVfN/mPZZtcWGEbNtCmuZa1hE7pbSkkmI8ymJOyiCDoIuzGlzXILpORLgUz5eWjej0dRBshDr5CkOHBjkIMtnS0/FA2l7saa3FrU39UBzJOc5BkLacTAxvf/3ryB47Frm33YamttLFlC954A+PES5btgw/+MEP8Z3vfEd20VKgaNs2NL31FmpeeQU5N9yAvAUL0NRWujgjIx3NzdHqgJHMzCi4jKBR3jTGqorNLcIjTxPoddf8pvZJTjK0geL4nLt8GSvetNZWopj9dLUhPkDnB6MHvKVSQS9sS0wCcQf8oYwVwETaBEG2j396urwnC2dGulxzLY5cZob0i44H26vi8510Vmxsb5OBpsbGaHuW6RbQLcc1ImBEttM+KLjH5YHTsSBIMewUA9ua4B+NTrkMgu0M2Au9Ogiu+RwL9a8Gx+Vs+NAyDWWshd7mwTRKyoNNS+WtEQmlnwitztzIBDkIts3z6U+QjfCxn/YmJch+mvLTxSXe0wKu+ZYoLde4uuQQj4MQZot9HIR4+LL1x9Zr1xzR6GO8DkKQbMI2DOyPbVuSScuUacwUg09ow+cd3/CHDy2fd9RAh4VI43nPtw9hKQYOpJRKZj7+W99CNQGHc87G6EGDkJkRkXD/xEkTZJf+4Ycf4q233sILLyzB5Vdcjv5DhmAi0rD3+9/HvqYmDLvuOmSefTZWrF2LMydOlDP7a9a8K+h/lmsm2I/5/5kzZwpAcefOHXIigJ4C0wJE+nOHzCOUBPWxjDNPITD/zzZMFezbvw/jx46ThZmRBj5nuYgU7gAAIABJREFUzYY169ZJfQQCE9955x05jsjTCaz+eKj8kOzeOYlfXfoqZs6YKfl/hvgZqRg8eIikKOikMJqwfft2lB8ulygBHaDXX38dM2bORFYkIiDHvv36YtDAQXj9jdeRk5OLCePHSyqD1SmZSuHJB56EYLqBBmX16tUYOGigFJta/vpyqUo5ZswYiYawfsKZZ54pThv7eubkM+WUSGekGHznqu/cCnvP53s+78SjF770wnj3/Xef77ne8WkXT799+Q17z4cvn3fi4d2XXhjvnf3vvnz6vhfGrw8dvsOfsLUlnvfCaIXxHc+/+/ZReeoyDEI8nTiV3w1zEAjqY8480q0b0r/3PRwrLcXK4cNwzowZyMvNx4MPPYjzLzgfA/sPkEWcDgIXyTlz5qCkfz8sfGcVdnz4IT6cOxdnL14s9QIe+O1vcdHixejbty+WvLhEQupnnTVbcvYsaHT11VfLIrx69SrBFnDhve/+X8pxv7JevfDii0tksedC/syzz8riecUVV8i9EOvXr5fcPnf/P/nJT3D9pz4lzsSSl16SUwfEDTz+5JNSu+Diiy+W93nagG246N53//249pqrUVBQKA7GkCGDZYF+9NHHpB7EhRdeiLVr14ljsWD+fIlqPPC730mKgykGpjxGjhyBiRMm4uFHHpGoyAUXXCBVHomrYIqB8nzwwQelDVMM7MPECRMEUyFpiexsLFy4UJwSgkXZhqcmeBzyoosWo2ePnqdFJcVTWW9SvKckkJLAySeBwNscXR6pr2fu857PO0E82B5cZ9NyDZv9Tf37cQ5Ca38UpR0PUtSQPx0Ephhyx41Dt9tvR11bioELHAsCMQ/BBfLVpa/hRz/6oZxiGD52LPbddBPypk6VNvVVVbIL14JADKVzMTQLApEv7sqzeXmJ3IcQLYrENlKsCNF7CqRNc5OUeyaPetcDPUm9PIhHCOtqa6WNFh7iu8QFuNoQ60BnRNqkpUkZZBZv4rt6csK8TCh64VUEWVmR9hMN/CbfYfrCbKMXwihvjBxE74eIyoPP2Xc9bSH3Q2RH723Qy1ykTX0dWlvcV0XHA1L0mYM+3nvQTjBovplz05eHrtYfX77CjiF2tmxSNi/2ApXoHIzHfobN586k5dr1u/qcaAShI7TCdKOzbIs4CMw5aN5Lzz4zPMxnWtiBDLiKWZjFP9hWadlFXdheC7a4aHHRCOOBA0MedIFSheYz+yY9EyCmeXB+wywaw0WEC4ryKuH/tmIWOglc/Qkq9CE5+0yCFPdid0stbm3si5Ls3OMwCCrf1uxsVH7ta8CwYcBnbkQOz9ampUs5ZAL6dAF+Y8UbuO+++/GVr34FZ4wajZZvfhOtY0YDn/408gQXkC674fxu+VK9kLUB2CemGXgagbySHvtFx4PP+cM2PBrIBZjHAzMz0pGbGz32xz5zcWQbLqB0VOiwMLLA55QX70xgFUYuwGzP2yQZqqdMOR5sw3Hmd9iG+IHqqmppyyOalZUVQpM3JtbX1bUfSWxFKyqEt+gtirzsibKg48L0AOVH2tKmuUnSBxy3YxXH5Pv8dz06Sd74fW3Dy56IU2C/WWGyqrJK5CZ5ToePQL55TJN82IW5FMNA2vZ8pnwpQ9Mp4XtBBW9ctMz5bOqizssgWjIH2yp2Ui7qgGl+lO34XCtQkp5Z5It/FyeWuBODltkfNVamLqpxNcFmfE9p2UWkSN+0Ldofu7CQzUOYjSAfZn/4d/7v6o8PraACPj5FsfhdvY1Q+TILC7lsHnkyZROvzTP5Ip3Otnn8nuIeXPbT5MGcu/zdLJSkjr5ZKCmoGJBZWIrvhNFSOZtrkmnDlS/FZCl9c9OjfVRdVP1RvTZ54O+6EbNpsZ3qosrGLPVuAn9Vz1w3BZu3Dps8mPpj04rHTrEPslbqbY428CYIZGOjKYPamUAlmxYZ9UFcKyDEPsVA5u2TB8lE9LpOP8TqD/lR5DQIUoxxikGNKo85Vn3jGzhYUIAX+vTBpQsXysL15FNPYc6c2Rg0cLAcK3x3zbvYsmUrJkyaiKLSMlyzahU2ZWXhjaFn4IqLLpKiRz/4wQ9w442fxuBBg/Hs88+jqLBQju8xvM5LiW6//Xa89957ktu/8orLBXD47//xH7jl5pvRr28/qYTIuxfOO+88/P73f8Chgwdx6623YtXqVZKnv/LKK4khlCjGl770RZSV9ZLTAcQ5zD33XNz3y/slSvD5v/i8pEQ+WL9evsOJ/R//7//hrjvvkmOUf374z4IFmD37bCn+RDnf+OlPC1+bt2yWqoZ0Nv7nBz+Qy6K4QD/0xz9i8uQzJf3BqoysXfCp666TI4rbd+zAtddcI8cdf/7zn0k/s7NzpKri7NlnCSbipz/9KQoKC3DVlVfhueeek1Md13/qeuzdt1eqLH7mxs/ISQ4F5pg7FC21LABJgjzbfoKAhWHoersd9YBz3AQlqW4kQstHp/gOvxEL8OjST19ddPXHZSP4zNZrWw7x0Arrj81DkJz53LYtPjbP7s8nyebZJw9cwMIw++kC+dpgTdea5DoJoEDzWKDYRGmpHoSBJ10naWy+fHgw1xZTzsmmZZ6IMPk65TAIvqGU2MGyj/412fTCMAjc1Tc0NSGvuBiNf/u3wPDhqLj0UvTIixYoIt5g5MiRKCoskGjC8tdfl/z6nXfeiUEjRiD3e99D07BhqLnySvQsLJScPC8qIpaAaYS3Xn8D3YsKMXbCBLmVkd9j7QHm6XnttF7WxOqHBAwyokAgIu9rIDCSlzVxkWYlRF4QRcCiXAqVmSmYBOIcuEjLZU25ubLw84ZEFmbi0Uy25Q6e5Zg5oTfzsqb+vKwpBwfbLngqLirGnr170dLSjD69+6KqqlKOfvI7/OExSanemJUl38nLy0VJcYlUYmRKhQs6jzbqBU/NLS3YpZc1ZWZi39694myVlJTI8Unyzn4zAkJ5sPojDRIvdSItpkF0B2w7CKfbZU3Jnu/Jpuert5+k95It42TTO13GIiWXj4/kaesgnKjBDnMQxDvjMcfcXFR/4xuIjB6N7nfeicaKCjTUlOPgvu0o7dUPkbwyWYi5u+aOWo45jhuHg7feiqxJkwSD0MTcflvqhrn9im3bsXvLFgnh9x01Enmlpe13AHBh5YLNI48aPtIQl4bPTY/dPIaqoaroZU7RkJ4ec2R/1JuOp42GwsLamMchA9swBWAcD7XbaIix/QgmT5HIscnM9rrwLiMXDwbhVDKSPrrh8w777PveqSSfk41XXxn7vney9e9U48dHzj7vnAr9bk8xsEPmOU7N3ZnPNORnhm5UEPazzqJFHvhj8+X6nub71ZDZfYyHlm9/WtPSoikG1OG2lv4oSs86DoMgzLOgUk6OYBAyR45E3u13oP7wflTseBl9ixqw71AVcgdejMKSPnj99eX40b334lvf+paAFI/edRcyJ0xA7i23EJARJZeRgcqt23CM9w5UVACsP4BWlJ09G5mFheJEpH7il0DQXQy2HpCyhrD1K5o+sM+lm3NS27me+c63WLro4itozrt0JVH9Ceujj21xyUbb+fCVSH98+PLlIZm04rFTPrLxtZ/xzsEgPfBZWzQ9lsg6YvenI7TsuetLK2rWP7qNzx4zlz3wmSNBeqApLdPeuNY3n/7YtEzeA0GKCmayQYo0eLrjJEPJAikqLQURsmNBgB3+m+ZM2E4R9zqhg0CX7HhnghQFbBbJbAcp3tbYB8XZeeEOwh13oXrvVhxcez+GD8zAhvVbUDzp6ygbMBLLl732kYMwbhyO3nmnOAh5t9yC1jYHISMnB7uffR51DKc3NiFSUozylSvR7+qrUDx9Glra3ot/ifxkt1CQos43TUMEgX9sYCHf05MTQUAiBdRpdIPfsEG3yQYp8hsmMEqBhSbYLJkgRdKPpdeq+7acbcCj2gOTVhCYWsHHaoSD7JQJ6guyeQrEM2nZ/bFB0aSlctYNShDIO5k2zwbiJWLzXMBCG/Co81TXA13IXMBC5UEXUZWNCVo3QYp8z7T92i4I8EhebFqc3+Z6oMBPkxbbmYBHjo+9tsgJMANYqGuL6o+t12oxgwCPPPGljkQ8IEVbzi6Qoq3XLjvlkrMLTM1+tIMUdQKbHpDrmStskuizjrSzvbXOpuVaJu1v6t/Djjk6Iwh33IGGI4dQ9cHT6JO5HweqWpE9/kZ0Lyo9PoIQ4CBk5uZixyOP4vBzzyO3uARZvXrh2Icfot8Nn0KPWTPRUl//yV7pE+x9PCkGnznoesdnbiVTF9XJMXXdh/cgHpKpi2H251SyU6f6mPnMS995c6rQ8tEN1ztB/QvTjXhohelGZ9mWUw6DkKCt77JmYRgEp4Nw+x1oqjiGytd/jZ5HV+NoRglyF/41crsVeDsI2//8MI6+shT5ffogu28fVG7fhj6XXYbCMaPR0oYb6DIhnCYfisdBOE26nOpGSgIpCaQk0C6BlIOQ5MkQv4MwCvl33I7GY8ew4uU/oeLgh0Bmd8y/7C50714gtyu2YxDaIggRYhBuvTWaYmCYjCmGp59B5QfrkVtUhMzSniCUsHTSROT06YPWtvsPzK7SI1UP1hZBmiAYPo5bSH4bZ/kBCcGZ3nUQn0H9icWnrwz4XspBSLJypMilJJCSwCklAXEQXGecXec9XWc7mZNJtAaBeb44Fg+nUx2E9ggCiwX91V8hc9QodLvjTtSWH8Dy53+PikOb0NyahUXXfhXFPcqwbPlr+OEPf4Rvf/vvMHzceBy54w7QQci77bZo6oDntiMRVO/ejYrNW1BXWyfFmrqVlaJo+DCkRbLkgiLJx6WhvWog/65glLR0/kMbIt34XcCUbUh18n1cGy7i0gg4rn0bUEcX9Y+1sWqZm6GxZLWxv2mHe13fcWmt1kEw5ynfc9UzCNIDn/P5dGjss+Snah0EVy2GoDoIpmzMfKmOV0dohdUu4BzwGTMfmxdEi89NkKoPLZcddJ31j8fumjUIguTckdovYXOXcjB5sPvD8TbxJub4u/iya5LwffOZXVMhaG1xjQ910ayD4ao3YJ7cUntg8+BbB8FFy7QHpBtEK9ZtjvHYKRM/Y/en3UEwq4rpSya4JGgQTTAT39EjZQr+0Q7yTzUIHBifduRJBag5GLOCnE4kX1o6IcJombwHKayLliiBXvfMSoq8zTHr+NscRTnaTjHU/vVfo6p3b2yePRuDSwqw853HEandiyPVjZh2+dew73AVVq5cgZdffhkXXXwx+g0ZgnEPPIDDvXphx5w5mDRmjOy2X37lZUyfPgPFubl4Z/nr6FZYgDGTJ2P1e+8JQJLFjPbt2yd3JJw5aZKshc+98DxmzzpLah/woqPikmKMGjlKCh2x9gHvfmB9BV6pzLsTWlpb8fRTT+Hcc8+V6oK8oKlXWRlGjBiBN1asEKDoWbNmySVK+/fvx5mTJ8sNis899zzOPfccqdLINn379sHwYcPx2rJlSE9Pw/Rp07Fp8yYcPHBQro4mHV4Lfc45c5CdlS28sYgTL5LixU98xvd4FfXhw+WYOnUqqqqqsXz5Msw5e45UbGQfzjjjDAwZPESuvO6Wny+XQvEq6mOVFZg+dZpc9PTmW2/JBU+FhYWBlzXpbY528RzbkJggONUDExilemC3U2fDpG/TUj0wDYLL0Nt6wDlqAgSVBz43Qb4uHnx0iu/YtFw8+NLqiI0wZWMCP+O1EabNUzsl4OO2QlnmkVldGJNp81y0OmLzfO1nojaPcjEdBHu+aWEue5NH2ZoOogI4Y8nURYtzy543Ll10rW82D6554+qPvS66io8lSkv12nSobOeJ3+d7JuDe5kGdVnU2NKrq0kWXnVKZdsldDL7gD/U0zd2cDb5wHTGz3+Hfk0mL/NigLtczvqMpBjnm2DrgY3cxsIiQnLpgCV9e1lRWhrdGjcbkkUOQfnQNeuXXYs/BKpSOuwZrP9gsDgKrGc455xwU9eqFhUuWYF9xMdZOnIhzZ80SNPoDDzyAxRdeiP4DBmA5HYRu+TjzzElYsuQlHDx4ANfwsqYdO4TO3HPPkWuY7//VL3H5pZehd+/ecolS9LKmGXj2uefkQiNefLRx0ya5UXLe3LlyjwOrEl537bXiVLywZIkUM5o+fTqeePJJ1NbU4JJLLpFFWC9r4hjwsiZ+n+WeX+BlTYMHYeqUqXjk0Ucl+sHLmt5ds0ackQULFsiCJpc1XXGF1IHQy5omTZyERx55BJmRTFxw/vl4Z9Vq7OZlTQsWSBGoP/7xj7jyyivEgeBlTRPaLmt6mJc15WRj4YKFclPmwUOHcP7550vRqMcefxyLF1+I0p6lgZUUi4qLj9ud2NEInasukJBrXgbNm1hzXh0O+9iZDVxKVDdcvCeTVmfLxiXnMFCX7zj68O6i9UmyeWFzN5l6kCxarvHpyJy39TqZtDpzDobN3RQGwZzdSfg9DIOgEYn0vDxUf/ObyB8/HoVf+AKqyw+h7tguVB/bg+6FpYh0H4zComIsfW0p/vu//xv//M//jOHjx2PPZz+L/GnTUHjXXag5elTC+1xIeWeBDHY60NLcgrRmIDcvT1IEdEp4vIaXJ3Ehp/HM52VRVVXRC43y8mRhbqivb7unoEXe402RLEDE6oMsKsSdOO9D4A+rKDY0Nko7Pmc1Q23DhYy/08Mlb6x4yO+wgBO/QY+VdzAw9UHacowoI8PZht/hfRD0kPPl3oVm1NbUCi32g99hv/J4J0R1tRRAYl95PInfYT95/wL/Tl6IrOA3WT2R/auprnZGD9jHFAYhCQqRIpGSQEoCp6wEusxBcHlBtudpe2Euqbo8P/s9n3fUcwr7Zjy0zAjCXtThVgxAEY6/zZHfk/xhfj6qvv4NtAwZjLprr0FxTg5aW9OxavUajBkzCkUF3XD02FHZ9T7wwO9w1xfuwpCRI5H1nX9A4/BhaLjmWvQoKEBaK1Cx/6iUMk5rAio2HkVWSQ5KxvTAkWNH5Uw9ywlzUWTqgOWHySfLDPfs0UMW00PlhyQSUVRYJNGDxqYmlJWWSpuammppQ+jA7j270ausl7zL+w94cyQjAwcOHhBsQ2lZqVzIxEuhWBqZ/eSdB2xDZ4FhfS74XHh5JwJ/GLngpUl0AnqU9DiuDUOQ5CcvP08uYmLqgryzjDP7Im169EBTY5OUZC4rK5NwZ/nhcrnESb6zf7+kHcgPL26iPNiejg3LSvP3SFYk8LImVwThRGh7mP50xnxOtm7EkptP/06E3INskB2hSOS9eGxLMscimbR85HAyjJvP/PIZD593OkMXw+Tsy1e8YxEIUnTlVYJANjYgyAbQ+NBy5d5c+X9XzikISBIGngzKVdoXV5CPMLCM0mrHILTWRTEIkezjCiUxvcCQuKQY/vEfcbCoCC/264fF8+bJgvbOqlUYMXwY+vbthyeeeELSArzPYPKUKSjuVYbLV6zEpuxsrBw+DItmz0fz+3XYuW4HCnsWIbM5AxWbj6JwVDFGf3YinlryNPbu2Yubb7oJ73/wAVa88QYuu+wy2XHffc/d+NxnPiv3Ejz8yMNy98L8efPlEiaG4f/ic5/DmrVrsW7dWlx6ySVMsuBfv/993H7bbbIQM0UwbOhQwSr8+je/QW1tDT7zmc/gnXdWYePGDbjk4ktk1/5f//3fuP3221BS0gOPPfYYRo0ahVkzZ+J/f/ELkemnb7gBK1auxNatW3DZpZfJHQv33nsvbrvtVnEKHn7kEUycOEEuXvrf//2FOAtMWSxbvhw7duzAlVdcgcNHjuC++++TfjLF8Mc//QkzZkzHlMlT8H//938gjuDSSy7Fiy8uEcfkmquvEYfi93/4Pa677jpxYBQ4ZSoQx8MHg8A2rjxhLPCPGhE7/6+0zJywC4MQBJS0ddHWDZuW5ipd7cz8sm+e3QUsdAHqbNn4ghRdtsXOCSeblsu+nW42LwyD4AKtu4CFPrY4KGcfNt/Ig6aOdcEMomX3x8YgKC0bROoDUgzTa9VhE7tCvl26yOc2kJntbdCljfVQDILaK5cc1KbFoqV6HQR4jOkguAAuNqNqEChY2UG3tMj/LlCK+cxlULWderjJcBCUlgvgEuQgBCmLD620DN7muBd7xEHoi+LI8SBFqdbW2oo0htv/9m+RMWIE6q66Ct0jWYjkZMvOODcvF1kZmZIa4EL4u9/9Dl/+8pcxeMQIpP/d36Fl1Cg0Xnst6tYcQe2mKvRbMAjITkNrQwtqd9UgsyiCopElciVzXX09epSUSDqgqrJCAHmZmREBLfKiJYb3CWRknxkNOFZRIVcpc2de39AgIXi24djt2bNHoglsw904L1Mq6N5dFmjeBcHdOJ2C2tpaoUUFYRs+Z9SBbfgnL1JiZIDjy+/wGma2KywoEAAnL1vqWVoqF1ExisJFX9twDMgDoxvShqWkAYli9OzRU/jkJVeMjHCB53c4L4uKiiTVQQeNv/OHEQTKQCuD2t617SCol24uzib4J8womQtXPLR0UbeBv2rMTFo+DoJplIIcBHuhj9dBUHvgoh9EywXgVLBWkG0JAvXZxtnXTtk2L9amyMfm2Sc1gk5udYbNc9nPWDbPxUMsvmI5CLFsZZAtDnIQEqEVpIsmLXshDgL+utYDtRmcA66F2IeWuahrhENpxQIphjkbQbS0XZgjZvLeZSmGeEMbp+r7YRiE9vAejzl+9a+QNmIYWj99I3J4vGbPHjQuXYqMmTOROWIEGutq5bKm++67H1/56lcwdPQYNH/jG0gbOxa44dMoX7ILrS3NKDy3J/Jz85GTk4tjR48iPT1DcAF0MDjYXKx5SRNvXMzLzRPRVlRWyO9Z2Vmoqa6RhZWLKrEM0qZ7geyK6xvqo23SgGPHKoQuvU3m+7mAM2XA73BicxFnCJ//5+fny2JPfvic9OmwRDLbcAnVVZKW4Ht0Yuhg8D1pc+wounfrLqccSDsSyZLvVFZVCaYiPz8PdXX1UfxDN+ISWsSx4oLO9nRq6Ijk5uaIw0N5EKNA56CxiZiJbsIv+eH3MzMyndMthUE4VbUwxXdKAikJJEMCKQchGVI0aIQ5CFyYuDNHTg7wD/+Ag0WFeLH/AFx47rkoefJJVPzsZ8i+9FIUf++7eOrxx/HuqtXYtGkTJkyciKKyMlz9zjvYmpeLFWcMxWSMQkYkA49vewY3XHc9Bg8Zgj//+c+ywz5v4UL8+eGHJVLAtMD6Dz/EG2+8jssuvRRpaRn4z//6T9z0+c+jX//+0kZSDPPn4Q9/eBCHy8tx0003Yc2aNfI/0xIE9/3Lv/wL7rrzTkkxkDZTDDz2KCmGulp89sbPyNHB9evX44rLL5cFXFMMhQWF0mbMmNFyHPH/7vs/iTBc/6lPYdny17FlyxY5OcErpu/98b249eZbZPFmuuDMyZMwa8YsSUvQUWCK4dWlSyXFcPVVV+HosWP4xS9+gVtuvlkcgwcfekiOXE6dOgU//99foHv3brji8iuwZAlTDAdw7bXXSpTitw88ICkOnuQISjGcbtc9J3m6p8ilJJCSwGksgS455kj5uY6nJHIUyQXG6OxjIK7xD+pP2F0M3J1zV5tbXIzW73wH6SNGoPLyy1GUm4vIunU4+s1vIvcvv4xuV1+DqkOH8Nqy1/D73/8Bd951FwYOHYqc730PGDsGtZddjupl5cjITEf6hCwUFxZLuJ1hc+6imVYgKJC7bi7+XKx5tI/OA1MM27dvE4Agd+Bsw+ODBPIxXVBZWYF+fftJCL+yqlKeM51ALETvXr1kkWabrOxs+c6h8nIJ+ffp3TsKhqyqEgAkIwxbtm2T51y4Dxw8KMBGphyIASBPBFBy98/wP/lhpGHHzp3yHUYqDrJNTo6kIujs8Ifv8RtsQzAlnRemMrQNgYk8mVFSXIw9e/eCV10zZVFZUSERCTo4jKjQSSAtpkx0XpljHU8EwWcO+gClXLpyqutPorLxaZdM2ZystE52m2fqTKJz3Hes47HF8fLlI2dfMGCyaYWtlYnKPWzOt9/maBZeIDOSK29pEcOueVaGjmnA473Nke34Y964Zd9sZhd/0NyOAkJUQEqLfGnn7Nvv2MbuD/+uYCalxQWQ/VGABv+d/VbayoNZSILPbFocHIavScu8zfHWxj4osW5zZHse6QPz+F/9KiKjR6Pwi19EfUWFlE6u/PKXkXvzTcicMRN5mZmSYrjnnnvw3X/8R4yYMB77b7oZ2WdOQvfb78CWP72HtIw0DL18FOpr6tr7p7Jk+iA9LV0Weo4Z/6esuKDm5uQIz8RD8MjfR32PCH/1dfXyPvskbVpb5ZggafF3yohyVnkxHVBf32C04QVRaeJMsLojqy5mZUXQ3ByVsd5y2F4gJSMdDfUNckyRxw/5Hf7wO5Q3/6ejQD6j450pfEqb9HR5j/0hb6TN98kff/+oTUTe1ZvW2Ia/899dP0G3OZp5XNUN+0ZRfp/vkWf+8D3ztjg1ID60+I72xaTFvpj4CbPYjObs+cy82U712nSKlAfNl+tc4N81F6o6pfaAfJi6aPZHc5zKA+nHosW2fEfHO4hWkF7zuW2nyDf1mrSUvosH8ybFIJunekA6qls2LRO4pmOt/THtlElL+Qq6GVLtFOcWfw+zeTYPido81R371kzTfqrNU7vCPqqemTeYmjzo3KWc2d5cD6jv7J8C6tS2hNFyrS32DYzaH9Ou8xl50Dlv66f2h7I3b3M07Youyjp3TayCrgemTtm0VA7mzarH5f/bqtK6aHXmbY6mXouDoEqkoBsVDv80i7NwApjvuNrpM7sdn5toShctPjPBGaqQZjsXIMQEIKky+tKSBZtliNt+SMv8nvJg88XndjtR6HSCFPdACiU190dRRtZxpxg4AZhzzy4oQMPf/R2OlZbi3fHjMXPSRORmRrD7rrvQ59pr0f266/DGyy9L9UFWBlx43kKU9R+AWY89hj3FRfjgzMkYcqQXMrMysbr5Pcw7Zy7baJP2AAAgAElEQVR69e6NtWvXyqI8YvhwcS54HPGiixZj27bteP/99zHn7LNlYf3jn/6I8887T4oEvbL0VamKOPnMyXjl1VcE5Lf4wsUSMdiydSvOnj1blIkh+UsuvliiEEuXLkW//v0wYfwEPPf887KgL7rgAqlwuGvXLsw+6yw0NNTjDw8+hEsvvQQFBYVYtuw1DBw4COPGjsXjTzyBjIx0nLfwPDlhsXfvHpw9+2zZ4T/62KNyCoIOCetAsCrimNFjpE1uTi7mzj0Xa9etkyOMrLhYUVGJZ555GosXL0ZWJEuqJ44ePRqjRo7EE08+IVGS2WfNFlkePnIY8+bNE/Diiy+9hIXz56O4uCSwkmJhUZGMcyw94NQJmoOx5rzqmalTSstu1xH9MeeuC70dj/6E0UpUr9VJi9feuPpj04plp2ybl6icbXsQxJdtP33tFOeFbQddttLHfibT5pnfc83doPXAXlt89KezaZngY11HdD1QZ81nvqkcTDmTd19aLnsQNq4++hOPndLxOeUwCL6hFOeW0PEw2fTCMAgMwTPP3q1HD7T+wz+gpk8fvH/mZEwaO1oWxN3/35dRNmM6Cr74JaxavhxvvfWmVEdklcKyAQMw8Q9/wMHSntg8bQZ67ytEdm421mdswswZM1FaWobV774roL7x48Zi1ap3xEGYP2+ehOA3bNiAKVOnSsSA1Q/PmTMHzLG/+eabguYfP24cVr75Znt5Zi7023dsl+OCdCqIVVi4YAGKCgvx5ttvi1PBhXjpa68JAPKcc87F9m3bJKw/RUotN+PRxx7DeectFADh22+9LccqR44cKdUbWXzgnDnnSOXF/fv3yXeIz3jmmWewcMF85OXlC28DBg6Q8sxc0AlynDVrJjZs3Cjph2lTp8opiBdffBHz5s0VB4Gln4mPoGPBMtWMSPC9995/X5wfVoxkemLpsmWYPWuWgDhdUYR4Ugy+8+10ey/Z+nO6yScZ/Um2jJNNLxl9TNE4OSVw2joIJ0oJwhwE9UDTecrg619H1pjR6Hb7HWiorERGdjaq//mf0ZyZie7f/jZympqwbPky/PCHP8R3vvMPGD5uHA7ecgtyJ09G7i23YtsjHyA9Iw1DLh4hRxO54B7cvwutzQ3oWdYX2bkF7eFVSaMwPdLYKKcD6ERI6JJh6owMWcw1pdTS2iLFhzRkpiFo0tA23M2wEqKEHbOypMJhU1Oz4A74w0iJpFzaUhT0ikmPz/lDWs0tzWhuapZCRrwW6qM26W0h57Y2zU1SyCjapkUqI2roTtpkZiAjPQMNjUxRpEvVR/aTP3yP/eF3NOTcHvLO4HdI++M3V7Lt6eog+OiGzzu6y7LzoyenqTt1uUqNxck1dj7j4fPOydUrNzftKQbfUJdPWMsVbvMNKYWF8jsSIg1KC9ipAhcPrtRKeIqhH4oyji+UJGFlLkjZ2eBlTRW9emHD9Ok4c9Qoqa744de+hrHFRcj9t3/HmpUr8M7b70g4/8LFiyWCMPmhh1DeqwxbZ52FXru7Cwbhw8hmnDVzNrrntqL+4DvIjzSgNr0P1u8BqqoqpQASIwgbN22Ui4642D79zDNyiRPTBSvfXCl/jh0zVtISDPPPnTtX7m/YsWO73J1AnlnoiKcjuONmpIEAw9GjRsnFS1x0mb7gaQRWXGRhI17W9NTTT2PB/AUCGmQ0oF/fvlIsiRdMUX6zZs6StASjAdOnTZMIwvPPPydRj6ysbPnO4MGDMHz4cLz80svijMyYPh0frP8A5eWHJRrAo5kvvfQS5s2dJw4BIwhMsQwdOhRLXlwixx2nTpmGdevWSSEmFmpiJIF8z559FoqLiuNOMfjMZzpd5jn4oDCgScuVVktmuDrZtGw5dHaKwddO2eHdoHZhoVvf9EsybR557eq0qo/Nc/EVJj/ftIBuDtTZdOmBDy1XKD9Ip1w6nGhaoLNp2XJ2pStcuthROxUTpEjB2sBCG6SoA2uCmYIAO7FAivwWaemuNRZIkf9m3kbnAin6AHa4G1YwkyzcASDFMFrkXYFvsUCKlB2/SdR/YVkZ0r77XXEQVgwfjjlTpyJSUIDVf/M3mNrSjO4/uhfLly7FW2++idWrV+PsOXPQo29fLHjhBewtLsaaceMxrLIvIlmZWFaxEhdesBjdMqtw9L3/Q1lRMyrShuODY8Nx4MBBOda3fft2vPvuasw9d67Ijpco8chj7z595OKlXmW8rGmm4Al4wuDqq64Wh2LDBl7WNE8M1o9/8pP2y5qYIhjQvz+mTZuGJ596SkL2pMcwPm905AJPuRx3WdOSJRgyZAimTpmChx95VICLF114oRylJH8LFy6Ugk68fOqqq66UuxfIDytLEh/BFAcdBGIdWHGSKRDiKJiyIabiqiuvEkARUxQTxo/H+PHj5Zgk6ybQSWHZap6kuHDRIjmFwTTLRYsXo0fPnhINsX86ClLkfDZBVr4gRXs+m+A58qiAKhukaBauMQGCHG91ZoNAihrtUT1w6bWCddWIu0BWLh7CaHGe+IAUTYCgOuwmAE0Bo6SlNkIXlSAebJCiy+a5gIXJAin62jyOSzJAism2eboeBNlPX5Ai+eJYmCDFWOBw1QMbIMjxswHDtN8uG853bZCi6pT2xwb5Ki0FFnKeuUCKuh6YIEWblsomDKQYRMu0LT6AR12ndD6zjy4wqPZHdEMQio5jiK5nrrBJos860k4nhxr0zqblCr7Y39S/hx1z1AnMSoqN3/42cseNQ8EXvoDa8nIw7dD0+OM49utfoYglgouK8drSpbj77rvxve99DyPHj8fuz30OedOmoeD2O7DpoTVg5cbhV45BbXUNqo/uR83Wp1Ca14CqtP4oGn2JFAliZUNBCGdmor62FukZ6XL9MiMF/CHSnpOVE5E4CIbxmbLgYsyUAQGIxCDw5IPZhnc2sMAR6xVwoplIZDkhkpkptFm4iD/EAjQ2EJHfhLy2NvyOItAJ3mS6gwWfamprpCgSlUBOW7S0SBSC32EbOR2Qloa62lopHc332E9pIyc06uTSKgI22VYRxORDT3WQBtso8NXlIPjWQfCZg75hx0Rp+bbrav3x5ctOVfi0O1ntVDL5ajPRH7tRNhF5+dKKx+aZ7yY6x33HujP58pGN650gnsL0LB5aYWOdqNzD5ukph0FwDcbJ9CwMgyCTJj0daTk5qPirv0LGyJHIv/12tFRXIy07Gw1Ll6L67rtReN99yC4sxBvLl+NH996Lb33rW4JBOHrnnYhMnICcm27Brsc3SIqh/6LBaG0GWpvqUfvGL5G/5w3U95+JyMzPIy09ItgEcwKZXnBM2dF3bDtqY7bn72YoOSgH7Zq0XMBZg0BxAGYIPshRtXkkXT36aB5BimceqAx0J+hqe7piEOKRU+rdlARSEvjkSiDlICR57H0cBC66dBAqv/Y1KZSUe9ttSOPuNysLjWvWoPKb30TRb3+L7NJSvLFs2ccchLSxY5D9+Zux7+mtSM9UB6FVyi5vXf0c9mx5C8jvjSnnXo+8/O4fKwLEK5uJ/OdpBO6i1ZP1FQV34KTByIGUVI7j5/9n7zrgqyqy9/f6S156QirBAKF3FVFRpLlWXAvY26rYy/53bahYVkGsKGJb1woWmqh06SAKFnqvAgnpPa+3/+/MffMy7+bevJsQhHW5uwi5uXPumTMzZ86d+eY7FEzQ1zyVp3dLmSKVQYJqYul5IleiP0QO1dw6kA6c0Imoo2nV5GSA0IxGPPnoSQuctMD/hAV0gUCA7TLIAShawIBkIS3nV7XI4jpEA73Iz6qSDnwfj7eYUn2U7lE5+Rl3NR4EOTcCyRNBilyWTm/AF7ojUrImfw6SjRYGiKuqrGx4PhQg1D/yCFxt28J0222w0WkCiwX+Q4dQc/vtbAUhpkMH/LR6dWSAcO+9cOblwXzrrahZWcz27XIuPAVBv7RKsPHnpdi5cSnLZXDOBbciJSM3Yn+dJkdKmkSTK7ET0hJ8cydoChCIDZKCA5pgm3ORzcjGhDsgpkdKp9zcKxgIsG0C0r1Hjx5hAiWtcsgGYpDTVIDAsznKz+fTu+TtLyYjI5tqASkq9Wd5H6TxQ3/kgMdo56WVxoaWsag2ruX14VszTZ3P1+oj1OwQzR8ojeuWytJiG61+qjVlncg+T+zzvK2VeGTkvB4tGT9ke7nfVQL+ap0P5LKU7EwrnWKmQ7W5Ul4fLbKaw6kg55uQ11ELAJr7g+b4qajZHEXjiAAkehkpxZ0Zd5bcmYlK0DNkWNHBKcniQYpISiG/x4/JcVl8uVlksWpKB1EvkcWO6tNcWfL6sEY0GCSiJCGbo2qA8PDDQH4+LKNHw0BHDo1GBKurUX3DDYh/9VXYTj0VP61a1WgFQd+zR2gFYb+wxSB9he/btAJHNs2Hz+NB3pmj0PnU4fB6nBFzp5bl9aYmW25feXAVbYLmCGE6QUG5E6hvybcYosngv+eD6+pRozBq1Kgw86LW8uI2Ce+7bDclyP7PLjGbIx+gfOKnunCnx/sNZxDkjpLszIFlfHDKy3FHIjpQvv3CxwE9Q/UVx6LIuMb7Lg/WeX2U+rN8LPL6iG2pdI+PdXGcKY1FJR3k97is5tZHyd8o2UZtXIvto1QfNVnycvxExPH2eUp6Kfnd1vB5SkGqFv/J+1u0+UBkARXnFrG/KcmS90Eqy0G+Tc0jPLgVJ16lMcUDBHEs0vjg9eF+hAcI/LmjlSX6A/mHLL2T9BJ9i9w2ol5y3yLvNyIYlPsp+pvV8ViAFJWctHw/WulnKhftTDX/2hWfOxFkcafRsMXgwuhgLpJ0pggmRWYbYYvB1LUr4u6+E3A4ENQbEHQ6UXXTTbD9859IHD4ca5Yvx1tvv4OxY59C5549UHn3PTD36YPYO+7AwW8lDEK7i/JYZkS6Du/8Cb7SX5AQZ4E/qTeyuwyBzyPRFocvHUvOKE2EzVvdl0SI5Zshg6iW9+zdi3vvfwB/u+VmdtyQI2a1Tuz8OcodsXHjJrw1+W289+676NqVuCAkSm9NFxlAqgqjQaBjnC5vEAY9YNBLv6QAgVY4xAGmJlveB5lZKK13CMOhSafQQy2VdaKODS310WqrlsrSUk6pzbSWU2rf/xWfJ9ZdazvK7XU0dm4tWf/t44f5syj+prl2PolBaI7n1vBsSzAIpVf9DVXldexEAvx+pD9xL+yXjoLrwsuxY+0qzJz6AW6971HkdOqG1Gf/Dk+XnqgZeQuCPxwA9Droz2oL+AISoNBdgSxTIdw+PcqCuTBakiSQItOd/kuURNLkxQGIvFpS0CB8QvMZtIkyUlmpDDtmJsU/IVKjIPxEWBSKRkwWC37+YRk+/88kvPbBdBhNUj4NSsVMuRWkByV5lJaZJnzpa9rATmPQiQleE/rZ5bTjiQduxWVX34xhF1/BTjSIV7g+oVor2YDuWYx6dMowY0+JBylxRuQkESFT8E9LlKShG5985KQFTlrgpAWOzQqClihF61d/tChc7UtNqw7yqEtLuaa+NJq7gqDv0gWBm++AvaqGzaxGSo71zwfgO+NsmG69HeuWfo//vP82/vn4WHTt2w/+v98H9OqF4I23oer7fYAeSBl6Cn0Cs+5sMBhRW1WG6upaZOW2Y8mPwktUOj1jL6SLsScGAqD9fDrCSKWJC0C+p0i/oGOJTDeDkZVn++FUhvbZ2b+NbG4nJkXKr0CTOhEm0Rd4VlY2Y26UzhebsHL5Erw3+Q188MkX7KhjUVERo2PesX07+4onmbT03KN7dwwceA46dOyAkuISVFZWMIpmIk8KBqX9+PKyMjxwz+0Yec31uO6Gm1mGR1oOoDqwJVF/gLEs0sW2wvQGFlARE6O41E8LBkmxBhTV+BBn0SM5ltgXpQDhWK8gHG1/E32YFllavpJ4/442NpojqyXHtLTUp6mx2Fzb/NGylOz3R+gQrV21+tSWto/SvKtVlrys1nJaVja0yFJrMyW9Wmrn411Hsf3DGAQOQGpq31MrBkEuiyYo7vj5y0XiErrX1J6guA/FSVBEDEKYOjeUdEmrLDkBBekoEpdwveQ4CKW9MJ7pUgmDUF1djUriOeBJoYQtBiPbYrgLP69YAa/fh4FDh8L75FPYVlOLDuNfwJR//weT33kbYx5/HKMfuB+7R45CyjkDkXDnXdg7axu8Pg+6XNkdYPN+kHEPlJWXY+eu3ejWtQtLtTxt+jR07tyFJUlaunQpYm2xjDCJmAXpDyU5ojJr1/7EkifRxEhbFjq9jlEoL168hKVFPnfQudi0aRN27NiBCy+4EEeOFOGXX3/BiBGXMqDgnDlz0bVrF5SXlWPs00+zCfm0009FXl4eLrn4EsZsOPubb/Da6xPx9cyZSEiIx5NPPcXYGinvwsqVq5CQGI8brrseH370Ebp164pHHnkEn376GWOTfPvtyYy0iQCGJrMJc+bMwZgnnkKf3r0wZcpn2LhhI8oryhlzJAUoP61bC8IouFxuloSqX99+yM3NxfQZM9C5c2f069uXtTcFR9T28sMUIgaBUkZLFg4Bc2VJvogTgu3thZb4qM/QcU7Ke8Evtu9J2AUuKxRgUZkI3AAxMNL+X0gWBWEMgxCisSZ5JFupHMkWZZFejPAkpASVozqYKKMovycD6/LATy6/kSyizWaBoyRLyTZsTIUCz7BtQgBOsT4km/Rurm0okCO7RpNFOog25XWk9zVlZ9augk3VcFd/Jp/XFG5A/IDgPk+OxYmGG1DCpLUWBoHaVet8QH1Wvj9PfUGcWzi5UTQ8EMlSwqSJttEiSwkboTTvkt/iJF/MH4Qo7EXdRaAk119NlhwrxeujClJUAvopgSU4AIkjqrUCBOWylMqp6aAE9BI7blOyxEZUA3rJZVGnE8EsHCAnB7gwx8yzObJTDNlINlrVMQj//CeM3bvDdvfd2L1lC2vkbv36IfDqq9i7ezdyXn4Ji+fNx4L58zFy1ChcetVVOHzjjbANOANxd96F37/ZBZ/Piw4jOrJTDLzDE/nPocOHkZ2VxVgCV61cyRgT2+flYdPmzbCYzQz9X3jkCPbt24sz+p/BTjVQVkWaNPmxQd6mxORIGRF79OyBQ4cO4/fff2dsiNV1ddixaxfOOO1UxFisjOK4bU4OO7Xx0ccfM3169+6NtWvXIj09HU+MGcOonF965RXMmDaNdfA7Ro/GFZdfjvz8fDz44IM4d9AgPP+vf2Hc+PFsoF9/3XX4+ONPsHjJYnz66afo06sXo2Omdvxp7Vp89tlnaNeuHR5/7DEcLCxEVVUl+vTsidLyCmzbuRODzjqLATY3bdnM6p+VkYUVq1Yht20OC1z4gBSj9hBzGOITEtgxSgbgEx5gVNl0ikHY76NJnPWH0HNssqTVFSFTKCtHwYAgy084hSiyaFWKVnr45MkCV5kstgJE/VTYh+Q6sEkw9E62SkOOUdSdylHQKujOZMnuyetDurM+1wJZLOgWs6iG8Bpy20TTS8k2pCdxjXBZYdtEqaOaLN6uDEQsZOWjurNtNYVMfUqT4NH4PHECUnpfa/vP5vg8MSDloHURICiXpWUSVKsj3ZefmmFjUQj05CBfNdvIZSnNB2ofjOI8wusTDVgol6XUR/ikLp5QUpp3lWTJAx65LDWbKi0OcFknMQjizNAK/9aEQSDHYrMxvgNdfDzinngCKCqSQG3t2sH59tvw7dyJuHHj4CGGQoeDndW3JCfD+dhjCCQkwPqPf6B45m8UAiPr8t4I+unN0sVRqny1hciEOMUuRYrUITgKlgYW8RIw+k2jAW6XO8IK1FEVy3g80NXVIVhTA2RlsdMb9Bx1XJJdb7ezr7qkpCSWJ+G999/HuBdeYJkeX3zxRUyfNo099/Ajj2DUyJEYMGAAbrnlFtx555248sorGd0zDWw6ivnlV19h9uzZ+HrWrDCTI+lF9SA+BaofO6pYUYGg3w9dejpgt8O/dSvcW7dCR9S7JhMCNEHQBE1f5DTpChOUUtOTXGJv5NiKZncPBZxHs2XwAlpkaXmG5Gl5TsszWmW1uNLHuSDZwOdDwO1mNjPn5iLp4othatPmOCt28vUnLfDHWOBkgNDKdtYaIIBoh5cvh33iRBh79oT/wAEgOZllcXS+8AJcGzYg+fXXUdu5E9b//DNO7dsP6aecgu8fewx5K1Yg/eyz4dy6C7r0DCS/Mg66uLjw/ntxSQk2bNjATgnQlzvt8dPXspRY6QfGXzDgjAEsSdKOHdsxfNhwVFRWsDKUfpkmW74fR3+v/mE1UpJTcMYZZ7BcC3v378e5/fsjOGUKnN9/D9sTT8By3nn4/rvv0Ck/n20lUGrmzMwMtqxPCZdef/11PP3002w7YcKElzBzxgyGfbj77rtx9dWj2JbHDTfeiDtG34Hrr70O69evR0lpCc4bdB5mzJyJadOmsQCBlum4bjRxL/p+Edq374AumZmoHjsWQaORMVO6pk2Da+FCmPr3h46olletYkyVtMIDj4cFVkRMFe2KhgqOVv7k7/9LLUDBOmVVHTQI8QMHwl9Tg9qVKxF31lnIfPBBGGi8nbxOWuBPboFjcsxRK9gjGnBJ+kCJPCrW2sAoekdTRybV2l9JL5ITLReDKE8XGwvPjz/BM38evGvWAJmZSHz5ZThffBGun39GyptvorpbNyxduBDnnjMQ7U7Jw2dTp6K7w4FOhYVwLFkCXXYOEt6eDH1iIgE5YDKa2Fc6ZUscPmwYcnLa4rMpn7EMiqf27YsFCxchNjYG55//F2zavAkb1q/HFVdcgbKyclZmxKWXIj4uji1Xc7tQMibCIAwbOpQdLdyweRMuHjIEurffhn32bMRPmoS4Cy7A9KlTWYDQq2cvfP31LJaY6ayzzsK6devwxsSJePqZZ7Bv3z688srLmDlzFtvKuP322zFy5EgMGTqUbSeMHj0aN954E9b8+CMOHNjPEkBRwqUvv/gCX8+ejQB90YWWv2npmPAEnTp3wekdO6DqzjvhN+gR/8STcH34IZwrViBxyhRgz17Uv/QSjP1Phz4+Ae7vF0HfqRMLHshm7Iua/tBeOv0dwgrQigjpyJfem+0LtH6FN1vwyQLHzAK8zfR6+Cor4di4EadMnozYbt1Q9+OPKHn/feSMGYPY3r2PmQonBTfPAmq+WJSiFaQYbT5oTZBic2RFmyu11E9pPlWbY/n7GJMiA1SFMiny/ST6me6L4IXwUnQIlKRUjt8TARRidijeaDx7l0g2IteBlpAZAIlAVqF9TjVZPOEPyVcqp0SCogRSpHs8SxaXxVD7RmMDmEmBuCaczdFoxBe6IhQGnBjtyUKKNbYxkyIJJkT9wb3QJadAl5CEwN49bILSZ2QC1dXwlxRD3zEflB3SZDCybQC6LFYL/EYjvF4fimf9BhhNyLy4K1ta5xedFiB9KWER7SxbrRYQ2Irsa7FY2akEaYvBwk4dsORFBgM7ZcASIwUbtiv0Oj0sFmlbgvb+We4DnR504NCzfAVc8xcg/oV/sS0Gq9kCj9fD+o3FbGEnHujEwKat2zDxnXcx9tFHWDbFF1+fiOmffMTq8PBTY3HVZSNwNm0x3H0P7rvzDlz8l/PZiQhmJp0O02Z/g+/mz8eMTz9FTW1NuJ7Ud2gCp7pQ/dyffAp/fT1s994L1NXCX14BQ5fOQL0dgeJi6Nvlsq2G6tF3IfaO22E+fziCLpe0qmCNBQoPArY4oE0ms2eCzYaEuDi2ly3ujftCBzIbYH4AMTAQHDG810/AIcrAJ3gp+lmUxTACGmXRcw1wR0m2kiy5rl5ZOZJDrdsaskgHuuiAKr/U9CJbiRgHek7UgfQk3UWbapFFdZHbhmSRHBGDQM8o6SAerlWS9ftDD8FXVob8L76A+9AhFDz9NPQpKUgZMYKtQFGdOCCVASVDOAfqjxRsku/iVCN0TJfn/mDA2BCQNZzBVgWsTRlOyf+RfFGW6BdFYDbXgfs8SmbGbS/6PI61CbMFhnRnoFieqjx0j4FbyQ+GZFFZqg9tZ9IfDvT1EfNgaGWO5V2hk1JKskLEeZyPxUPbnJTNUa+XZFFmXZ8vPP/wHC70IRTXsSNLbEeXHABP93jSOD638PlATizEgL8CiFgJAK+WGVIN1MfHgdLcwhPG8blMSXc14iduZz6hkyyWsC50aZUln3f5drOaLLaCICG4I6mDle6RQUXwBOkmv6dWjjl7EbAlk8XLifKbI0uU3RxZSvVRkiW/R/URozpuh6BOx5gUi+DC6EBbJOnNLECgUwwRhDs6PbBiHpCcBqRlAI56iUCAeAPI0VAQRkvhDAjGmYkI5CY52kBQh4KNdFwPaNdPOpYXvtg/I8uw34n3Od9BBH0glQm9L8SZEPZIzMPQl7Ykl5ZfPb9ugPuHNYi/7y5QvRvez3UOwqg3YOOu3Zg49SuMvfM2FJWX46WPPsOMV1+EmwKE197AyPOH4ezevXDLU8/i3mtH4dJB58DudLH3WExmTFu0GN+tWImZr72EWnu9rJ6hmUenh+ObOYDTidiRV4CyZQbJxh43ZccCiGfBH0DQ40HtCxMQO/JKmE/tjSBhLixWID0bul9/QJDaos8ZCPp9Eg9CcrIE1hPqpxT5c6IsrpzamJL3m9aUpTY+m9ufuYOOGIshpx0xhkMrL/J71BO4vfjEwWSFjMPlN5IlA2uyVSxRlpKfUtJLq5+SvU+pzY68/DLqf/4ZnWfOZKtN9o0bUfrBB/AcOiQFlkKdxJUmPvlG9BshSBL7SaOvQ9lziqumJ4isaLoLsWPEP7mXaZYdfD74a2uRes01SB89GnqBJl7JF4f7oMr8puTD5fOUCMLnk7PSXBlNFpXhp+F4neln+fvU/EFL5sXW8C0nFAZByzKJlmd4Q0bbP9YqS62Ti/fDe/YACxAOw4W7kItkSEyKlItBRG2zSctplwIBIgxqTsIiHUXYQRQsOhimWkboFIMWXVvlGZMJ7uXL4Z43Dwnjx0krIh64tyMAACAASURBVAp1IOAjnYJ4/Y03MfbJJ1FcXIwJL7+MmdOmwe1x45+PPIqRV12Fs886C7fceivuu/deXHrJJSyZEl1miwXTpk9nOIqZ06ehvk4IEISKUNzi+M+HCNrtsN17j4QvCHFDhB/T6xD0+lB9++0Mp2C94AK2gsCcFTl71h5Gein76omLjWUgS3EiaxXbtUCIlr6q5ZnWHhta39mCKp8QRY5MmAD7+vXoNH16WB+apPx1dc0bsydEbf6LlaDTIgRKXrYMlbNmocP778OUnd2qFdLal7U8p+UZrWOxVSvZTGEnVICgRXethtci61g9swQVmIEiXIx0DEQSEjwSP3ijvWyalKTPqUashtF0IxKg3bO3Q2/QI/+yruzvP/TS61G3cCFqv/kGWRMnQk8AQIWLgjQCHI4bN46BFEtKSvDCCy/g+++/Z0mjHnroIZZLYfDgwbj66qsZ7wHxMohHoaZOnYpZs2bh22+/DVMzy4M/QppXvv8+AvX1SPvHP6AXlt8i1AoGUfR//wev04nkv/2NbY2EAxtaJZA+/WDKzIStfXsWoEQLNP9Qu59gL/tvGI9HYzKlAOFo5LWk7J/dxs2xiXv/fhx6/HG0e/llWPLymlP05LMtsEAjHgSSwcB2IXIWkRNAPI/Jly+UeBDEJRiSpXTuVU0WX4bnOnBZ3EmrnTlV4y4Q60Oy5GdVSa5IZsHP8crL8a9IJb1ILrcDPVcBD74JluCnYDUCeuAh5KEP4plN6ZJvtSjpJdZHaXnK5/Vh67SNoJwE3S7vCYPFqCifE1KJy21KS11yHUSSDd6v5LKq581D5ddfI2/yZLbcR5dSHX/55Rc8++yz7A8dX3zuuefY0UdaWbn//vtZYDBs2DAGlnzyySdZgCDKmjJlCqZPn4558+YxO1Nd5Gev9W43St57j33ZZT76KAsQRDuL5ZzbtqHo9dfhPnKEBQiibShYYLwEsbFIu/lmJFx4IXuGZPE+Ly7lU1ne/mpcHLwviTocL1ni2Ws+8ajZVD4WORaH9wdxLDZVH3H7Rc23aJEl+qTW8FPiOFDTq/DFF+HYsCG8gsDHopo/ENua/q12Nl60V1O+hWQcrc+T87UcC5/HwmoFjgiRM0ZuG66X3H+qygoGQQFCwZNPIvfFF2Ft377R3KJ1LHK9GH4iBMhuahxwH8H7IOFGeDkln6fGGaQ0TynpIG4pNCVLqb/J68NlabWN2N9YgMBBHGGwTIiel+6LYAzOdsUrRC8UGRF5MMCBhVx5An/Qs3JASBiwE9ojEskf5LJ4A4kgRT7IePYuOSiFv09NFgE2qC68sUlfznYlGl5eHw4I4fYiPTirGJflCQZR7XPhI3MRfocTk9AdRr+0D8VJNkgvXh9RFi2902kE7lyoDOUmMIdyF1A5KUDYwJ7pdmVvGC0EXCR4lsToxScuNZCNaBuxPmKbkQyRmUsuq2rOHFTREcpJk8IBAgfZ8IFAtqFTDP/6179YYMADhMWLF6O+vj4cIAwZMoTxHzz11FPhAIETl9AKAg8Q5OxtZBvWZn4/St55BwGXC+mPPMJwHAzUFdr2EElQKACgQMJVX8/AmSJQlmxoMRpR/f33qF2yBBmPPw5rly5hammyT4SsUIDAxobJFMYrMPAPgUI5YCvU1tyminoJsjgAjbU17b0SYDgEqOL9hvTmY5H0Eln/ePvL2dtE8DF3JEpZ+UTGNT55cu4MPhYZeI7AhgTEE+zMiKVCxDWEIyDgmuhbyDakh+hbOEBMlCXXgWxAoNcIP0VAZgVZ9H4+FsN+ymiMaB/Sg4Pu1OxcMH48nBs3hgMEEZjNHa8Iio7webRFJthGZPgjnZheAsMjtzPZRgQgstVHAinKZInPhAGJIbZN7vPkAGsCGtNWZ1SfJzB3ctuQvnKfx/hTQpMs/Z73EW4Hqh8DAwp6cQCn3E9RfSJkUbsKfZ6IuZz79qHoqafCAUI0n8cDuqZ8uNznib6rKZAiHz9qwEI+Pnm78rEoHgTg86JclhhIcJ8XHlMhn8fB9OI8Ih+LPBgU/QGfd3kfYT4vtAIsl3XCH3OUr4pwR8SdlPz3/GducLXf8yiVd47mlONlRR3k7yOMQMAXwO6gG49gFz5BTyS1/MBco2q4a13Y8uV6pHRsg/y/dIbeFKK7VTgWKreVFttoqSOdCy987jmc8tZbsHboIKG6BQpfrvRvv/2GZ555hv3hAcKqVatQUVERDhCGDx+Oyy+/PGIFgZcnBkUeIKjpReDD8s8+Y4AyOoZGWwRHczl37mQBR+qoUYg/99yjEXWy7H+xBYomTYJzwwZ0CDGD/hdX5U+huufIEXaSJHf8eJiIEO1EvgiYS6c+BIp0Ud2jmcsazTcaM8cq+f6mZP3XYRBO5P7AdfO5fCjaUIDi9YUoszuwW2dnWwzmiMNyR1GTIOB1eGCOt6Dn1X2RkEsZG//4i8BahPKuW7UK1s6dkTh0KJIuu6wRiYxSgEC5FcrLy1sUIKjV1LlrF4peegne0lIYEhIiUObNtU6AVhj27WPsecbU1OYWP/n8n8ACtDri3LuXkSTFnXZaizKj/wnMcMJUga38ORxw7dgBa7dubBvwhL1oO9tmQ/zgwUi++GIYko6Pjz5a+zQZILQ0SlFSSossLV+2SlGXlqhITSe639RKgFYDizoUbzqCnd9sQVqnNqhMN+O7YDH+hraIaaUAgS1LxZqR2rkNbG3iGg6YK1ZS6TyUwj0tFZWfTSLMgcOB2lWr4Ni8GbXLlyPjnnuQPGJEBOiyOSsIY8eOxYUXXhihDeVboBWEuXPnNq0lbfUUFqJ+3Trm1OXprLVUkT1D2wFFRahbtgy2AQNgyc8/iVjXbLw/0YN6PWq//x7eQ4eQevvtUsWac9roT2SKE6IqhGerqkL17NlIuvJKadI9UduDfMiRI6j76Sek33UXki66iH2wtGQ1t6Xzm5Z5WOrSkWSEYjlGlEQPcHAer4AIxuAFlABv8nJ8z0cE54iAkKOVpQbYEZNnKOmupgPfoxH1ksuiOkWrj7hfunfhTlQfrETPa/qiNMmAe3TbMR6d0CUQE+ab4HamfVWeoljUge/jSg0YgN/fgF2geyL4RzodoQuncpaOU0oUJERGREBGfgo9DPQyGkIbHhIglVL4NBzDlIClBOrX0/FFyTOGZFE56cQEkxWklMpGmO1OFI8bD3+MFVmPPQYD7b2HOt7PP//M8AciSJGySlIeBQ5SvOSSSxijIm013HfffWwPmwM/v/zyS3aKgfIx8L1qOUhR3makH1E587wDRPzCEiVRpdhphVCWQRq0PLsi7XGHiLmc27ejdPJkJF13HeLOOUcqF3JGLBmQkiwR8EiyQmmxeaDCbCrqFUroFOZZEPUSZLH2oeRGVB+e4VEEawp6MVn8fL6wx83LkR1Yf+bLnkJGSbEcs70MwMn27GU6kJ3DY0MA67L+HapPOJFVSHeqSyPbhFJwszYLTcS8/bks7ltE0F14rIt6kSxZVksGlOR8FoT1CIGwxTrK7UzvLXr1VYZBaD91Kmt/pgPZhjt7QZbYPszOCiBFljhLyObJZJGdQ4Ep04vah54R2lrJzuL7Iso1JUtmZ+77eUZOeqeSrLD/FPRi84GsPuE+oqRD6F7YNqIsr1dKNS+zTbhvkV4A3AcPoviZZ5AzbhzMOTkMw8HGlFyWQGzH21qUFTEfhNgzGwGzhey+4fHDxyKNn1A5qg/1FSIbCuMLqP3tdhSPHw9jRgYLEojgTsThKc1JaoBHEZNAZgyTW4W8s9K8qEUWw8GEMC98/hHtECZK0hogRE5cjQMLpWBDRE6rTYIiQlkepMhPUpAMeVpLNQS5KEs+0SuBs5TsQOXkTklJFtdhz/wdsJfVofuVfaBLMONlHMBeOJAdlCbNyFMM7JyjAuKegF7S1K8UdNE9wjlIA0OyqrxDsCx2ojNjJyqD0qQuYAWUOhIdoyS54YlYQVYgQA4zwHAH6U4zBrz5Mdo5dch8YgwMwrFHpVMMy5YtY8cceYBwzTXX4IsvvsAbb7yBDh06hBNE0fsPHDiAgwcPspMOHLDFAWJif5P8jxTwsABBSNFMTkK8R/+OmIA4CjsEIqUVCOeOHTC1b8/2OkVWPq2yRJS8avtQsCHTVd5mLAMjDxC4Q5CXCxGxsImRT8She+EJSAgsxfZnE7hABqU0EYfv8cksFNyIwS3rb0qyeGbIJvRqhCDXKEvRNuSw5XZQ00H4qmskS6+HY+tW+CsrWU4GFiDwwEIop2QbKehGQ/pqpbHI20cui/sb0fmLacKVxmJItwg/FQpoIrJmKpwCYm0mswML7uVZQHngIuglllML4Ni4FGXJbEO/ZynBlWwq6sXBxZs2IbZvXxjj4yNOMTBfGRrXUWWF/IGol+IphlDWUfk8Io4pPmf06tULt912G8t/wyZstxvFr77KtkLS77kHAbO5ESMvn0c4iJDagn18CCRcSqcYlCZ1MYjkbRFNFr1PBHByv8hl/WEYhGjbB0pbBzyYEP/W8pyWZ/jEyycVpXdpfYY/xxtZChDq0f2q3rDEW1EJLzagFkfglpjh1F4Wvq+wls+ZDaOWlT9w7GXRwcDtTjuS3piEm73pyBjzOAPn8EsLBuG6665jFKlEqkQpoVkAFFqBoABjy5YtLG8Dn/ybBIiGvqjlz8jbuqmlO09REds6iTv9dFg6doxoM6X+pWUZUK1cc/TiNpXL4j9Hk6VFh2MhK9rSqpr9xPqojWt52VaTFQyiZtkyeAsL2ZHXaLZvbh2V7KylfUR/I9cpmr209N2W6tCUXkczFsN1pECiogI18+cj6ZJLYExJCZ+eibZNrNRHlMZKS8YPC3B8PixatIilt584cSJTmbZfi155hdFC09Yrp4dW60dNzUGtAcpv9tRBcxXbXzh5tZoFyJwUIDhK69FtpBQg/C9cTqcdS954AX29VrQd80SLAgQ1O3311Vd47733QKsO0QZKa9k6sGMHvO+9B+PVV8MwcGBriT0p5wS0QFN9qva11+DesAFtaIvh5HX8LXDkCEoffxypr7wCQ0bG8ddH0ID8E33E0AdNWlpa1ADhhFJeRRnVY45aIk2liLE5UWS0qFJJFl+CifYFSfqLyzStGRU3VUf6XXgF4cresCQ0BAitqcOJIEvUwe20Y80bLyLfY0LumDERqZR//fVXhj9o6pgjrSCoRfm7d+9m+ARiW6TskPIvL6UYl6/miF8EWp7jz3gKClCzYAHizzkHMd27N/pSaY4scewdrV5qsk4EZyPWTa4nHzO8PVpqP3n5pt4p9k+17yAqn5WVhT59+iAlJUXaIhGWdwsnTIBDRrV8NKtFfzafp2XVRByD8n7A+4kWm9Kzrv37cfiJJ9DuxRdhad/+uKwgqM0tGzZsYKRvK1euRE5OTkSAQFsMtNUQrf1bOu8eq/kgzKTIwCUqJBu8EeVEH3RfBC7y/V+5LDkRD5VTIg2Rl+P7I2ImRZGUghuFAzbEfSK1+qhl75LL4p1a1IHfE0lJuIMK4xn0BuxZsAP20jp0vbIXrAkSwyA9p0RmokS6xAGPckIqOfET6Sa2mRJJkUgiRXWU7zlxveh3InMer4/IdqYki+SRXi6nHT+8OR75TgNbQTCGqI5JLoEUiShJDaRI+AOiW6ZnRQIXDryhe0Ss9MEHH7BtCI4/4M5GvtevNFiUAkv5PW4fsgMRKbn37YOJjjmmpCgm5hIHe1Oy+PjRogM9qyRL7pSaI0seKB8rWSSXO/potokWwCvJaupeJK4nMqlcNFmVlZUYNGgQ6AQNJ07jY7Zw/HiW8pnnYiC7ywndlHyEmp+Sk8Np8XlilsGW+DzRfzYlqyk/pebzyF4RZF2UzVEkNwoRJcn9FB/r3H+qkfBFyAoG2dHjIwJRklafJ/eVHBfXHJ9H9uF24IREpD8nTiNK+euvv54FCBR00pHMEsIg2GwMg+AjMDdxxQjgU+4/+biR14fPlRHkY0Scx7LxSrliuQ4kQyRKEoGL4jwlEo3R+5VkkVz2HM/m2AioQkASGThPCcQhRtxcCbksrqgIaFECiMnLiQ6bO1kltKZcFgMIaQAWiox44mSjBEiMdo8DScgGbAWhtA7dQhgEMXBR00uUrwRKUWsfJbChOIHKT55otU0jRK8sGOQTGQ8sWIDwxnh0cpvQdkx0kCJRLRNIkU4sEMXyjTfeKKHrmwBP0qkHChA0A6NCwDs+QZDO4ukHtf5Gz7h37kQZnWK4+mrYBg1qCBBCkyAbmCyXhrRDp2VS1xrly79itZZTC4y0rKQpfQnKv/y06qXlqzJagMDHo1yWXAdu+6YCBKVnRPm0wvXggw+yUzLdunWLCEC1UC1zPyX3b/SOCDCoHDCsBlKUA1JDqdybktXUuJb7FrIpl6Wke3NkRQOtN0eWCDRX1IsChP37Ufjkk+EVBJLP+ynvK1p9nugP+ORPMuQAQTkAXs1PEdZKDBAIg8BAiqEAIWixhD/o5P5T/IiQ10cRPEmgTvlJJ5n/5OX4fKBkU7qnBMzntjmJQeAt00p/k8EZBqGsPhwgtJLoE1oMDxC6eM2aMQhOp5MdfywqKsJNN92E2ONEfMK/Zuj0RNu2bZmdPYcPo+j55wHK6DhiRKNkVCziNxhg7dgRphNsL/SE7ignoHJE2EUrCJMnT8bQoUMjNDwRkjWdgCY7bipRLgbaYsidMOGES9ZE2AMeIGRnZ/+5MAjHrcWb+WK+FNPMYqqPHwt5/ysBgmi75gYIRLVMS2Rbt27F22+/jX379rVWk7ZIDi2zUST97rvvgo4rBX0+2H/9FWWffcYIT4jkRH4F3W6WrrvdSy8hplu3Fr33jy50LPq7/Cv/j67T0b6vrKwMlAtk0qRJJ2SAcLLNGlr4WAYIWuzc1DMtCRC0vPNo+/fRlA+vICgtH8qXAbUs75Ey8krzJV75MmC0vVElWXxJ6Y+UxZd8REPL68iXmOkZtQBB61LxsV6u1rq8K693U32EBwidPbSCMAb60P4YyVACKa5YsYKtGJAuPIHQ0XTkoy1LCYX++fDD2LNnD5YsWSJtKdB2gs9H+weK4ulM/CFKHV1Rgfxp0xoIikJPK9mrJUv5dLqb+CvCREYq7GeMk4IOZIb2OEmNxjoQMVdoeySkp5KTorrpGA9Hw6HcRrLILux1DcGToizSS3hGUS+F9ynLasz6JtdLyU81JashQHgTQ4cOi7qCoEX+8fJ54vbi0fjP5vg8Od5Ey5aWkm+RY4vkforKhEGKoRUErdtqWnye3O8qjx8JZ6NUR/Jz4goCYRCKhWOOiIlpVK419ZLbVM020ewslmNMimQYDrzhFRezvvERQ5mtePYubjx5OS5LzDTGgXgiQJBk0c/8fUrllO6J2RxFveTgD07+oAQI4eUIGEPvF0mX6B7PbEXPycE5dE+tPsw2IZBifUktul7VCzEJDXzhSrLU6qNkZzH7nVa9aM+eynE7UznSP1odRTATtxfJonKiTUkeyXe7HAyD0MGpZ1sMphBIkcoqZXOkM8PJyckRqVapvcU+IseIODwBeHxemt0ITdDgyAMeQC8BdqRLmgSl5/gsSJM8zYycGZJ+JFlGNgnS/5YsnIsXnn8Wy39YC53OIHHvB3ySnAhZfkmozgDHt1+j5K230H7OXCDGFqmD3wcYBL38XmklIqxDEAj6gSAxUgl6+T2AgXgk+OTsl4IUfQO3BBRl+SS7iHVsJIsCnqCCLGJpDNmLcBVBqrdwj6xB7xTrw2xDNuV60TM+qS5yWax+At1UI1nUFhRtUHvQpSSL2tUP6KU2ky4/DdLGdjbQuxpYQKV2FPUKsLbVGUyoqarEJRddiAkTJuDcIcNgNelhZkV14Nkc86dPl3pWaPxwsCG7F/Kf0XweB+Idb59H45ePM5oMjtrnhXBDZAcxMyBrHQGkKGIE6L3iWCffwrM5ijYVfR6NYMfevSgeOzaczZF0p0suS+7zuJ/iA5SDFEUGVqX5gOYpNZ/HZYkgxRtuuAH08ZOVnQ2fw4HSV19lORkIpOjR6yNkKc2xapkhORiU24Z0JeZGUQfRpvzDi2wu1lE+75IdqM3kskhuBEhRKZJRWkGQR6gt/drVsmLB3ISMJ7qlUd7RyGKuQvgqayoyo2dbewWBd4rWiMyPVpbaqk/DCgKBFJ/QvILAO7jSF5do58JqL2b+VoValw8mgT1SatfIL1StKzVS35ImAoPJis0rv8GKaW/intfnwmCkFMYS2FW1/fUGuPfvg2vnLiT85XxZJkuO6I/8utbSl0S9pLmSiLCV+qCuYbGA5vQQmZbQVRvzrKvIklYeQq0RkhVxT2VlkFMEi+0YXRbZRiEHimScsNNjdlDSS6wg1VpJVqhdI/US5PM66nQgp0kBa//+/ZGVnYMeWWYM6ZKAOIseShgEpdUILQDOP6vPOxYrCEp+iu5pXUGItpKi5etazVcejxWEaKvtWn2elj4YsYJwIhElKQ28sLfgvuso0lq2VJa8nNLPXHf6+38FgyAGXc3FIKxZsyYi6lcK4MLRcQCYsLAYTk8Qw7rFwayXeNnDl5R2ovmXUE5vNGH1wtmY8t6reHfGMujoizcah5heB+fKlaiZNw+Z48dHrgJIccdR69WsOiq9T35PCAKaNFhrylJ6kZJeLWlDJTs3x+46wFFXhzFjxuDee+5Ccrvu+GFPPa7sl4hzO8Wh6MUJsK9fj/wZ0gpCa19/Bp/X2jZpSp5n/wEcHjMGuS+9BHPeKa36ai1t0ZSf+lNjEFrV0sdQ2NE24rEMEnjn+V8KELg9tQYItKR1xx13gBIwde3aNbwyoxQBS7KDqHIE8H8zjuDvw9qgX1sLWyGP2MsPJU0Jt63854ZfwGAwqrIxzv5mFia89DJW/7BaOgbGvjIbU2PzeYx0qPnic5S88zY6LV8hsUcKkxx90fMkWVJNlGm25ffl5aSy0WWFVxCETt64XGhFRMAWKNdR6Tm5DlplKdmwsSzRVmr2UtM1mp1VCcd1QFV5Oc477zx2iuG0swbjozXlSIsz4tozUlD88sssQOg47atQwNjSKOYYOsX/GdE6eA4cQMGTT6Hti+NhPoUChD++Pci9GHWGRn6kJQHCid50YaIkWnoQSSPoZ36P8xtwvgFa7uAOXeQgoOfEciy4DxEE0fPypEv8DC1fXo6mA8lT2qNROveqJkvcj1FK1sQxFVx3pfoo2SbMXaDTNxAlXdUL1vhIoiRuBzXb8L0jspV4Zl+ulxLRh3iPt5lI6kLvVGsf+h0nPOFtxu/xwEcuS9zH4wFCvtsoESUJyZrEbI50zpwIaWgFoX379k0GCHyp3W9KRHW325C4fwZM9QXaAgTJwELMIDkSm82GW2+9lR1rY1gSPbCmbh2W1KzAroO7sWPHDpYUirJY8j6uNojpmKP7wH649uxFwpAh7ERD1FWHE90j/I/pR33d7XYxGu9+p56KzIws7C11wqDXoX2bGDi2b4O/soJl9GQd7+R1/CxAc4m9Hs7NmxDbuzf0tvjjMt4o6A4igMGJA3F5yiUM8kTxtpwHQU6UpJasiZPDiX43Gi+O0nyg5sO5LKW5heYDOVmXiP1SZVLkAAo586DInMVfKGdmUnohPSufnOWsYvROkTlLVJ5/MYqgPu7A5UyKIjBGnIjlIDgRlCKXJS+nxjLJJ+JwumchQOhyJYEUGwIEDm5sDVYxJVncNrw9qE5amBRF9i5ebzmjV1OyCBCklUmR9nmJ/2D16tWg8+d8RYjahi756RQaeY6gBfMru2Bw0n60Mdaz53h/oPJiMMiDILksHoTSXjO9m9JN5+XlYV39b3jpyCScGd8frm31+G7Od4wS2sBAbhRQSZNCOLNmKCMmy3QJHep+/BE1S5cgi8ihhARV9JUh6dWAQSBZ0t6o5GNZHk+2HIJwBka6T9kVxQx8DDPIkNPiiQKZrNAzonwlWfL68DpG6HWcZEkZoqPVUcKbhG1I7S/PMtgoo2QDTqWhXMO9uro6jBs3jnFx5HfphjV77bCYdDi7Qxyq534Hz++/I/PBB6U2U7CNUvtI/a2h3zTVrkq2l7e12Ad5H4/cl27Aa0XWsXG/0SxL37Auo6UPKusVwogIsqi9qPOLdaR09tJEFhobCuOHxou3pBSV06cj7dprYGzThrW9kixx3Km1j+hHGsZBZB8kvSJlSWtRBZ5CfFL6FZ7OfQQXJUonX0QmxcwQkyKBFNWYFEWwO/eDcr9LcsmH8w9G/hHeFPuhmiy6H56nQlkyObBUZGUU59g/jChJy9aA1mfkDSt1qcirNWUpyVe792fCIESzobgtoHWLgQKE5l51PuC+KQfxwsh2aBcfPRdmU/JJZ1pOvvbaa3Hb6Nvwbc1C7HLvwf3pd2Dd3J/w/HPPY9Wvq1VF0AAVGe0cU6aj5M1JaL92Na07NrdqJ58/ASxQV16Ls844C//+4N/oc87ZmLbWiVirH9cOiEfl8y/D+et65Hz71Qmg6UkVgvsOo+jhx5A+8XUY8zKPq0FeKpiEWn8txp3yFNOjuVsM6tuqzZ/LjpUh/rAA4VhV4EST+2cKEJpj22MZIJTW+fCP6Yfx1CVZ6Jp59NkxiZhpypQpuOGmG7C73UHYjU6cVdIPm37ZiPkL5jPAmhgEcDtQ28bFxbGUrsS6SMefKj7/HMXvvotuy5ZFnNxoju1OPnt8LSASJZ0xcDCmrqtAnMWA6wmD8JIEUuS5GI6vpifffiyJkppr3U9KvsIe1z6MO+XJFgUIzX3f8XheNZsjKSP/glT6ooz2lSk6V/lRwWhHB5UMohR1KelJZSOAbArCWlsW325oCqSoxV5a7azlOS3PtIadmwoQRKIkvoLQnDaLDBAsKsfaGuMN1NqfjrVNnTIVy1cvR0mPavji/Mj5NRUF+wqwddtWXHDBBWy5U6l/2O12tlX297//nWWWrPziCylAWLpUmY454kheY0trbR+tl5zeQwAAIABJREFU/Ube75tjZ1G7YzE25PKb8gdqzlCLvbQ8I/o3HiC8+eabGHDOkKgBgpa20OI/m/MF2dJ21dL+Wp7RUh+lZ7Te09pmdMyxQEa13FrzVHP7/IfFn2O/+3fNAYJOQzZHNV8s92Va+6BcnlY783KMKIkKKSVsoP0JETcgBwMqleP3xHJKCZZaKksNpCi+Tw4ipMrSPdJN/DKUE/HQcxzPwA2kVE7pnri3w5M1idkc1XSQZ9ziOoggRY7FEPEgSiBFtf0rkcBFCZQi6sA7kJJtOJ6Bd1aO9SD5lO75B0r37DIgl3gQrJYwwHjDz7/g6X89i2effQ6n9T9dOh3g9Uqo/9AV9BMJThA6o0gYJDH1VdoDeGhGAZ69OAsdM4ifgDhvpL190pdYEE0Cc6PcNvScUvKpkopSzKlfhMpAFW6IH4nlC5fhjTfewPz58yMAouLgLC0txWuvvYZOnTqxIMH+9dcoefdddFq0CEZyAKH6qLUZyRL3jkXgL7cFz3SqZGf+jFoCF3nynKaApVxWGGAbopPmY1hJlpzIimTIfYQIsNLqI5T6mxYfwce6kg4iyFfu30Q/RVgYolqeOHEizho0FFPWViLOqsf1/aUVBMeGDeBEScQw2ZQssX3oHa3hP4+1zxMBb2p+KprPC49FAUcmlyX2Z7kvFv0nlyVi2dg9AM5QNkee7lmOn+L+U8xgqdRHmjsfhHWneSQ0L35Y8jkOuH7Hv3LHMOV+Wy8ka8rOlrI5EpNiXBzS774bfpOJ+akwxZcs06Wan1IanyJej5ejv+UJveT+RgnQz0kFxb7LZUXN5iifUKNl3KKG52QM3KhqjSHPRiWemuCdRC5LS7DR0gBBKbjhuotOT60+/BkpQKBkTQ3pnsXBIspSqg/Jl4BLUlcivehPNLIMJaCfeMqkubJEHXgnZOA5Bb18Tie2v/UaDnpqYHn8McQZrQzrS0C+nRt+w3+eHo/Rzz6NLqf1RSBILHbEiEfMdnxGZZC9UM6D0KG0kB3qXEH858sKXP3XJHRNMaMDrLCFGfckdju9kAVSbi/+M71JtKEn4MHMijko91VgdMbNWPjtAsam9+OPP0Zku6NyvC3q6+vx+uuvw+FwsK0I79y5LEDosngxDDExEQGCPMBWmtR5QBYJzpMAW+HgSaX9Rb14/5K3GR8/TcmS9zclWUp9UKmcUn+Tj2G1jwjRmSn5ETXfosXOSjrwezxAoODwzHOHYuraCthYgJCK4pdeZAEC32Jojl7ySVBuGyU/pST/RPd5TQViah9Y8rGoFqRGzDehAEHM5qjVNtx/inOSXAfFoDsEGFbyxR+VfYX9zv14ngIEopSndM/XXYdVq1cjMyMDAadTolqOi0f6XXcBVkvEBK42pjTp5fdHBJ9q80g0OysFTxEfrX8UUZKWJRGtz8gdY9iTCv84HrK0bDEo6crvbd1/EJ/MWYzK2jqYjAakJcYhwSZ9ldKUmRwfBwt9KYfY8EwmM4xGA4xEp8npTunkgtcbXiKnclazuVmnhQm7XFNvh8PtFk8KNqU6aAUgZ+5sbExwYc591yBoodUBOutugH3rLhx5fSra/v0WxPTORxD+RhxCSvw9Ur2D0DtNiFmVA+cZxTC3BXr645C5/CBqjlTBTdS+wkWo47YZaRj91wuRkZrcpM4sQCifg1JfOe7MvBkLv1mAl156iR3BFL/8RCE8QCBq2McffxzeOXNUtxiafDmA6upqxgdB7xMDArGcZBcdUtNSkZGRgaqqKvYsd5ycJnf79u3hLRE+6KkkP0LFx4PJaGQBHgdb0pebPPik35HD5ihrcTWrqTqlpaUxjovTTjst4jGtYzHalmA0e7b0983FIGipD+mi5Tmtz5zIPi+a3V1uDxwuDzweL2pqHfD6fOwEQ/vcTMRYRYr0aJIkJkX5FkP0UtrbQm5nX0U5Kr6eAefu3Qh43NCbJa4TS8CAr86sxSFzFR7Z0A3webCpugb3TpuJrx96AOluJ/wGA1ybttERJZjz29ORJTaWg34/y/FiTs9A4pDhiDvzLBkLa2SNtPaRYzF+ToIUtfSuZjxDjckwCLSCMLI3LPHaQHU0qT/8xgfYuXsn0hPjiWEeXXKSYTMbJZIcnU46Yh9ikqyoc2J/cQ2baKv8AZRbrSCGek9ZFc7t0RWXDToT9U4XJn4+C5t374fFHOKvZwl2aILQS1/y9FXNZEtf8HRfOjnUQF/MEvewo2U6VobeyYMhXoam/FuO7INNr8cXeV3hN0jH+fSUr6CyBI7De5A14Bx4vXo2ONjpPno/7fVL3rRhxYQt4+rh9elgMvpgiU1AZp+bUbZtFtzWKpjuOBeOZTvhWboLOiN9aUv8G0yn0HbSFUPPxSsP3YmkeDE/QmRDtmqA0AKQIqW5fvTRR/HtN98iNiZGmXeBnJHFgqycbBiMBhZUUFCQlJTEJv/6ujpYY2LYESvKA0J9hX6XmprK5O3fv5/lvMjJyYbP62OBBcmjAKegoACZmVmwxdlA2AorcVcQ+VN1NSrKy5GYlIRYmw0HDx5kR1OjXZmZmSwb5uWXXx7t0RPq980NEE4o5f8LlKm3O1FT52BBQnFpFdxeLzs6eFrPjkiIa8hVo6UqfyRI0bFzO0r+/S5iunZD0OlE5Xdfw3VgP8szYvMb8c1DXVEYa8cDs2OAuirszMjGg4uX4ctRVyJ5+2b4ExIBpxdBvw8+Zy38dfXMz+mtViRfeDFie/eDc8dWxHTvhfQbb1HMGKvFJsfyGVWQojRhRM9BoBTdyO+pLZHLQUpKy+hyHZSW0bW+T0mWfElWSZZWO/CGYlsMZfXofmVvWBIaAoSmbOrz+zHx869h9dSiY5sk1Hn9MOh9MOgCbAnda7ezKNMUArr4g7R4b4LNaMCaglJ8U1qJxEAQZ6dn4rGbRiEtKZGpU1hWgWsefBSl29bDqNfBEhPL9uxdTgcSEhJAX9xuSuhktUBvNMJpr4dRb4Q1NoYto1OHtsba4PN44GRlEuEL+OF2OmGxWhkzocNezzgArrPXw+t0YlZSCswxsfC63WwyoxCg1OVA1hnnQH/4INyV5bDFxSGoM8DtkMqaTSYmnyZ7qy0BOVk16NbZge3bYnHE2QkJwx6H85eP4S7dAP2Ya2GodsD/3nw4a2pYlsOY+Hi4HU4EfV4Y4xJwxJSEf9x6Pcbceg2zg5Lt3QEPZpV/h1JfheoKgryc1hUELeOnuLiYkUbNnzsPMTESX4b84v2RwJ10VvmHNWvQq0dPeLweuNxu9OzeHUuXLUNFZSUS4uPZV3/bdrm44fobcEpeHl579TX0P70/hgwZjG/nfIuNmzbilptuYfb/6MOPcP75f0Hfvr0xZeoUeNwe3Hf//Zjz3VwcPPg7rr/+Ohw+fBjv//t90ApFtCs3NxfvvPMOLr300ohHlbY5tI6paOAsLXbm7a8mqymQYhFhEGSnGI6lz1PS9UT3efzjhTg2aNagDw63l87cS4G/z+eG0+2E0+VBSXk1W+GkrcpundrDbIoBLWrZyE3KAL2NfDEA9759OPzkk+AYBLX2b+ncwucDX1Ulit5+E6kjr0Vs126sHjUrluHw+GfhLS6GzWvAzBtScSQ1gPs+8UAf8GBLUId/7tqLT/r0QIbTDi99hNXaobNaoLOaGO6KPrbaXHsjsv/vYeisMQg47Dj89BNIuXIkEgYOUvRTSlt5RztPye0j/5mPz6MmShIBO+wLU4GZSSTw4Z6DA7E4WpwqLCdYEgmPeAW0ECUp6SAC6rgOWoiSlGSJJEX8S5qTWfBsjvbSOsiJkpQInDjIhvbQP53zPVb98htqamvZWLmgXwckmvUo27ETNYcPM7VTu3ZFaseOOFRRhx3lDljjYlFYZ8cBrwepQT1G9e6Nu0dKDpp3otsfHYtlM6bCFmNBUmob1NXWoqayAu3bdwCRxNTW1iKFvjgNBpQXFyE+Lh6JyUkoKS5hWx2JqW1QW12NqopyBs6rrqtDfW0NUtLSEAzqUFZchMTkZNwU8KOipARz09IQl5KK+uoq1NTUICM9HQX1drQfOBj27VtQVXAQHTp2RJ3Tg9qKMsTFx7FsYmWlZbBaLUhMy8b1V2/DbbeU4b13MjBtw02wDrgHOLAMdUdmIjhhNIyVTvif+wjV2/bCGmNFamYWyoqLWYCQktMOB4xJuPz8oXj70fuYHeRgULrn8roxq+o7lPurWICwYPb88BYDB+OJADEqQ1/aBFKkkxDiFkP+okVS8Cawh1JZMcuomCGTZJWUlGDsU2Mxf17TAQL1QTpZMfDMs/Gfjz/EmWcMYAHFzl27MOqqqzBj1iysXbc2vC1CDJV/vfxytG3bFm9OmoxT+/Vl3A+zv5mNXTt34IYbbkRcXDw++fRTDD5vMPqd2heffz6VBRcP3PcAlq9YiZ07dmDkqJEoLCxg/ADEMMkzn3LGTbIprxPVh95HdMWXXXZZ+OOC7ovAKBovVE4OjOJyyO7c6cvL8bHIt1eaksV15R8nTfkpjkEgbMnZ5w2XTjGY9eyYY9GEF+HYuDGMQSAdROBnNJ8n1keLz+PyRWDx0fo8EbCnxeep+SmypUjC5vV6oNMZUVgK7Njlg6NOAnCabQYcrAmg4EAAcAfhdfnhcfvg9wZgd7ml1T4D0CY9EaYYI+LTdbhymB498qyhFUwJcyUC8VhbB4MMpFj01FPhbI5qvphnCiY58n123m/odyJ7sDg+a9esQtX8uch+fgLbwqUyrr17cOiZJ+BY/yus7fPx73tSUWF04O+f+mErLMPqtDZ44od1mDR8CPoc3AdfQgICdg90sTbAooN//37AbELuk88h9aqrJeC0Xo+yj96Hc88e5E14LcwULGIvOOMvx65RfZSIkqg+Yn9T8nkiAJr33aZIl5oEKdIoV0JcywEb4le40mpBc8BzrSVLDkpS0kF+j3cmOQpbvrKhVh+uOz/F0O0qaQWB85E1pQN1/inzlqCosABVleVsl753+zToqitR+PPPbAWB9LAkJiJv8GAcrHVjXYUT3ngbSuvqGKOYyRvA4La5+L9Rl4X33/cUFOGuJ55D6dZfYaOTBUYT+7KnrYH4hHjY7Q4W1VosVni9Pvg8blhtsWyP0OFwgvasjWYLW3HwB/xITEiAw+li+2m0guDx0uB3spWJKyvK4XE6MS8rGwZaxnbYGROhPhjAoYpK5A4aAkPBIQRqq5GQmIh6pxtBH6XXtrJBTJS3LE2rKQZDBx3G6JsL8O4H7bBsy2kwdTgPhsrdcNVuRuDSM2FweBBc+DMCVXUwWqiMFQ67A4R8sKSmotyWjr+cfjreevQuNlkptbUn4MXMirkoC2EQFsxegBcnTMBPP/4Ik0k6TSEvR/Z6deIbcLmcGPPYo/DNm4/iyZPRZdlSxoMQxlJoYHikExHjx4/HwgULkZSYyJwQrSrw8cX7E7V7TGwsEhMSUVRchNjYWJhNZuhoHzcvDwcOHAhjE8hh2uLjQHgAcjKbNm9GWmoqsrOz2TYB1Sc+PoHpuWfvHrTNaYuUlBRUVFYgNiYWbdLaoKS0BLU1NcjJyWErFTt37sTBQ4fQvkMH2GJj2fvJqdC7aMuDft67dy+ysrJAHBMjRowIryBwfyAf16SHCIBWGxtK/kC8pwUE15QONNYbgRQZD4J0ioGtIGgAKWr1EUq+JZptlE7gaAGDHq3Pi+6L/SitCeKpN+z4/ls3PERySkvoHXWwm4Jw/Q6gjj77pazcREnMFgmIEVQPBE1BIDYIfzJw8aUmTHs8BTGmBmC23IfT6oRr3z4UCCsILZ1botmm8ptZKJ36Kdq9PBGxHTqybdGalctw5JUX4d9/AN6brsQ/byyBy16NZxa2Q/7PJZhsNOH9OfNwz43X476SAnhs8fDuOwSdzQZzj05wLFoAndmCtKuvR9b9f4eOAojaWhx+Zgz8Dify//1xI3/DfVC0PhKtPvyDsZFNo/ipkxiEaOumzfw9OYqWJGvy+v34+NtFgKMGMTof6j0+JNgM8JSX4og8QBgyBIdqXVhdZket1QInTep2N7x2J+Kgx5ldOmFQr05sIp++6hes/fU3WD1O6ExmKYWx14PYhGTE57eF0+eFOaiDq7QesUEj4tvEQZdsRXFVDeKtVsRZLaioq4fRoEdqfDzKauvg8noQY7GwtMv1Lhe7T1iCc35cgySzGQtPOx2l9fUwGQzISkrC/j17sHfdWuQMOx+piYkw+n2wu90I+AMsALGYTXC6PYgxmWC1mFFZa0ennBLcf+kvmLZyODbsT0JsrBV1jnq4PW7Ex8ex6NvpdCEQNMBqtgHBGhh0flhMJvgNetTWuDG4Sxe88vfRqnztnqAXM8sXSFsMGTdg8dxFeO3117Bs6TIYjXGNUisFfF4U79+BDz/8gC3H337H7dAtX43aqV8hc+p/FIBGOtSVHEL5ge3I7DMI8TmdIpI3VVRU4NNPPmXJoXx+H+JscXA6HAwfwL+WaXWH6lpwpJAFDrZYG6prqlkg1S63HdLT09kkTeX4Ckd1bY10kij0tU7RAAUUhD0gHILZYpbAruz4p4RDoQAzOSmJbTsxEFnoq4m2mZwuF3t3t+7dWDl6T3lFBVvFIP3i4+OxatUqEAZBaYuhmUPoD3/8JAah5Sb/eY8Xlz9QhYqtARg8oZThp0mHk/TFsgCBggS2dk3n8QBQF4wFPIlAYr4Ov05MRbsU4Zizglp/FAah8ttZOPyvpxHTtTtSRlwOX20NapYvhXPndujcHuj79cXCuzrB4bXjwulHkLCrCL927oLlJWW48JRc9PxlLQIpqTC0yWQBQqCiFO4tm6GjD67kZCQNvxDW/E5w7tyB8lnTkHjeUHSY/H7LG+IYlfyvCxCU9pyUbKO0T3g0z2m1f0sDBJ/Pj2mLV2LBmnXYe/Aw4mIsGDWwK5KtZpTt2oXqAweYCum9eiHplFOwt6gSKwuq4LZY4Pb7cXZyPHqkJ+NgeTW+X/UT9NVlCPo9qPIbYIEfVkpNHJSic1OAcl6YEejcD/p2GeiXl4tdW/ajrKgKg4ecitgkG1bt3I3UOBtykpOxu7gEFqMRZ+Z3wJbDhThcVYm81FQ20A+WV+KMDnlsaStj6hR0SknG3HMGYVNhMbIS43F+zx74bvESrJ05HbnnX4jOPXrAZjKipLYWVXYHclNSkBQbg/1l5eiQngar0YRthSXokPY77jl3Gd5ZPRzFtZ3QJTMFu4pLUet0oldONlvh2FxQgo5tEnH9GWuRk7gaCPqYnh6/Hx6nC8nWGHTMbSt9uihcnqAOMyu9KPUGcWeGFY6KErbn3rdvP+j03QHD3QiiD/vqcdVVYemr96F072aUV5azHApp2ZlIO+xA2r567D03nSV+Eo+L0Beyp7QY9goXci+9FqkDrwvlcpLwPfQFXlhYiG3bt2HVD6tY2ezsrHAmyXq7Hfv37WPbGZXV0ukFmrjttLJjMrJVAgoq6PcupxMJCfE4hVLgBoNwu9woLjrCJvHwMnsgyPZ+qSwhWIhLIjEpmck0mIyw2eKR1qYNe57ak/SjAIGCA7ZdYjHD6/GyYMLl9rKgcfnypSxAoedoi+FkgKDVU2h/7kT2eT/t9eKv91ehblcARlcoQBhAhDIAjqgECDRO6I9FChB8SUB8vg6/TUxFbtLxCxDEOYMAibSdENOlG1KvGAnH1i2oXrwIfkd9KBU8oM/KAOiUWZ0d/tJS6BOToOvcGcFt22Du1w/GvDzoExLg2bQRrp9+avhQCWWb1RmMbGXCb69D8iWXocOb72rvFH/Qk+EtBvkSmdpWgbjUwb48juLMfrQlLK3bFXzZhNtMqZwWWXyLQVz6VBqcSrL4kh/pwLcYul/VpxFIUc3OBFL8dO5iOKtKYYUfLj+QlmCC1aQHzevEM0AgRaPFimDAjzqnDzX1PsSZDVi27QD0fh/OaZ+Jw9X1WPbjOvTr0I59jc9dMB+d8/MxdMhQzFuwAH6fHxdfdBEWLZqH3d5YJHfvjt6n90BdeRUOHirAeWefzpaal+/cDbPRgHapKSitrUWdy41u2Znw+gLYWVSEvLRUNtnQxJ6RkIB2bdJwyrQv2ZhfMex8FNTUsi9R2rN0FRXi8NIlyBn2F8Tn5ISPz9HE1C4tBR6fH4crqtAmPh42ixn7yyrRp20JRp+zBG+vHI5dJdnIT09BWX0d6pwuFgSYjUZUO4K477wVuOXMhXh75fmocyUjPSGWzdHFh4vQOS0NN15yAQscQpjbCByUJxDEjMptKPPZcWfGAGxfvx5z58zB2KfHwqBbDgTdCBpfAXS5WPrq3Sja8RsGPfQGPv9yJgNUjr5zNIJLV0orCFM+gN5C20mhi5ZayRbbdmLj+h8w/IKROLVnX7a6yskfyivKMfmtyVi2fBnMZgujcT70++9sVYBWSqhfV1dVw+/3weVyw+V2scDE4XSytqUTBrTUX0foaB2Qkd4G/U8/jeE46IDIoQMH2PYBbSHRpM4BZKQB6+shAKrf72WBhNvjw00338qopL/97hu0zcllRxY/+vgjto1w951346vpX6G0+BCuv3o4Nm87gH888gIKCg6xSjcHpKi0JH+sfEs0P9VcJsXW9nnR/KDa8rESV0ZzZSn5vGpHAFOXOPHTUi90tG0Qmvd5Lkt+7Jr6cllNAD9t8sFXH4SOVgjol3S6mLEaURQcis/FGJ0PEhogRtpqAIw2Hc6/yIyHbrXhnK4SDkW+DUXtSFsMDKQ4YQIseXmKHDGtwf1SMXsGjrz5GvI/+BTO7dtgSEpixx1rly9tOG3g9yPpvvthO+NMVH7yEQypqUgeeTWq53wLY6fOiD//L/BXVqJy4mtwLl+mekrB77Aj+aJLWYCgNN8o9TelLbpo44fsp7Y1Jd/u47IYkyK9jANC+P4nBxLxLE8kPAzE42fuBcAO76xKsjiQRGRhI1k8myMfwHId+DKrCLIRATvcFysx/HEQlFgfkifXgYOZuNMUARtcLw6e5LKU6kNfcaQnGZoHCCJIkTcO6SDWh8vyB4FHJ32AhIAL3dqmo8LhgT/gBoJ+aU+aH0UMzXR6gwkxJisSrGZ8v3U/5s+bj2DBfliS0xCfmYW2NjPg96Kwph6JVgsyUpJxpKKSTTCZKUkoKS9HXXInJLY7BWef2wOFBcXYfeAgBp/dH5ZYK5Zv3wmbxYKUuFgU1dTCQEd7zCa4fD44PV7kJCfB6fGgrN6O7MREwKBH//nzEKvXYeGgwahgOIUggjodHIUFKFqxjAUIMVlZbMLiPiIxNgYUHNU4XWgTH8eO6hVV1aJrVikeGLwIH/44GBsOt0e71EQUV9fA5w+wo3y+gA5JMV68d/3HWHugH8YtGIq8NAsGdMjDvrJybPxlM4bm5+O9J25nwYHXJ219sq4b8nAujxczq+ajIkCnGG7EnBmL8Pzz47Bhw1qYDD8D/nHw4kEEAudi2t0D0POSv6HzRbfjtdcJg+DCmMcJg7AAxW+/hc5LljIshHi9fxB4/bcA+tiDqGijwyO9fRiSStwQUu0pQCD2PsowSUcRaf9/+7ZtEuOnXs/sQlsAOoOJ4TPI3rQYUlNfz7ZSjEaJDtrldMHvczGehP6nnwqjXs/KEWiTjjzyCUb+0UHygzo99HrKMRGPmrp6pGdkw2gworDwMFsRyM/vjI2b1rMVgsyMHBQVHUFebgIef/gKLF66A2Oefhd1ddVsi4RwDpMmTWIgRRGnJAfnqfkWpbEo+giqq1LmVgaME5g05X6KynHAo5KfIgzC0KFDGQHW2ecNk5gUCYMQAik6N24MMynSiSIOUvwz+DyayZnPM5lDcasO+0p9uP/1Giz63AtdVaOdtohupNMTzwqtRgm3eTDAELtRPnVD/GgMn3AK8NTTcXj0rzYEApKdxXYlH+ncuxdFY8eGQYrU1tTXRN4SGpsMyxQiG1Pqb3SP+oU8wzDJojmCAgQ6xdBh8r9R/sUU2Pr0Q93aNaj+fmFDhQwGpI19FnG9+6J86qcwZWejzV9HomzxfOb3kgYPYysOZW+9AdeKFY1OaXBBPEBo/8Y7bMyzHRiB+E1p3qV7BOzml9KcxMGNclnimOJAY7ksksvmKU6UpLQkL7+n5Rk+0XIHwX9m303CMZZjKaupJTmayAmJzsBNjPNXphcj94nk9Rf1bvhAbDi3L9aZ3l248iA8VW50GtENyZkp4UZU04vue3w+PDbpP1j04y/s5IA/EERiLA1aHercXmQlJyIjKRHFFVWIpS9EAIdKKhgvgd9oQs3uLajath7WtEyktu+MeG8ddD4vHLYUmD0OGH0ueNhefRBmrx0emGDucAYSstNx2umdcPDAIew5WIC+fbsjNs6G9QcPs6XnxBgryuvr4WNU1VIfp8mLJnOHx8O2CbKT6Uy+Cf3mfgdLMIjZZw1EkNKJUpvr9bAXHsaR5Q0BAkKpncN9I7TfzQFnOp0BSTEO3H3eYsSYvNhckAsfES+yQEkyZyCgR356CU5tV44XF96ITQUmJMQY0JaCn9o6lOw5hOGdO+HNh+9lzyvZXp0H4UcY9VtYgADDaPgDQ/HlXWei14g70HH4jWwi0UKU9MDOIFI/s+OevXa80t+G1AFluCiuJtwfSAblqdi8eTM2bt6IlOQUdOnShZ0soQFfWlyE0nrA3HEIgjCx46XUCF6fl/VRNtBNZjhK9uL31Z8iPb0NTu3XjwEsCd9RVFDIAgRed7mrprTSBEANBHyIT0jA4YJCpKZmsNWEzZs3shWK7KwcFB4pYEHd6acPwOYtm9C1UyaeG3sTflizDw8/8SZSUhLYllWM1Yr7H7gfp5/eX1pO1Ul/kTza/qA6ET8DPwVxLH2EfMw25W+ai0HQ4rvUVh6bo5foa6L5z6Z8S1N2rqgPoLTCjyBtD0g8PiiqC2DcjHqs/c4LQ5QAIcr0r/3XRKKaD9x7ZyxuGsCP/AYRNOpgjgXyMowg3LASBqGAH6LWAAAgAElEQVQl85Ra+3A7V377NQ796yl29NBXUQFDQgKcu3bCW1bagDWiAKNDRxjbtoVn6xborTEwde0K1NYh4fIr4HU54a+pYasH9Hs11rloKwhH09+i9Ru1+ToMlP6jmBS195Smn1QyVjTZdNSOkNj09VNeXoGDhw4yLgBpqyCy3UIkv9FEsglaDI5FORm1aTC49fB0DuDGW29CZkb0tKQerw+PvPkBZi77gQVSAztl4/T26WzM/lJai5zMbNx83iDs2LkJaW2y8HtpNd79ZgEqauphirch01MLa0UxPOYY1Pv86Nc+FyaDDj+s+wVtszLRt3dvrPvtN+axz+zfH7/+vA6FSW1hzcvDgD5dUF9Zi0279iIpzob+XfNRUlcBizUWtZ4ADtfVNmJiZMdTQ0vXxOIY0OkwYs1qGAN+fHPWOfBTgEDkR0KAkD3sfOR17sKWzGmbwOHxskmfAiICNLrYOeEg7B4P+13XzBpc0usA2sS5UO/2IN5iYYyRxTU1MOh18PiBKucQbD3SGRsP7WMrHt2zs1BQVYW9W/ZgWOf8cICg1KBNBwibAf94wHAnAoGh+OLuAeh1yW3oeP7NEQGC57vvUPLee+i+YgUDIInXY3uA+q+ceGSXCy+fFYNeA+twcaI9hFPQobauFgsXLcS6tetQUlaChPgEFnhQAKY36FFfWw1vbFvYTr0ZQUOMFKSxjQsd9AjAaCDsgBXVv/+KbTOeZFsTdKSR2DWpf5cVl7CVCbUVBAoQTBYKEPyMbMnucOGKK65Ep/xODDhpowAhOwdbtmxmk/qIEZdh7ry5qK0px5WXD8PhQxV4460PkJaWipysTAY4jbHZUFFVzdqROx/CStCJCBpvf/vbLQzncCJdzQ0Q/mjdW+LztOo4+xc3/vOlHfZ99Hku+TS3CThgCqBuTxC6cg2rAFpf1tRz1F3ygZwMPTLt3LPqEEwJIus0A966OwFt4vSKAUJrvF4ugwKEw+OeRcBuD08QtMXbiKvB76evFRY0EEMi+dfMu+5D4vC/4PC450BkS4yIjn6ncokBwrGoy9HIbBKk2JodU4ssrc/IoyI1AxCpzerVqxnCevPmTewomN/ng9vjUf2qOhpjcv3PTD0dCYZ4LC1bhefHPY8hQ4Zi/foNbGJUWo2gd9LS+dR5S7B22y6YjXqM6NsBGQlWpufBWhcqPXr0y++IstIjDFhWYbRg4ZbdqCoshVevx4heHTHwlEz8Xl6DBavWIN2kg8VkwMbd+9AmMR7dO+Vj14Hfmbzu+fnYtn07CuIyYG3bFqkZqTDEWtm+vd7hwnPXjYTRvhd6awJ+Lg9g4f798LKVlYZLbCvGXqjTYeS6n2Dw+/H1mWfBT8yLoRUE2mIoXrkMGYOHY+CZA9iXpMVkhNfnh5d4MwJ+NohiTGYk22Kxt7SMHYtMjUtA2yQbiI01KYYmSD/DHuwtKWWKVDs9yEnORHldDQoqq5AUG4veuW1xqLISe7fsxjBhBeFYBQiBH37AoYcfRtdly2DOjAwEF9UA46fX4fkf9+GZ8zqg3zkJuKANYA0C3WOAQHUJXn75ZSxZsgSpKakML7Br584wS6XH5UB8255IOeNv8OotcHv9sAb/n70vAY+jurI+1VW9b9p3yZIsed93G4OxDRhsdmOWQFgyIWwJmfwhJJOdZBJCkn9ImMyEZSYhkwABjBcMGMJiA953y/Iuydr3lrrVe3dV9//dV1WtUrtblo1NYP4UH5/kUtWrqlev3j3v3nPPDQJSGDGDk5GlDEYzXA27ceDl7zEX/4L5c2E0GiBFJTSSiuIZPAgEEIjwSSEGUribNGkK80SQ0STeQZbTiabWNuaupdX/0WNH0dzczASzCMjUHqpl3IOq8hI4rFZ09vbjWH0DA4/qZjabYDZbYLda8P3v/Quqx0847XWM5Nsf6bd5tm1dKIAwkvsY6TEjmfPOpa1n3g/i+08MwHUgDpDQH/EHKW1/ggihNwa4UgAElYww0heS7rghEwqASiAU5BE9IccryGEYz4+j8jIBW36VjULHhQUI2v6TAcKPEA9HTgcFFOpjN6dZXSr1UoSMTBT98zchuj3o+cvziHZ2sLgmpxfACSTTfHrnnQkgjOS9jvRVnG1baYWSkkWKqGFtHE910aQTM1FjOyoDmo7Ximwkt0V/TyWURPu1ohFa4RrqlOT7Ujvq+PHj+OMf/8AK71D8lN2v8lIT7hPSxVZCCjKFK/1GLt10x2qNPv0+O2M6HLwD73Z+gGUrrsL111+HTe+/x9LyaDJOtdH9UXqfSO5jTgeHSZ8AqxRuCERlop2sVhbFUZ+ILksmlZ+Et6sf5UU5yLea4Q1F0NbVDWmgnw1u0WTD8lmTkGM1IW5Q5HxDAfAWC96sbUB7Tx9MWXaZLeSLQYyGsGDeRBisHPIzMiHqjGgeON2DkPwMFHO75L2/gZdEfHT5MsQoOMl0NDi4mk7h8IYNmHTdDagaP54RJYkBr46hiCSykAqlTRr0AvudQhfkWTDwAkQpzkIavnAYtOqlWDyL0ZPLnfgIFE+kJ6AaBTod40x0nGhMAAR1bNG7UfPQaV84Gsbqvg3ojfUlCSVth54nD8LjkLh7IUmL8MpDF2HyinuYB0ErlGSJRFD/pS8xg2iurk4Qkegt+3Uctu1pxfTGU9hz8dewY9ZKxPQcmrP0EIqBr+mOoH3vh9hz4CAOHz3MwgIlxcUsxMA0Krwe9IkOOGbegRDMsMR9GCUeARcNIJY3FSd8DhhMFvTV78b+v/4Lk1OeMmkiA1sUfwx4fXA6nSnBMN0fhbUovZb6kHQW+vrdKCksgi8YZCEjynYwUnVNXoDP52f3NXbsOBw+XMskmstHjcLbb29ESWkZsrMy2fKTzuvo6FSqp4IRJq++egWK8rLhdGZi9vx5MFusiW+d3on6Daux5LOZW9LNU2q9ipG0NbSa49IhQkntT/wCQY0OgsqL0oo1ablSqiFPjgmnmj/TzXnJPCWtgE+6OY/O0RLXqC9TCc0lx7M/OhrGW5sDkLp5IMKxseOTIvj4VCuaDvjBuZWMAwUnUFZsKEQEwpGapNTHCQJHtYsG3bAUYigDFswpwMSMHMSkuLxwyOSRPVqHB5Zb4DBziWqOpY8/DlNFxWnCQtSnWs4LXT3V+9FyEFSjqbUtCYAQoXQMZaMJmBdgqqhELBgAgYFYKIR4JMy+eyE7B8bSMoSbGmGdNQferR9DGvBAyMpGtKsTkc6OlDUXtABBFTfS6mUkcwm0PD/teKPf1dor9LtWP0P9zpL7Jlm0TLXXalsjAghq/3wSgEBtpKoMOZySYiqSYrKyHbWrVTajf1M44Ze/fAIHDhxghBP1Gsls0EScYCRxBfUY7U+1Y9S4OLnUAcwhgCAQQNiMSy9bgltuuRkfvPcOy1VPV5SHGOViHDApZYwVD20CSQ/CCg6hSAAfNnSjJcTDVpYPUywGT1sPAlIMdrMBohiDxHGgsMXSqRMxYVQRth2oZZkIOgIfZgMKsrNRXF6G5994hxldM2dCYUYeBvxezJlegNGjR6E8JwehkIhGfxhBqnfACDRyWIaMS1iUCyURYY6kksevWwOdKOLwDTciHBssGtXX1Iitr76MS2//IgorK5m7jQhH9MwJHpNCHJTrTsjeB/qdTfCE7XTkVpc5CIMAT17xJBySpHYWFXG4vR2nDtclOAjDAoT+DeiV0gGEn0PivgJJuhSvPLQgJUAg3QCxvx89f/oToqR2qa3CSGCl9hh69x2GYfKjyC69CQWiBLMYww2XZCG7tAWXHl2HfQcPMlVE4pNQvJ7CKKRZQADBy2UhY/ZdCPFOWHp2oJJvgYXUM/sltDvmw5JRiL6GXTiy5kcoL6/AoosXMqNMfbh75860HgQGvAUBhSUlkMQI7A4nDtYcwvgx1Uxts6e3h4ECSmEsLy7E7j17EeN4/OAHP8ILL/wZxcUlWL78Gnz3Xx5loQj6X9DrkUE8mc6uhHqdw+nAN7/5f1CYnYGMzGzkFBadNmGrk1mqCU6dKOmdp5voVYOqnafOF0BIFko6G4CQ/DwjWRSd65yXDiAkL7C0xob+RvMMeTYRHwyP9fglfOdZL9b8MQKdhoNAmTE2mw6LFupRkM+nWgwPGlPGN5PJ1fIml3Nn7zoWx5GjIvbuI7+kanwBQzXwy8fs+OLFxEGgr5/qq8gVXylcSnsoi6EtSUlRtS2pjCB7RgU8aRetKkDQKinS+6E2aF8qgEDzFm93sBACb7Mh2ueizgNPQkijKhBuqIN9/kXoXf0yDPmFTG9Gn5/P+sG3bzdcr74MXQpJ9ZECBK2SYrLKZCq7OBxAoOdUv6nh2vrc6SCkxqPyXhoMVJzm17/+FXbt2jWE5UlGkFaXQzwBXBxcnENc+Tlc2+Bkw8jGPOUdquOe2S+Z2MiGdCyGmY5pcOod+KD7I1y06GLccvNN+HDT+8yTMSxAiMVhYOWU098JXScY8WN7XxDtcTP8vf2484pLcPXksWjv7oZX4vHfb25BV+8AgnwI1y2cg5jfh037DsFptbBYf58/gPK8bMybMR0vb9+JYCiMfIuV1U8oNOjw3WumonreXARcA3h76278z5E2tPe4IdjNCPGAQSdgQnEBqvPy2IrjSHsHDnV04sYdW8HHYtiw4GKMKynG2Pw8ZjB37NiJXWtWo/TyZYhn5TAtdotejxy7jZ0vKgWgWClpAAPBEOy0vKCPlRmGOFx+PxNXYl2TpNmu7S36O3khQm29WFp9/jkI1cvuZhwEEgiics8U4x9u6/eF8OLeHtQaC+DhBOzt5fCzD9woDkr411USKjf8Au+/9RZy8vLYeN28eTOboLIzs8BzcWRVzEDO/C8hEDMjM9aBcvEweEiQMsbgUKAIepMdvtYDOLbuMcZhGD26kmU30HxMNTZIoTEVB4EmBzIWJLJFf6cQwPG6Otx91534ypfvwtp1r6O1vQc3XH8jWpob8e1vfxsORwbGVFfg2LEjzFNQXj4ajc2tIBAwobICpUX5aOt24WhdwyD44zgUFhbA6bDDbrPhK/d+GRXVY4bts0/7jxcqxHC+nkP1gqQLTyZsrKbg2ZnmyeHa6vBIeORpL9Y+HwbfN4jAxQgwZZKAZ37nxLQpGr4NA/GKh5Y+QCnKwmDQkSs+BMT0QMwKxjZUvt31b4Rw71c98AVYAhRD+noFIHx5afoCThdSKOmMIQbqX70B9gULYaqshOBwInDiGARHBgshBI8egaGklBEZqT8EZyZ0dhvCpxqY0BKlS3J60nodup0pxHC+xtG5tPO5AghkYEmKVnXDqB+OiiCJjPjSX1/C5k2b2ApM++GoSPpsOomhTyWtThvmGPbjAzDNMgkZegc29W7BzHmzccuqm7B928dMCvh8AATyIHzc6kKXKRMxDpiZk4tpo0tBynwiDNhxuBGBsAR31IPK/Bysunguevv70ecjLQUdMm1mVBQUYN/xdqzduQN6Cw9TVIecnCyEwz5cNrYQRTlOpnlwoLELB5s8iPhikCwcRs2oxF0XzceCqtEsZk0TDcX+Nx87js4nnoCN55HxyCOYXlnBSIcEAFpPnMDXvvUtOBZegrAjg2mbV+Rmw+0PwksuOgVg0dxBYIA8C6ooEGkxqFkTpJUwwLwgw79FWoH7mjtx+dgxePKbD6Q9+FxIipOvux9r1qzBH/7wB6xatYrVphhusq09fBj7Dh7ANSuuxqyZM/GrdiP8m4342gE/vnmTiDn7n8Pe7dvR73GzfiA5ZUpbzMzMgNfjZh4ECjGIOhMb93axG1zEB8lehkDMAJPJjL5Te3Fs3Y9RXFSMiy5awJQpKc3xyKFD6bMYaEInXkFuLiMpkgehpvYw7AYJd66YgTe2HEO7O44x1WPR3dOFA/v3MbBBWRHTpk9HJBxm2RfkLSBvgsViRobDAavdzkIMBMjVdFL6FklkyW614kc/+gHKyivO5jO84Md+1gHCBe+ApAskAMIfw0OyGMRIHFMm6vHMfwwCBBL6ibS2QmhtAcorELdLQPNO6Fr3IVZRgJi5FHwkG1x/DLpJcwELpTACr60P4av/ZwBeP6X0fjYAgrYbmAfh548xDwEVWWKeQXmCkr0GdjsMJWUIHKmVEZRSmZb+Tmq1OkHPwo4spZsWpkRwTGbEKxdkAGH5NZ9doSS6z1TkheR9IzkmVVvJCJiMPK30U23qsfRTCwCIlU2T7ZaPt7CccLnyseKgilOJAYGlLw5QzEfgE0U/1PuhI9UV6pk+ONnNR0E24kXQC48z4lc6465tj46dygCCE5tdWzBt1nTcvOom7Nq5HQG//7wAhEDYjy3NLrRG9TBlO2AnBnpnL/yhEJxWK0IRkZEes3MyUOiwY+m0iejqccEriqxyoglxZDsyMBCI4YUPPwJn4GCJGpnrz2eIYMn4ctRsfAPOohKIBWVo6/bCwZsR1EXx7a+swrJJk/DKrj346MRJBgDmV43GjVMmIfbcsyA54uhX7se6gzXYc6qZMduzg37UvvE6JlxzHQ6Ho8i1WhjHgIBFm9sNA88zgSSH2YzjnV1MMImMocVohM1kYGEDdyDABJnoeJJlTmeUaX+23Ybe+lZMyc3DM9/7OruHVKswqua4uvd19JxWzZHSHOUshriSxfCSksUw9YYHGYHv1Vdfxe7duxiAZPeipPVpXUsEKqnIEZVVvufOu3H7yuvxt2gGTu0owl37gvjGdWHc2P0GjtUcZCCCnnlM9Rj4/T5GWmxubIA7ngH7zDsBwcyK1USJNE3hAZJPFjgIehMDCEfX/AC5uXmYNnUK427QfXV1dLCSzVrCoHasarMYSKTpyPGTKMq24v6bF+KVd/biRKsXFRWjEfB5cai2BkT6pQqRd9x+J6vh8d6778Dt7oeFitFwHGx2K1beuBIlpSUM6KkbtW2zWllMecaMGcxTkmpuoeOTU/LONS3wbM47W6GkkcyDqcbbSJ451fyZSigpVVu0L1k8KVWfnqmfVYCw7o/hISEGAgiTJ+rxrAYghDs6MPDUUxBOnMCp5VcjkOlFtvcETEd9aF92Ozi9DYFwEA6TEdNnzoTeRHVXgNXrQvjqNz3w+dN7EFL1c6ihAa3f/S5KNUJJZ3qedO9iuL7pW7saHb97EvqCQkTa2xlAIENP3AP6nkyVoxHp7kacvJqKZgFnMCDm87J6C0QgJqBAHATeZoeQkQHJ52PF5JjkPYV1WM17DpLfB/uceaj892dSzlPnOpZGct6Z7DUTSqKGkuP4yXEbaohckjTpqYOQzqNJTbu6VvdpBSi0hBD6cDds2MDqxqsxkmQDq15b/UnXoxg3rUyIU0CpYFoSB7VJhWiI2EUrmWRDThMh3RetLJOvRc9EczuBCnoOlbTBVrDKS6ZztOS25IGltqnqKky1TIRT78SHrq2YPH0qbl61Ent372QA5hN7EDgO/Z4B7GhxoYu3ICqJWLVoHjIiIbyybj1WrrwR2+pb0djbh0mjyzF5VCmrsLhpbw3MdhvLkfe6vSgvyMWC6dPx500fQaR4VCAGKSpCsvFYMXsijm58E/aiEvizCtHY5WLV2ExWE9b+5FG0er348drXYTEYWFZBh8eDpRPH4+6D++EP+PHCzDnY1tCImWWl8Eai2El1GBpO4otf/zo2dbsYkDnV04tF4yg9sYW1Q3LL+U4nGrp7IOh4mA0C+0nHlWZnMYlllrfP82jrd8uaCKk2qldAqXteP8LtLjy88hrcdtXiRPxT2/9UzXF13+twxeRqjm+v24hf/OIX2Lo1NUmRhJKm3fAA41AQ2YtKLIeJ5ZwSYNPKiEd7RwfqT53C7FmzUFRchN91Cmh9A7hvrxff/UIMYzc9ic3v/o0BNyqh3UkEU0lETmYW0ycw5lQha+ZtDCBExQgLZancDRpver0Zfc0HUff2/0Vebi6mTpnMxjIF0wggUFEsGuAs3qgAaha2Yd9uDALVZxCjLGOh9sgx3HTTSnzhtlvw+oa3mEfqyiuXo6W5CT/915+isbkJJqOJZS3Q9+T3+bBixQq0tbax8uDkIXj46w9jxqxZQwGcMhFqw3LEZ9ERAVLZZH6LLP88ZB9NzMq7ZosGKQaqfDpsW6JcJY94K/LLoYWfsk9pSyV60TxFz7l48WImWjX/kiWyUJJJKdb0+M8RrKlB9csvs6bkfpPnPHUMsn3K2FRHJRFnadPOOaQsOuQ8pfLtmebPZGK2OhdrRd+0HAS1v9LN4So/Qx23Q2PQQLtbwiO/92L9n4ZyEFIBhMC2bYg99xxaq6qwNhCA32jE5RmZaD9yFKeqq1hWUltrK0ZXVeG2W29l4PDMAMHMAKb2vpTXmCApquWe1b5JFgPSVsNUeR3J/ZXsVVY5CGxMEED49ydhHjMGMapAGfCz755CBSTKQgRJRhr3emUArngIGNE2J5dlLxBfIdRQx4q4GUrLIOTkINLeBh0BCBL2kiTEiCjc3gbT2HFMlInGEY0h7TyVyu4mC/qlEn7SchDUb0pbzZGNZ0XscIgglTJ22bgkdMBc6VTcJelj1LJiqbF0EpYq4UEdcCry0w5U1cjSz/Xr17OysCppUDvPqy9TNdRMJY1EWCjNjdLj2IQmk0kGM01krXiSpyXmdfJGbaYKMUQiUaZjr7Lb6fnlfiC2O3khhmalyB4m2btAg0hWpJJZ2Iwgo5DqpponIcPgxEd9WzFu0kTcfPNNOLB393kDCK5+D3Y09aKbN0PScbhy0lg4eeCN9z7AVZdfhn3NHWhxD2BCZRny7DamDXCqowMBei6OgzEWR2VRAY519eK9PQcgGPWIDgQgEWPXbMTVC6bh0Bvr4CwuQyi/BA2dvbByVpg5Ac8/9lUc7O7EL998G1NLS1gxp+11p5gL+bH2JgT9QTw1Zjz6w2E8tHgRunw+/Ndra1BUfxz3P/ptfNTbj5beXrT09eOSsWOwv7mZFYWiug/k+aDVL2UsEE+CPrz9zS2YUFwEI8+jydXHeAt0blqAoKi80rsSQiKEPi++cdO1uH7xgiHjm8ZIWApjtWvDaR6ELVu2KVkMP0dc9xVIscX46wPzMGnFlzDxugfxcW8Mqzs4BMIcUVMUGzRUYCthmRhXi7xRPEJiHCc8cXzrIx9K3SIeuyGKwnU/xjuvr2dCQ16/HyaDEQYDFa0yssJIJqsTcXM2/JRZoONZdUUyNHpBz7gcgVAQJl0MMX8PsrKzcPHCi2CzmOHzBXBw/37k5uTIVTpJe0JRGwyGQzAZDOB5PTJzc5ieQmZmFnbu3oOpU6ezMAV56wjQUrVIIir++YW/oKuzk3nhwpEobDYrbBYrZs2ejWAgyMIaRIp98GsPYfacOUO/nRSuVeZ6JTCg9p8i2T6EX8KAhYZzohBWk2NMqhtX/e7ZvxX10UG0oZQSJM+LToBZT/oP8pyXXM3xzztcsBNAmJMN11/+jK7f/hbVa9bAUFLCJgQWAtO0r3o7k1fv2hU9PQYDdoqAmGrwkudKtS3tnJrKg5BqLk41hyd7FZKNhjr3aw0s8yD83ot1zyd5EMJxTJtixNO/c2DqZKXaaV8f0NMDf3Y2OimNHECRycQyYcIGA/Pe0dxMAJT0MGTCOLD+zTDue9gDry91iCHVfX2Sao7JtixVn2r3UTXH1sd/As5olDUMFJBLHgAKq5DXgNIW9Tk5sEyawkIO7F3yAgMEBCTo98DhGkas1BFxWNCzrAfe6WSiSkRiJBAreb2wTJyCyv94NmU1x3TveiTVULV2N50NH65v/i4chLfeegvPPit3hso8VX9qAQINLPo3TWykVS8vgBRjzIwy/Vuhv4NDv7sfBiPFfoaGJ1IBBLoerQJJ45426mwCF7SfAIAs80mphpr8AVa0RmL3JAMEAhHy31V3Dv0+xTwxARDGTpyAVatuRM3+fecVIOxq70ev3oqYTseM9NLqYrz58quYfOkSnHQHMODzw2K1QPQFUFmQj7y8bNJEZas2nhfg6nGhpqEZiInQ8QKiA1E2eYnGGJZOGYuPXvwLsssrYJs6A81t/RA8MXAC8Oz37mVkxW+9/Bo6+t2s+0n06JvLl2HFlo/h8/vwt0VL8OzH22DkdYhS+mbjKZQ11WPV/Q/gY5cHwVAQJ7q6MbuinBkcSrWjyTMQjqDR5cLNs2eiprWNtUspjU6zmR1vt1jYyqKhp4dN0LQ6E1S+KAFG1RqosUIaI2Icdn8YD193Fa6+eB57Z+p2thyEqVd/CfzSB3Hf9jim7AnilsYg9BGSkz4NkyZ2qHcl8yyAHCkOu8DhiwucqLXvxhWhj7CqdDIMvB5PH/oQX5wwH/lmO/7WfBROoxmXlozBhoYDONnXhYenLcGR3nZ81H4SN4yexlbcT+59F/dOuQRFjiy8Vrcf5Rk5WFIyFi8c3YmgFMGXJi3Ens5GHOxpwcrqWczN/581m/BPky6GRTBg9YndmJZXhjkFFXjx6E5YrRasqp6Nvd1NqPd0YfmoKfBKYTz+8TrcN2kRu6dXju3C9PxRmFM4Gv9d+xFsBhNuGzcPW9pP4l1XHXizMT1PJEUeeAJMabtR+dbT96zmL2dok9JoI1IUeiqOE4/jklFT8O1FtyYaOI2DwAACjy/MzULcN4COf/kXeLdsgUACT+SV0BYlUC29OhUprbJZSTlOxTgyKNIzeWu90wnpiivgmTp1yOoz1fOqcwtVy6T/022pXPLp2jsXkqIk6lBW4sM9d9SirNjLQG1QdbGr3mWeZ9lN5KVKeFiUBVrC86LTYe+BfPzPy+MRCAnQEcr+zJEUX0PLT0kHIZySFC1bHQ5lP/05nEuvYHPnkOGrjN/QqQa0/fwnCNQcSLQjZGYxEEFeB8k7wE6zzpzNQgyfte3vAhBefPFF/OxnP0vJrlZDFNowAxljIkiRQSexFkq/kkMAtGqX3TEU37fabCzEoIIM9s0q6VHJKEl9EdoQg7oCkBneBE6kRO0GFV1q02K0oOYn/h4AACAASURBVEBtj/apHIQP+7ZizISxWHXTStTWHDivAGFHswu9ggUxXgc7z+O6mdV4++VXMG7RUhx2B+Ee8LEYGCHU6IAPTqOBuYF5qwk8uaA5Dl1t3ZCIk2CxwhazIBqREBH7MaYoEyVZVsR1PBp6/AiFjOjsd6Mv5sHKRfPx03u+gMPtHXjn8BH22MunTMKU3BzUP/EEdJKEih/+ENtONWHDwRqm618el7Dmv59DzqIlaNMJqMzJRlt/P8tWKMnKZMCAQgjU/5SpwESR4jG2Ypa9CX5Wq2FuTi6snIicXCe80SgaO/vRGooiSBOQFAPpDNLGh0WU6o2ozM1lHoy6zk5UZ2XjZ/ffheK8nHMGCDOu/RJOLHgQr/41hB8e9OGDIiOa7TzjA2jthGorVEArrzhlZcmQjsPGAgEnDU0od7+EBXlO/HDW1TDxAh7buxFfn7QIxdYMvFi3B1lGC66vmII/Hd+JI+4u/GLONdjX04L1TbX4pwkXQQ8O39qxDt+fsYyd89zRLaiy5+L6iql48tD78EXD+N6Mq7Cp7Ti2dTXgKxMuZtoRP9j1OttPhv25wx9hQcFoLCkei/+o3cy+nYcmXcrOqXG14u5xC9Ef9uOR7avxxEU3wWm04LlDmzC/YDQWl4zDv+5+Eza9Ad+YdgVeP3UAv9j1BgbCwRQAQTYCCTx/Wo8lvqAUeCGdRonS5pBkV/VYRdgrDozOLMDU3FE40d+B7W3HcP2EhfjdNQ+nBAgXL1qMt2o92Frvw6oZmcjPkGXNPe+8g0hHZ9qCO+kmdnX5sr9pALXHmxE5+TdIYQ9KIiLGhEJYk5+PI7TSJg2PpBCotk16L/fddx/7/0JvHZ6YksUQGpLFQOUX49JBhDxfhdXczJQ76Z5pMUW/U5j31KlTqKioQEdHB0t9Jbc+/SQvDXl/+/r6WEjHaFkBU8bvIElUVp0UCP/+WQzafvU2HoXr6DHEKf2TLQIV1V05jY2BP71eROHCpRDMjrSvJCaG0bN/C/xdA+B0SlsKQZgTeEaApDCDNUOP/IVXyWmdn6Ht71LNsba2Flu3bk2rZqi62dikq5AVCX3v3LkT9Q0NrLStLDikzMy0so9GYbaY5TxyQWB8CdWAa+NzWqOeTIhKfi+y0IgcflHdPHKOuRxWSLXRSnGaZbLiQdiG0WOrGEnxSG3NsACBmiMSmnAGij5dm4UYml3ojOqgs5nhNBpx5fhS7P7gAxRNn4XDfX64vQFZAhQ6WHqawPf3ME8BrXbJHUyDMmh2IFo5DmU52SjIyILHFwQiXnz90vFYcMlcBAJRbHhvK57+6AR6AgFI4SDMDituXXYpls+ZwYw33TcZ9Vf37IPu6d/DzOkg3X8/rpw2hYUN6B0dPHgAD/zzN2CaexGsRcWw6fWstDPxC0hWmcXcWIhG/kmSwuzfCgonnkOJMwNCRzfunF2OSxbOQiQi4r0dNdjuB3yMtKdjfIZIIIT5eQV46NorUT2qBB6vH8+sfRMnmtvwo3vvQFlBXuK1haUIVrtGQFKUFuOlB+aBAMLxuQ+g9Rk/7FTx7kobbhqrQxYTSFNc2Joc1f6ADz/ZsgYryiZgQX4Fm2c+7KjHxvq9yBXbwcV8mJ5bgUcmL4aRF/Crmg9w//iLkGu0YX1zDZwGM64qGY9XTx3AMXcXfjjjShzobcU7rcdwR/VsZlR+uOcNfHPKZSgwO/Dnul2osGXjqtKJeO7YFvjEML4xeQk+7qjD7p4mfLGa6vACP9u/Ed+ccjmMOgEv1O3E7NxRWFhQheePb2ef1N1j5uPjzjocd3diVeUs+MUwvrtzDX4y5zrYBBP+dHwrZuWV4+LCMXiy5m+w8kbcN3ER3mmpxVMH34M/Spkmmjxgre1Xl9aq5Uy8jaTvKeX3leKbO+24wWMImJXZs/HduTdidkElWrwufPX9/0ZFTgn+85qvy9kzHMdIp8RB+O1vf4ulS5eixytizf5+HGwLMm8kcR50VBhH8R6wb1/1WKlhSDXFUAWLyn3JCxSgxS2i1+1H97pHEGzagzyTFf/McTDNnAnvokXYtHkzDuzfPyT7Khkg3P+V23H/fbcyY6pm/gx2rfzc8uUH+17GZIMuLlUQLnlf4t9cHB0DPB55RsDa55FUi8EAHY4g5HkIZmMjcnNz2f9k/CmbhwAChaMKCwuZai3xDWgepp9URp1CDN3d3airq4fZdj0M9v8LUaI5gjQShgKElGEbCguq1RwffxxGxgOQvcXa8I7qmR7CXRkBgVN7nq+/FZ5ABLzRjmDAr3iYDSwkTd1pMlvARTzIySmCTpCLJmntScI7LkXQ234EoiEXsbiOhQjVUB+1ZaBsO5q/Qm0oLJ+V0KtN1dbZPo9qo862LW0/nCaUpDamuve1ZI/hqjmqMTPVmKaqWKjdp8bLEgM8xYtOfvk93d3YuWsXIykmSJAKQYiQLO1///330dBQn6hhr8ay6HlGkoWQbPQZESUmhxVoZKTiOGjPoevNsE9BpiED5EEorxrN0hyPHa09PwCBRDeCPmxt7EUzlVg1CMjJy8KSijxseOFFTL38Kpz0RphhZO5/ownWlpMItjcxFTCKRdMfYtEoHOWVCJSNYZN5XqaTGZyB3j4sqMjB9IlVTNp356E6fHyiFZKoh0mwwFBghjHPjhyHHaNzcxGlqoFeL1o9Xiz78AMIsRjeW7wUOU4HKnKyIcbi2L9vL/aufQ35iy+HragYkhhlmReZFgtb0bJSxIpwEtVYkPWQOEbYYSsrgUfE5UVvcxeuHF+IyWNKEIlKONTcjQadgRRiYRZ4tPW5oQ9F8e2rrsCV82Ymxsjxpha88rcPcftVS1BZUsReF70nWUlRJineW3AnNq59C0888URakuL0a+9Bw5wH0P6Mj5WxFe6w4fZqDiYdpcNGGQCTC92zK6DL3Y3r1z6JR6cuxdWjJrJpes2pGvxk79vgdXomFjUxswD3VS9gAOF3xz/GHaNnIV9vxRudR5Glt2BpfjU2tB1GvbcXD4+9BIc9ndjW24DriqcwlcNf1r6H+8ZejBzBgnVtNSi2ZGBJXjVebt6HATGEf6qcj119TTjU34brS6Yyj9K/HXkfD41bBAN4rG89iAkZhZifU4m/Nu1h93jrqFnsGnXeHlxdNBkRiPjFwY34zpSroAePtS37MDmzBHNzKvHsyQ/hEMy4tWI2Puo6geePb1UAQgr4rHIR1IyPdGGEtCEDuV+HbMOEIqS4xDwHP56/CoXWDERiIr656X9gMJnx9LX/zEKJVPNCJSmSvsUVV1zBmo+IcfT4ovCHSLWTT7iQ2Xwi0VyihBcZkFVUDHWDWv1EuiRjTB40Cl+/saUGf3llLdwH34AY8iLDYMQDRiNyZs5EcOlSvPvee9i7Z88wAAG47y4L7rvLzsYeAZchCxw5r0sBAxqAcFoxOnkeS1uQThdHR8COR/54B9a+OA98v5KuynqFAMJhhD0PIRyqYd+XOq9Omjge1WPGsLADLaKI9EZ9VV9fjy1btoL4XupGIl4m67UwOp5MAggcfvmYDaSDQPNtsoAPLaAont/+/e9DJSmq1X21Kr1qdV91vk+lFphKKEmrWOlzNcPj8UNnsCMYJIAgMG9IhFQTicdlMoOLepBTOArQEUAYWhlStZVcPIqe5kMQ+SwGEKLRiAwKiPQfibD+ooq9fLQLhVVzmWosbVriaiq7q5IUtfaa+pvuUQUGqhyA2hbtT6WkKIfTDYnxpCXFfiIPQipCTUrkdxYoLxXhMZn8ky5+Rg9GtReefvr37KNnL0HxJDDkl4Tykg178pSWfJ3hYnzy3+Tpa7ZzBgMIlOY4anQFAwgnjh85bwAhFA3go4ZuNHromnEYKQPAZkRbSxOyKTc3TkSyCEOmZrsd1pY6GLx9MJrN6HX1yVkgiMNSNAr+4kpYLSYWnx3weGHlOEwpycToimImoFRzshWHm/qgF+zIynZCyjVg7OgS2I0m5Dns6PIMMINuNZtR9eoriEei2HHVclbueVZ5GVt1UTGi/evXwn7RJSwzIq6AAvICURhBdd+x96OjjIooooEwDJkWSLxO5ic0umAM8CjK1kPqqQcMRqBoFDpFCZKgg96oZ6XnM8HjO8uXYenMKQmX7YmmVqx+/2PctmwxKooHY7iqB6FXdDGAQFkMMkDQpDkmSIrzMePae1A/hzwIPhgkwHKnDTeO5mBUyKvasUvP0jbQh+tf+zfMzxuFW0dPZ2Pjxbp92Nx+EgJHbwAosNixtEgWDlrfdAiLCkZjlD0b77cfh0NvxLzccmzuOInuoBd3jpmLQ33tONLfgaXFY5khXnPqAK4oHY8isxPvth1DqS0TM3JK8U7LYQRFEdeVT2GhgvqBXhZGCElRvFK3BysrZ8CuN+KD9uMYZcvClOwSvN54kAGy5WWT2TnNvj4sLR6PrqAHGxoP4rbquczrsKntKModOZiQUYQ1p/bCYTDjspLx2NfThL3djcwTpjBzTjfmSrx5MNSQznOQ7GI4LT6RUtdeCyDom8wwWXH7+IWYU1CFencXfr17PWaXjse/X/NwIkdd9SD85je/wWWXXZY0DajXHTJbpClQkExGGTz3jZdexFO//BW6aazoeGRKEr7Q14cTFgu2UgocAYph9IvpT/etdOG+GwfAJFfTRV1S4LIUiCr9UQQQQll4ZO2PsXbN1dD1aQGCHgJ3Egh/B1L0UGK1y/M6TJ82FaNHj2ZEWZvVJpMREcfJkyfxt3fehT8QHAQIVInUuAJx42MQJVJNlD0IspKiFV9eKkvCJ3sG6JEJILR+73soU9Ick70FdJGRehBSeR7ofBbq7GuBq88DCUNLuKsPQfdiFkTkFY2CTi8LOyWv1NnOWAS9LbXwRUzg+NRtEeC06jwoqJr7iTwIp/WXxoul3vfZ9s3fhYNwxjH8CQ4gN9fGjRvxpz89z7Tj1XADITdKSVPRVWK6UTMQhl21yC9fBQipgILaHukxzMmYCadgx2bXVhSVFuPmm1ehseHkeQUIWzo8aKaqZ/E4qvNyIIgUk+9EVVUF2vu8cIfD0AmE1G2wNB6DLeRjIjZtbR0IhcPQ8zro84oQKKli1RsdFjNaunphiATx8JIJGD97BvweL9a8vRUvb22CyBnAZwvQmXSYMboCTouFXbvN1YfcTCebMEe99gpIJ+zwimvhjYhMg6EgOxPvf/gRdr2xDlmzF8BeUJSYCOU5bnCmY2qUOsDf7odFZ0TEHkfMpNRs6A8iOCBi6pgC8O0nEeV4DOQUobm7jwGUzJxMwG5h+f9XVFTiy5cvRllBLtNMeOGdTdh/vA7fuetWtk/dzpakSCEGLUAw32nDSgUgpBqyHT43rn3118xrk2+hOGUcPUEfK1DFsix0OlQ4c5FptDKZ5WavCzlmG4y8AQPhAFvxFlkz0B0YYP8vLBmDU+4e9Aa9GJdVhGhMxI72OhTZMuA0WHDS3YmqjHyMcuTgUE8LpHgM47OKcLy/HcFoBJNyShkp9P2mQ5hbWMUARqffzYxohtGCuv5OmHg9KjPyEBAj6PS52e8DkSCO9rbiktIJaPf1oc3rgkVvZNel6xDZsdyZhyZPN0Kslkiq3kjiIGhZfEOReoqTU1nDZCOZLvwQh91gRqbJyrgR7V4XVoydh99c/dXEdbQkxSVLlnyC2Sf1qVTy9/hjj+Hwyy/jCKWzksdOkjA5Px+dy5ZBHDsWH7z3Hvbt25fWg0DT01emA/dNp1jkCG8x3XsY7nQuhg7RgW/VfAnrt80G55bHqvylUq2TAIzCIXBxKtKgbBzHSOS0eiVitxgV5WwNjmTwJSYxT15YzQmQ4iWIiGOV6qTyuxQqgF/8uAj3LstOe4cXUklRe9FBgECr/dPHlhYg8AYKk6TeYmKIAQR/xASMACBAqWEzwjd8wQ/73AGEVHGV5F5ioYYP3sfLf30Zp041sNxt2qIk4hOJsgk7ARQGazhpmjl9QAwFCEOvKGc8cYorksMsxzTYeQIIW1BUWoJVN6/EqboTZwAITHmcpfMxYa4hn5Pcvvq9h2Mh7AzG0SoZWaGiL82dgfygD089/Qzue+BBvHngJGq7uqG3GMEbTDDW1SJbDMFss7E8ezqHnOH6giL4ysfCaTHDxPMI+AKIRSKYV52PCWPK4fUHsetwA2oa+yHGddBZKK0vzqSMaaUvh2/iDFxQeebl+3fBxHF4e9Z8VqyJARG9gL7WZnTu2YbcWQtgys6TV27JL41WVhER8ZiIeISHQW9GRAiDU9TI6PBILI65Y0fB2tPOaj10GOxo7PSADwO8g0dGfia5Mhj4GefMwpSyErS4+7G3sRnjnJn4zm03oiT/0wcIAU1Mnjl3WRhF7kuzoIeR1zMOhTcSZJkZPIWAEAex7828noVhiAdg05sYO5wMO51DWR59QR/0Op6BDQIBVoMJZsEAXyTI3g8Zcro+eWHsBhNzLfcE3cgy2RCRJEQVdj+BCbqenlIAKR1L+TeFPmjzhAPIMtnhj4ZYRgABDUoXVJ+NgAV5J+i89EkdWqOe/I0pEPtsuAdDaA7a9pS2KNojyWmJ6hdF2hfJAIHi4sRBoNRr+nm+t2h3N1oeeQTtGzfiiNkMcrb7KRVu3jw45s1DYVERNr71Fnbs2DFEHl57HxSm+KfJNnxpkhVxxQ0tW20lFVS24MqmJW9q9g35VT146Hvg4hK6YnZ858QteHP3VOjcWg+C2gCN0KF2U4700Bx2ulJ8ckpyYmHA0n8Hb1mo4PCLHxXi3isHicTJ7+JCAgTtwu+TAoSEfZHCn3+AoMbptToIqVIDR5p7myqvkq6hZemOpK1090CDRm0r1b2rg4qIMqtXv4p169bD43YzI6sKQqhpZ2zuOI0wJY/+4ZwKqgtMFUdi96G4xWY6psKus2Fj23t4+J8fxtVXX4U1q19lWRgJ8ZYhAEA2GGRQAwE/+8jI8CaQO4mGSAqLlgMi0RAozbHZG2fGtrqsCER+be3sQVlBPnqDJGEcgcFhAWcyI7Z/F+yeXjgzsliKIeXRk0iHmJGDQOU4uRqiQuKhaw/4g4hE5QwIq0mAxUikRhL1iMGo49nKlLI81A5iz83p8IX6w6wWw4tVE0GyNzKPlEO0rwd9h/YgZ9pcGDNzUrpSKSc+JnEIunywF9iRkemA1+tHMCgT3oiHEI1JmFtRCs/BXSyP2DZ+Kk409CFDcOBkRz0cZVmoriiDyWxEUJJgc9jQ6/Ohq7MHC/MK8OhtN6JUS1IUSQfhdfQoxZpUoaRt27YPKilSiEG6FH99kEIM6T0IaiGehJsxDrQO9OKGNb9BUIwww66wMNlPbstRoHsAcR2BAXm8kbwR09JgQ1KOJ8uiSDKoYOm7tOZSNDfIaMihCmW/cjyBC7WwlTrp0atICCXpdLIgy+DSUJ7wFba2KsSktQF0//Te6V5kAql8nyq5lF0n0UYKozQSqzus2zz5jyk/WvkqdCj55CfkIT46W85hV6xnMBrG8jFz8ZsVX5Vd0TqOMesvueQSPPXUUyAPQjJ5eSShxpReRU1thHdfeglP/frXqBcEVhpdR8RnIv4G5e/RbrczgrVqWJK7i3r7sskVWDqpnPF6hljW07o7nTfl9FaT9/DxGAbiFjxTdw22bx8PnUsDQEbyDs/1GJWk+BMbvrxEVtokG6EV3EsXYki2LcnfomojzqQboNWI0AIERkBWQggJL7ImxMAJFCYZKm6UEAFUQgyqB0E7TtTfB0MMcxBTcqa1YfVUtjK5b86k66C+luS+UQn82n7W2t20Sooygz+WSPOjC6RSdEpWYKSHTt5H/6b9WiWr5LZSkRvTER7pXrQPpJJS1A9ZPU8lWBLLljIgDtUeQmNjI8KhMCOL+H3+RF2HxDemYSjLk6D8sQ0p8qQgB/XvCbCg6C9MNk2AU29Hk6Md3//RDzBq1Ch4PP1nkNHU4aV33sfafftgESUsqy6AUZAn4+b+ADbsa2RGX35GGTDQPMFbjJBI8TGig2CiSVzOQTZl2iFYzZBoVd7bC3NMhIEkbiNRSOEIc8UPkIy0I0OOF8ZiiAaCLHXu6otmITDQBUFvRJtLwsmOPlhzzXA6LAj7owiGotA7DDIfT5mLaNK7evd28DEJb8xZwDwIFG7meA59ra1o2vwBihZfBmtxESPlaDfqTipSpXeJMEQAty6IrIo8cBERUSYbLcHd1g+fL4SCAhsCvZ0QDEYUjh+LoBhHf2MPAgjB6jQii+dZWIXOyTAIcEsSeiUOc3Py8O1bb0Rp4WAWQygSwmtUzZHKPeffhY3rTicpikq551cfughEUqQQQ5vCQTDdacNNlYCBQBsjHGl0M+JAc383Vr3+OwTEsAwQ2MDlwe2qA7fpsJz/ntDQGNY6pliXnetMfH6b+gR3cUFOZX426mtaZdsNiF81BvE8G5UQZNej4lTLx87Fvy1/kFUnpQwFmi/uvfdeRqj7xje+wdLy1Ak33ZynVZQdbp6iMUFj8dU1a7Du9deRl5nJvES0UBk/fjxLD6SKoJTZRfLz2jly6DcSx+UzxuCy6WMVGfgL0n1Mk8AjmfF07aXY9nEVdH0k7nRhrjXk+WKD1Ry/fJlZo0UzGLenNxisr0eHppqjlqSotseyAzSkO609UI9JpTyokvPoHfhcLejr90CMkwaPXNuEFE6pYikDL1SVVS8il0iKPGn0DCUpqlUzdRDR23wIvqgZHG+EnoVgZMImVVOVRJGRtomDkD96DpO7Z3/TpLwml3uma9F8o603lO55mGdb0xadJwv8yS+V+oba17Z1Gkkx3etPRsWpUPJIh85I2hpJ+yrCPheUTw9OBZ9oAJFMLLkWSY1u+OwGdeJO7ziV+0CBEpT2d8ADQ1SPCaumIrcod9hiPlpg8pP/fhEv1tSA6xvAPdPLMa7QyYDAlvoubDjQiAhJyCon6KCHzWxHRKCCIHEUWnPQG/dB56AQhQ46kwFxRbUt5g8i7A+ximM0UZISGA14tsAnlTApBp4qIHoDoIjbT+/9AiLdtRDMGTjcI+Dj402IZAkw6Th4TrjYeUE+DN6kkcUFh5uOHGAAYfXE6TJAIPSg4xDqcqF9z3YUX7EMjgpSo5NJSerDEEAQeB0EbxTeLjfMeXbEHeQOl1E5L8XBtfghhUS4dQFY7UbGKo4YeSbaxHtD8PW5kNnWgCyDEZ3uAQZSS/Ny0Of1IlAxBnMnTcW3b77ugoUYUo1dlYOQ8CCwL18H7t1D4A40Up1sNrGQ1HG6leNIv6/P+3Fn+rpG+nxk8GlssI3CVouKgaoCxoOjMUchkRVj5w7hINChRKajEENdXd2wacwjvQ/1OJqnaPI+fvw4mpubmY4LTcYEQq655hpMmDCBiR9RATAiWFNKYKqNxsfdd9yGe+64TalzcSZAebZ3mugy9AZ1+P4LAl5/UQe4ODmkIbuHkuLxqbw4w3h2htzS4HHkexIEwFQVx6//1Ym7F8sr8lTf1EhCDGfy5ozE3qkeBAIITHCOilKFwzCZZZ2dSDjCAAKRFFNxEBLeAYWDQCRFSoe0WK0I+H1sjFEmRDgUhEihQYWkmAqNnevzpBtHI/GIJcYv01n+x3b+eiAOnNx4FMFeP8bdMBkG+2BVyeEuQgb758//Fa8cOoRApwvmaARV+U5ExBgaegYQ1+uhN1JKjPzh6OLEKDYi22HGvOnl6D3ZAHthMXb39jDxpLKsDHjDIWQbLejrd4OPivD4vKxaIBH3cjIc6Ox1Idtux7G6ZgyQtwhGGOPA7ZfPgcd1CmaLAy1BAdsbWqE3CND7YvD7w4gJEiLxEHR6pUoZ5XpzwC1Ha1ia48vjp0JSYuz0zMHuLriP7EfZsqtgKimWpUsBiFEJvF6JZyrTD1NbIzcsDUtlaFK8W++PIeIPw5hlhlPHwRaNshh6jyTBFxER87hQ6urA5HHjsWvPHvj8fixftgwHDxxAS0YOFsy5CI/efO0FAwip3m0CIESVEAPNiQQQ3q8Ft/8U1aVmAIjkaIcrYX3+Buf/7paoe2m1rq6AyMMVW5iPeHUROGK/DgMQ2HgURSbwo0q5n6/eIoPy2muv4YUXXmDAQBZ507HfaaVLKzoqhEXcqVQZWqqH8u577sE9d999vm4rbTtBEXj9Iw92bw2gp8WC/fujpxMLztNdUCQoO1uH+XN5RG1e3H1LHiaPSs32p0uOBCCcj1vThhhkyf2hZvJ8kBRViKTNYvhU3DVn0UHDkhRHsuof6bVG0taF9iAk3+tIvREjecZEbCoex8m3jiLQ48P4lVNgtKdeESS3STHhn/3hJfz14EHmbq+wONhKiKkhkvYBJPSLSp0IIwedBPS392JSfg6+uGgG6o/sQMn4+Xh+7yFYDHp8YcZkhAJe5GYX4oM9+5Bj0qOppQXFZeVo7/eyMEJrWxPsGXn4z7UbcbynH05jBoxxDg/eeAnCriMw2HOws96P/XVt6Pf4WFGlaFxEGEGWP65jho3cbTHojHrccrI2ARDIg8CEmqiQVncH+g7txajFV8BWWY4oYhB9EjL0FgzEgiwzIrGlWYDIMXSZrFkCDkvyM2G3GPFaXSsa/UHopSiEmv0wixF44wLTJcgyCAjyOkgTpmJ+9Xg8esun70G47tVfIzAMQFBTI9Ol7o5k7P3jmMEeoO9QDQ/IAKEA8epCcDF5jAWiodNIitr+G8k8NdL+1rbV3t6OEydODDE0aqyXAX4FNAy3XiOFQvqftnNdVY50zguFokxrxO83oLGJNB3o29O4/eS7GGG6Z6oeU5g2sTjsdh0qy3WIiiE47FRsT/YnfRY8CBLzqZ6+hj4TQEj2IHySLIZzfdcpe13Di1H/PpzdTQglJYtSJAslUSNqPI5iGiqq1fINaJJLJXCRSswiXVtqDE51zdGKUhvbVdtSj1PvSxtXUfkTKk+B2lJ5EFqxJorH0IepHpdSnEPhYgzXFt1DQsxCxzMPgq/Li3ErJ8Hs/zYhSAAAIABJREFUGMyRHe6+SHjlp//1Al7augOF40bj9zfNhgNUC9UIMRzEz985iROdEqJcDH4LZefGEXN7EfP4kZGbiZCZZ9K5A5EoeCmGUruNiXrwniB6+j3g4jH4/AGmtR+R4kwYKRAMsnSk5m4XkwCOR+OwCXqUFmQiwlN5IQ4BXxThiA4D3gHE4iFWN4EQNW8xyWJUvjAsehvCFg53dJ6AEI9jzex5LNc7HhUR6fMg0NmB3gO7kDdrAXKrqyBkWOHpDaHY7ERXxAvBfjbyohwyQyE4mk6Bi4QQGFUFFwSEowEIh/ZB5/cjojcxrQVjXGSeF0yZhbljxuPRm69jJEU1IyUUDeG1PuIgyNUc0wklidIipOIgqGmO9C6SxVnI+9Hc34Ob1j81LEBQJ8KRGp1/HDd8DwwBWikAQjAawvKx8xIcBPJW0abOESrvSh0jn3TO085TKtnsTIBEBQzaCZx+11aUTRa80fIgtM9DbZ2POY/SFImnJPeXwoOi+gusHo3KpYmxmDrF6eWN7AERoGODYR+2j7KV4kPaohR0uk81Xp5S3CgeH5aDoL6zkQglae2B2l9aoaSzyWKIn0EoiTgI/qh5BGmOc85aKCn5XY9EKIn6WNvPqlBSqrYSQklqIQ0t0Y8GnZYMqKpmqTF7GnzpztMqQWkVndQJMfm84dpKLh1NbWizGEZyD6nYmqor8WzbGo4QQn1T99ZR+LoJIEyByS4bUtrUFYM2W0TtG7K6P332L3hpxy6MmTQFT8/xINe9EzHBhHBMjx8cHYV32wTofP0w6CNwFlHmggBPRy8kiwF6pgEgi4uUO+yYX5iPTIMeUX8QOmLHcwrjXHGVqUz1uvYubDp4EkFRQCgcwsXTqzCzugrNvb2sPgDphe88dhJ2k4Gt4A8cr4fBZgapoUVJrRFGjC+qwPH+LnzRfQJ6Dlg3byELMTDZ5FAY7tqj6Nm7Azkz5sGcm4fsnCzEnFZGOtQbacJRhXVGYP5YVoQLbRvWI9Lnwpg77oQ1qwD9zadQ7e/H/Jmz8e7778Ht8eCLt9+BTZs+QIPFgYvmLsSjq65BWWF+4iIhJYvBJfUNUVLUZjHElCyGlx9ccJpQklYHIbmMKgGEFk8vblz7W5Z+yBQi2cClEMMhcPsbWYiBJtBgMMBITxfMjzuCbv38HyJn/ZByqJ7K6dI/hvEgPLniodMq2CbPEeqcpK7u081d6nnna86j62qJZec6T6W6r3NtK92cl6pvUjHiU815yUQ8LfFT7fvkLAYiKbZphJJS2RaVqa8l4iXbsuTz6N1q92k5CIlkH83qm+ZPi15iHAQqxc7kkjVkQLWfSUlRFkoyMpJi8qqdLbRJKIkfQEEVkRSVaSKpLW0/pyLFnul51OumKvesLsLVY4YoMH7eOAipXGSpJreRhCvUD/58unfpuucaYvjXZ/+Cv+zcjcKJYzCnvQZZ7ibEOR5BkcPB/EmIjxqNro8/hmfHTlz9wJfRIZhx5GQTOKcVepvM/B1lteCuqRMxcVQJQ+iJtMpU3kBwrFTve7sOYcOOEzjV2YVLZlbhh3fcjJbOHpiNBjT29eGdgzWsoFKny41Wl4utJERvgBEbdVYzoqIOtpIsrKrZCz4mMoAgEkGSaioIArxU0ezdvyF76hymg0AfXHZuFgLs77yciTFSKgwRMN396Nj4JkKuPpRddwMcRaXo62yDo+E4nAYDuj1eVrWwMCsTvnAIvooxWDB5Or5FHoRPXQfhVzJAoJBLgoMwCBAom4ZIS8O5lj//xvvCP4EamSLpWovVlgYgxBWS4lChpAt/d5/sCp/1Oe+TPd3ZnX0hOQham0FZDP1uLzP+lHVANoKMdCKdkKSXERyWpMjsixRGT3MtwnEb4pyggFJZPVaVA6BFgjHmYlLLnysOwtm9un8crQKOTwIQXty1G+aqUpSfqEV5yItoHHB5gugaMxnTF8zGwK6d2PjiapQsWYqw1YlQNApraT44IvvF4lhSkI8vzJsBq90ix/DIKjE5YxqsJEYsC5owpTPyEAA41dqB3739MfbWNWHp5LG4evYMnOroZsWvSBnvQF09mlu70NzVI2cWwMjihJydZ54Lc342YjyH67dsAS9JWDOLigLpGLGR7L63uRktm99DzvS5MNgzZdV4MQ4uxoE38rBYrOAdJsTMwpkVZDkOxbE4ivp6gHAQzSYnollZ6OzphuHYIXDufoTNdvaMxrAPnMOB+NRZmF9efUE5CKlGv0xSTAUQBkmKBBCoGAy5XGnFa6D00dRShGf3gcnKNco5qYkdichqqrR5eaAMc021ul36o+SzNW2c1twZ+NEjSCBih5AkR0jOjCH39v82gHB2L/5/99EXEiBoe45qMQz4gjBYMjHg7meedKPJxBZU9HlabHZIQRerxSCcQUmRajHAmAtR4hAOh+RCT0TeDgbY75RiwwXaUFg977MLEFKRc6jDziWd8FzaUjkNyXUXkuNx6QQhVLKXaqRTxfFG2lbyPaTqh+R9THRFmdgJIPh7fJhw4xQYHYMkxXQEIWqLXFaqB6FoUjWmNh2CpesUc9WHYzo0Vs6EflQlBrZtQ9O2bbji9tvQEI6jvqMHxmwnBJuVvNdYWpCP2+bPgMVqZkVl4mIEnGBggEAKh2SVRgod6Y0QzFZGJGzq7MZ/7diLnQdPIMtsxsRRRXA1t0BvtyEKHgajAZ09fWhq6YCBN8JqcoI38PBzAZjzM2Bw2pkH4Ibt28CJUbw7dSam5WbAYbcy7kdLXQM2bnwL2QsWQW+yI+oLgAvp4TSZ0DvgRZbdDn2mGWKeiWVDnAkllPACplMp2Xgce1z9GBD06GltQklPO8aWl2N/TQ3jVyy+5BIcPX4MbVl5WDBzHh5dde1QoaRzqOaYTmpZff/a76Xd24/rV6skRa0H4XSAQLoUOhOP4qVlMFqNMmBItvHJNlvNDWSIi8SqVPwnK+mx8cb0mVTRr8GfclOa45R/J/YpF1crarL7UdqST6PqWjRByOm9KdtSQQodr9RgGHKceq5y/4l7UmfqlF6voQaQEziIzRFET8i1VoYHCENJiucyT6nzy5lSxYb71tVzPytz3kj7Id2cN5yNGEk/sPlPmT+H7RtNFoNaiyFV+9TWmexIuvNUOyKHGAYQ40jjYKhQEhtopDXDR4etxcA4EaqSItNBkAtYyUV7BtEvqcdaOPeIazGo/fVJ7NSZxqD6rk8jKaonJpMU6YTzWc0xlWBDMuFRS+pT72ukJEVtXEUlPKpxKLWtZJIivTxqP5koqY1fpWpLPY/l7PM8CzEQSXH8yskwOeSc3uTz1H1qShYZcAIIf9q+E1PmzsaPyzph6tnFSIoSZ8R/ucZge58B4c52WMNejBo7Bj7oUN/YirBfgt6ZBcGqw7gcK+6YOgnjK0rlcUgggdxjRCylABczwORB4KET9Cy1akt9I17YeRD9p/rg8wVwzdIpqNm4Afa8AkSc+fAFIwgLOnS19qM4Ix+9PjeTXQYPmHIVgIA4btixjQYJ9s+fjxVlGbAbyChyONHQgv94+Q1kLL4MJkcWQj39kLwxGDkevoAfVosZGcXZgMPAJIYTOfHKNyQXgmY9JpNjAxGYfHFZmrnAAvAc3F2dyGqpR5HTiZbeXvZc4yvK0drRCU/5aMybPIORFFUOArUTioTxWv/rCZKiqqS4det26PkaQHockiKU9EoKoSQtSTGZNEa33NzfpSEppg8xkAeBAQQzj4obq2FxyjUlEgBBIxLAflUMp2o/mX1VVBaHGH7ap5N5KWw/E/JSjbryu0YMTAYScnop+6Ex6ipgSd6XyvCr4mJDrsvAgAaQKO0njlEnTK0gQioPQhJo4PQcosfCiNQE2dgeqQfhyeUPyvwpCsMpwD7dnJcsLJOKmK0q22nbomfTCh9dyDkvFUkx1fx5vuc8LeHtk5K8tSTFlG1pSIpqNcdk8jn1+UhIiiqnQuUN0Hs7V5IieFn5MVm8j/EGhgglnalYk0xSVMMZWjuV3M8jreaobUu1U8mEfpWkmGrsfu6qOZ6NB+FMXgUaJGoHquuSkaLPZG+ElqHMPAjdcpqjKcmDkM6zQfMeAYTnt+3AzHkz8W9Ly2GJdiPOmyBGovjJe6042s1BjEcQMktMoZAyBgJdLgQ9IgRHJgwZAgxGDtVmC2YV5LEaCwzFpqkSR3Nya78b29o70Ob2weCJIxCO4upF43Fw/WrYC4sQcpTgaH0bDJkmRH0RmEnDXwwyY0YzciqAsHnGHFxcXoxsuxXhqIjmhga8+MoryLlsGWyFRYgO+BDu9UAMRuS69jodLHSvTNhJ/kC0ucfs38oLIqWxUDiKeACs9HBOVTaioTC8fByx5mbw/gBs5SWIkJQtCZIYjNBl52FeUQkeveX6JA8CSS1vQI/oYlkMw1dznDes1LL6/od4EAZcrJqjnOY4MoBQfn0VLA653K0WICScBfJyPbFyZ8ac/iMPu1opUfEYMECgU4yyapxpH0tXU8w4AxbqvxRgoAIK9S/UROK8od6CoWBAOV+9liocrbk3FYSo3o2EP0AV8U8GCMkKSqkAwvEQIodk79iZAQKlOc4HkRTpNrXS56lW9OlWtmeaW85nW5/1Oe9Mq9GReHOTvx86R43Rax1KiWqOjz8OY0XFICdAUQakY1O1NZJ70Pbz2WQxUDXHdN5ptZrjSNMc1eWRdh5JNQaT+2YkYyRd3wzX1ueuWNNQB+Nn7180UBgHgQDCTWengyCHGHahdMJo5OmoYE7CZ4xunxduH1VJ48Db5FLBZp0OgQ4XEz6ylctljKmGAxtQEmn7AxG3F1IoTDlSpxXRoTYiVFNBqWVOWRChcAQ3LpyOg2tfhTW/CELxRLS1utEPL2JUF53c39GY3B5PAIGAiRpi2ApdTMLrk2ZiclY2Ors6keGwI+Dux/tvrkfFNdfCUkiiNXH4iADk9sJCqncWE0ufNBsMCEUjEGMxBizMBj0rgBWMRCCS8qOOg8VoZARE0l5gRHXy2pDgkMmAgaZOBjRyygroblk7JHGsi0QxKzOH1WL49Is1qRwERQI4KYtB5SCoHoRkgKBNPZc99oNGOLH6Zu5+JcTACuacHmJQQw6JsINSwEh2GAxKig9d0WvaUkIeMrhQzkkRdjitLW2oQ72OCnK0Er6fMkDQVnP87M0i/7ijdD3waXEQzgYg/KOa4z/G64h74JMChJd27Ya1ohjhcBQ6fnD5RNX6EiA5JnMWLFSBsdMFvzcAQ7adcQEY8mSxLwlh1wDCbi9bmZOQUUIqVS20ozrueR0LP5DLnvKRb7hoJg68uRaOomKIORU40djFQgqSPwDBZkEsFJYXsTwH3mKGOT8LnMmI67dtQTwSwfsz5uGrl8zD4YP7UZSXA7cviN/+/vdYcu+9yCwpQzAcxrHOTswqLAIfAyKBILr73cjJcLIqhZ6gH829LtipCicHtLn64bBa4PH7MWtsFYyksw6gxzOA2sYWFGdnYkJhPg7WN8Ga6UBhSQHrA3cggP5AkN3vaKMF3/nCyk8fILzyq8FiTUOUFOU0x3QAgXl9VDHJpNi/bMSVlb8mfCDzATShAzK6LMSg8hAU4HBa6EAGF9qQgManIAMCJrc7eE2Vg6D1ULDzFW9BwrNAIEINV2iXgvQInxpAKNAIJZ1ezXHEH/c/Dvy798DfAyCkS3M0C+mllhMe6aRyz8yjq3yz6u+feSXFVO6w8+kiO59tjcSVol7vTG7Az1yI4bm/4MWdu2DPKYYpxsNvjIA36mT3FXNRK3oKgRj0UR46Sxz+9g74vSJMMT1iGXpYSjMRj0oIuTzQBcLIsFsQ9HgQ9XjYmCX9AlN2DkSOg8cXZIJJA5Ewky0mYSMxEEdJZi66+jtYWIHT6VmVybgoQUcGzUcqiiSOAoihCASrCXqbBTqHFTcd3MN0EF4bMwX5JhPcXAwWKkjS0YFDWzdj0g0rYS0sQkSMwuMLwBihGDAPs8DDaLMg6hchSHqI8RhCXABGi5Fdy+/xMS+BpONgIrBDRapMBlZDIhAMAXoB+RYLGhuaEbeaYXDaWKiC3PqU5UEhiLnZeXj01hs+1RBD24ALN6z+NwTUao5nARDYONd4C5iRVjkCqss+xb4hHoAhcX5N+CBBXFQMusLxUOCFbOQTdSUV4KA1/Crg0HgQEvyCVGTGZLLhp+5BSAYIc/Hkiq/+I8SgWLFPGlb93xxiiMb1sFHGghhlvCazhQp5Sazgn1qLYaQhBp3eBKvNBp/XyxZyJosFoWAQYiScqMXwmQwxaAkhZyLspCKlqEpddG4qEYd0KoZnIv/8/0ZS/NlzL+CFnbtgyy2GBTx8Qhg8re5FcqXHYIiRJjqHmD8GfUyAaNHB3dqGQL+I0tw89CIEy6hMSMEw/J19yBF4zJpYhfp9B+E6foxNB4LBgMp58xHUG7C/oRWZdivTOBBZQBaIhXgUZWShM+iDThcE5+oBTwDFaIBE5aqJ5yjwiJEENEks6wWQii2Vgr65oxkGkx6vllYiEhFZRUlRlOBtboWr4RgKps6AJSMLOkEGO9EgpfyYIZCIUFRE2C8iOy8HPq+fyUQLDgt0eh6RXg/zVIBkWH1BSJEohAwbJH8IRk7HRJfidM6AX86oKMhHzGKRyZgUYohKmJuVi0dvu+FTJSk29Xdh1bqnzhogmO2UgUIKdJpVfYIPoMlI0GYPaDkCWlKiyjdQ20qs5jWAQcmA0IKLoaEI2YOQCC+o4EHCEI6D6kFIZDtoPQYjIR8yBKtZpKbKYkjFQThxJg5CCoCw/KF/kBSVUNEnIWb/bycpUrEmWTk4luAZMEdZLJYACCMhKZKSIidQerguIcjEiOPElVKqOZJQ0meSpKjGFLXECK0bJPGdj1DHmc4927bOxotB96NN8RhRigxbjcma5wn3j0IES973SdJHqO1zSXMk8t2Pf/8nvLpvH2wVxZDCIssS4IKAOW6Ct/sUuLpaFvun+LvRYsPUefNhMVrgcvlw1D2AqF0HvVEPKRhCyONHntGAORNHo25fDXqOHmXKhrzRiKqL5iNkseJAa6dMPiMeAtEKINd+MJqJMBhDpL0ZzoFuzJs1G03NTXB7+rH40svQ1t6K+vo6TJ48lVWm++CDdzFp8nRc2d6KY0dqUTNzNiZNmYbmpkacOHkc1VVj8M47byEvLx/z51+EoqJibP7wA6Z/MHv2XNTXnURXZwdmzJzFOBFbt36EGdNn/j/23gNMrqNKG347h+menINGWbKC5WzLONvgHMAsJpoFGwO7wMcuhp9vYRfYb7ENZm1Y9lvikr5dvBgHOYAcZRsH2XKSJdmycprRaHLu6Xz/59S91VNdU7e7pqdnNLJnnkePpDu3zq06VXXq1Km33oPyigq88vIm1NTU4rjjVmD7ju04sG8vzj7rXIyMjuDNN7fi+NUnoLqmBk9ueByNDU2oqKzAa339iM5rhYOOKKjPyUGoVkUQ4rin98HcIEXXTUinzsddn88NUlRecxzqwzX3/OukHITWqxbCzxwEM/1g5nhAAP4xvIEZ+M8cKWThEVQYAS6LOQPSbQIRpmjNk8yxgBgtILni8QQ5DRIIMjO5sq5gSscJuhEEGZfAbzUIjgRdc0zsmoyDwHMxfHEC1/9M2Dwzijeea2Cy4DnRduWLkNpFbmX7qWuvxbrTv1VjvliylOvBjF9zHIROLgaKINjpJnPNMe7XoFo+PXOHKxdIket+KutUvjHI2zMHUizyqVoGgzDJZE2Udvqrd/4C67e/hbLFLQxDQKyApS4vXA4PundsQ9vjj8DtITIhA1XV1fjghz6KBa3zsWN/Jx7auxdGhZ/t5CkUFukdRKXDiVNOXI7dm15H/+7djNzI5fFi/qknI1ZSgpff3Adf0Gt6tXED1b4KROIRVC2vRYIStWzZAlfHfsxvbUV/fz+i0TEsWrQEg4OD6O3rQUN9A7smtnv3TtQ3NOPy7i50HzmMZxcuRl1jEwb6+9Dd043ysgq8+toraKivx+LFSxAOl2LPnl3weL1oaZmH3p4eDA8Po7llHsu5vm/fXjQ3tSDgD+DgoQMIl5airqYWnV2d6O/vxYIFi1nK7s6uI2hoaEQwEMCePXtQWlaGgNeHtv4+JE84CY6qmoyDcEZ1HYsgzCxIsR9X3f2DSWEQ5l21gDkInO50At7AOnbIxghYtxikhZ4dFYjXHPkVRo43yEQoJnIZiBGEDN6ARp7IZ8AjCGKkgP+7GA6CfM3RzkHQjiBYTIpLz8APr/xikWf+nLiZ0MDRwCAUkqwp48hJGASVjmY9BmEmOlb2LFXf1H1H9tamW9Zk9DMVB+HmO36OR97ejrIlLTCSSVy2eCEuW7IIXn8AT2x4Gj/50Y/g9XhAEXlXqBSN514Av68Ug8PDcIX8iAa8cKUNJJMJFqaPd/XDT8BFN9GEOhhYkUK4Do8HI4eHUeUKoWu4F966IGM2NOIulId9cDeVw0E4htffQHz/DvY9+ccE2FDYzYzmUCaB9/f3gzIr3F9eDsr/RpcT6XeUypbS6DY1NSEQCChphWV5HA3vYEi2zN0+tvsSdy5815epHx19+AJwnHYGUFPLwJfUljNr6vDVj3xg5qmWGUgxJl1zJKIkNUix+ar5CIT8jDY7szATOFC8epiFEbCiDCIewAw7WKQs0uIvH0XwCIF4NVH8Fv89AymaEYSMzhkIUhoZGscCme6ccZDizDoIuvZM3C3a2bLZbPMmYx+n+m6hDoJuX3A9T/UWQ2a+cqIkzQiCimpZp+5T1atd+blkTRR2txJjUEfoJH6ajmRNlO6ZOwjhxiY4Imlcc8piXLtmNQKBEDY8/ST+5bvfhcfjhouu9oVLsfCci1BXXoPB3iG0jY0g3VSJSDSBIN1ycBkY7R9CYmgUwfkNcAW87BiBrfVOYLR9AOERJ0Z9CfhbKpBkZ/txlr9gAAb8xDeweQsSB8hBUHgI0ohKOxzMQSC8wrqKCuYwUCkyfqOjo8xBaGxsRDBo3hmeth+S7fPBcepaGDU18LtcKIELS/1Bds1xxpM13ffDSTkITVe0sgRfdMTALhlytkLOXsivJcrMhBkHgV1yNHUsghkzRwfWjQXhKqR4YJFxLASAoxhByMIIHHMOAsCyOS49A3de8YVZm6yJ30sX8WD078naKZJTLFmzJlnT7t1o/+Y3wZkUpz1ZE8wbU/TDSRDZv+mauXWLQS9Zk58xKeaOIMzSZE0q1qpipntWsV29E9M9M9Clw1lQumey71+904wgVNS0oMzlxdqldbju1DUI+Evw5FMbcMutt8Dr9TJgS3VtDT72ieuxfPFibN/Tgf/e+BocC6qRHDAQpgiBM4LRyCjiAyMobaiB3+9FNJlEKpFi9MqUoTU2EoXb62YRBUTj8NORRkkAfU7CPTgQ3fzGMe0gpKtrEPJ4EHK6MN/jx9cpgjDT6Z7X/QgRHkEg6+CmbI72EYSmK1rgDXEHQbhlwHbuFv9AFpGRhUTgO3yOTmAOAmEEBJ4DdjFCpF/mzIkWtoBjF3gEQnRCVDwFx4qDsLgeDlIEDIwlYsxBuIOyOVpMinzXOB02T05Lz0F9/IydvlmMFPcqJsVipriXAeNUf84MyR0XqgNn+OM6FcuJeqbyHNyukkXlJrDhTiHds8yGmy/d83DvQQwPj8EdKMPI0CAj4KJMoWORCNv5hEKlSEZ6Ud04D8iR7hlGAt0HtsIRqAUlbI1FrVwMDisXg5/A1Gk4xtpYLgYCKdKPmBlUxWAs65m3Z1rSPdvt5lSAk3zhsKnI0gmlTAVIJNdNV5bObpfXfapHDI++vR2h1makowl88IRl+MDKFfAHQ3j8ySfx/du/x44YWNi8tBSVZ5yNitJqJMdiSAc9GPI5Ge1ywOFEypHA6MgoIv1DOHXlEly8dAHWbaIcBVHUuB14+7VN7CbCkpNOQyQYhN/rw5VrVuLJrW9jazyKUrebHTEcyxEE1NRkHTFMJ1GSaux2jBAGgfMgWPF0RpS0DY7N6iOGhsvJQfCyemciAVKugyxcAncILMCg6TtYNx0kJkVWTkGhLDoNGUIlS25m7BfqDPDt1nTeYsjHpCg4CJFEDJfnwCDM2Twda8d31NlgdHOXPfGZjkRVOdUznSMGXVmq9YCvb+PZHINIxGMmIZvLxW5lMcZOtxseYww1ja1QESXxOqQJg3BwK6IIEx1dFjskj1bTtUl/ugf1i9XJmgptj0rvk5U1B1LUGb2TeCfjIEySSZFAihkMwuIW4gvFCXU1WFNbB4fTi62vbsKGu/6LDUwKP/srKnDiJZejoaYBhzt60YYkBv1mOlJ29S8Wx+jQCCIDIzhxaSM+vqwaP39uF9y+EswLeLDxT+tYzGzFZVchVVUDZzKOC6tKsKGtD1vTaZQ6nYht5hiEY/OIgRwE2kXTLYajB1IUiJLIspCDsME+gtBwRTO8IZ91xJCNPcgs8Kr8CRmeAu4gUJ55M0NkhifR7vaDeLOBL+hsuycM/FkbQQAS5CC8kYNqeRIOwiSm+tyrR0EDOg5CMapFGISe3kGkQdlVJ0qkORVwp2zTPfMSzEE4tA0jcR/g9FlUNqajnuG1SSUzPAjHVLrnOW9af6gVK4IwDlJMwQUHvAkXAvCj++B2jG16hhEdkcdZXl2NK9//QSxoacWB9j5saG9Df6mbyO6Yg0BcASN9gxjpHcTpy1vx6feswn++uB2xVBrNDgMbH7yPHTUsO/9ixEJlKC0N4gPLFuDRfYfx3KF+lHociL19bGMQsh2E2mmlWraLIFx99+3WNcc8EQTKQOd1onRlOVwe4pkYpzTmo5CTEWUxE1qsmHzDn4UnsBb18SRJ1uovsCbyXZ/+SJ9lbzodSPckkGxPsIopczFkOQhRXL50re0thjmbp9+/k92N5pKsK0vHQdCVlSuCUAyQIgNUF+EWQ6HtKUoEIZ1OG1QBMUMZCeZnR2I2Mo4b4PdpkDs2AAAgAElEQVQvVeVUz8TzEV5pWZaKYMmOdIkZAjfh5c0fnr2Lh4dU5VTtkc92qO7i2Q7JtpNF78p1YOeLTpcSgyDqlJ+98WckS8QghFuakIok4CxxwZEAXHEnEojAGOxh7U3FabvoRnlTHWpCIcRdDgzGY4ikzeRT3EEY7h3A8IEjmNdYi2UtjdgbjSBY4kfVWBRvvbyJtW3p6jWIuLxIlYawZnErthw4gpG+JJxGEoM7X0O6bdcxC1IUHYTTKqvxtQ9/AC0NtZlxE41HcW//Q+hJ9+Gmuk9i/bo/43vf+x7EbI5JK5vjHxXZHP3Xh/DBhYDXMXEM0oJ9sL8Lf/UAYRAoWRODbJoRBMURAz/uYpVjGTf1DHXOV1nGK8spEMVNQr5eLWbPW263B8GSkMk1QAReZ9XDyMIgRHHZsrW44zITg2CygppbRB2bp7IH023zxCyDuWyeDEicMZsngLxl+6kiu1MBHunaMq01fG3huDjCXPEf8nfH9uxBxze/iZZbb4V/wQJmr+X1gGRROXk9ENcyO9AlyaL36Iihrz8/D0JNQyvLuCuvB1QvMZsjESUhD0ixbhGBFMcxCOJayY842Gy28B/EQcN/cgHnOUaEr5UyQSHVVZTFMwyzdYq8A7ZAUWIbq6P5wkjPxWd2Gbeo8iLxwnTKklGrfGKL9eTtEetFdVK1h8qL6GC57lSGe3DigFPJ4sQlZjZHSvdM2RzNdM+iTmV9sSt+AP7+jp/hoTffRFVNK2p8JTiY6IM3TLwHFrmKk5wiA85hoMIVRG9qEKUAhkZSSJSk4fUS45eR5SAMHehEScCDUmIbLAsjmTYQCIfgLy1hoDcaHHTjwBePo5SyQxpA+1gaFV4XUjveRGzv20ilEnC53GzAExcC/ZsGD5Wl7/n9fsSSCbx/YAABlwf3hMMYS8ThdrnY7/r7+9DV1c2uOdLko2uYBPgxB3oMZNSpD8hhI1vt9frYv+n3NNE5+IneofJkAEhn9Dt6jyIqJI/+TiaS8IVCcJ7xHnbNkR8xnF5Vw645zqsfdxBiKcrmSERJfZlsjrfddhteeGEj3E5K93wLDOdNSKXPw/98fu3ksjlSpsyhHrz/3jvGeRDYYCMH4c0sDEIkMmqbcXP2LL3HRk08Hq/kINQJDgKQwSBc8UWGwZFJ0uZs3jgQViRisrOfjKnUIp/LtY7ks8W0KInAPJLFU2jzkUd2MJPN8bbb4Js/n9kGuc9UslRrEskV+1+k3hcjCHSdm37Mq9iW5+5wZG4xONymjVfJkrM5irTW/N8iD4LlH0yQJa8Zsm5IllwH1TMdPYs6PeYwCKpwi8p0Ffs9XfNI3921nrI5jjIHwRce9/JkGTTUent78corr6KzqxsPP/cydnR1whsKw4gacAQBJ50ZJBOZHSXtddJxA4gbcFSWIBCuQyhYhrb4MDwVHna1jUcQIj29SO1vx9mnHY8r167G1rZuPNfZhyO0kFIUIk1Xp1LwjY7ipNoqvG/FfLzZ1oNnhiOIxlMYfuV1uI7sx6oVK9HZeQSDQwM4c+056O7uZCyJS5cth8ftwQsbn8Oy41bi0s5O7N35NjatWInlK1ejr7cHmze/hvnzF+LlVzahtqYGa9aciNqaOmx88XnGibDm+BNx8OB+dHV3MWZGGsCvvroJq1atQShUgjfe2Izy8gosX34cDhzYj7379uC0U8/A2FgEO3Zsx9Klx6G6uhovvbSR/V1dVYNtRzowumgJHGXlAlFS7VHgQRBBitZBpuQgmFErcnJMUOLcT+EaIA2Ts5mJ7LEIguAgGOQgmOmejyWiJF1bpqu5YsvT/W4x3tM5Yij0O6JeuINAVMvBkhK2SaL8C5Q/gUjsKD9N0JMbg8A2lwIPgsPjZ+yxEUpDT7kY/AG24Uom4scmBqFQRb+Ty3GvjN8xnrDoGwb2PLoT0Z4IFl2xDJ7QxLuv5uDwo+PIEfz6t7/Dgw8+jAShY11uGOkUXE4zosBumVmZ+zLfYSh001v1hcLw+IIYI2fhpFVIhmjwpllCI/T2oyUxhtMXzkNrazN8Hg9LBd0bj+O5jj681R6Bh1IsR47g7NY6LFkwD0G/n0W3h5NJvNk7hCefeQmRtn1obWhE38AgxiKjWHXiCRgYHkRPdzejTKZows5db6O2vgFXt7eju+MwnlmxEg3NLRgaGsThQwdRFgpj22uvora1FQuXLEN5WTl2797BogEt8+aju7uLJTBpbWoBgTX3HdqPxtp6BIMhtB0+BK/Hi+bGJvQODaDrSAcWti5EPJ3E4cOH0VBdh7LKcuzetwclXj/KK6twKBBArKo6gy06eiDFAVx19/dZNIUdMWSSNY1HEPjOhP6ecxCmZjnYyYnIsfEOcRCmppWjX5pFAwgga0WqCV9DfcVI31QsbDmqPJ0OgvhZ0UHwUR4aljOBrqR6WeSJNjKTzeZIuRjM6GiM2QKP28s2B+O5GE7HrAQp8jC6zO1Mz3VyHhTKCa4ql0+WXSilEFnMKFvXcuhvfg+azmOGhobQ3t7OSH7oz9jYGCKRCGMFpDrQ/+mP/EOhn2C7F84xoKO8Byl3Ouv4xQwDOfCRj3wUz7/wEn7ys5+z0JrT6aKgALsTa+p84nLBogeW00Bnp0GfD04jjb7eXvhPPhXO1vlIOQFvKoWm3h6cu6QVCxbMY21kzHwUsne5MJZM4aE9vTi0dy/OaSrF6uWLzVC+9R4lT0rDgafe3ocntu3CYM8QqkqqEIlFEG4thxE2ucczd4k9HiTSaXzg1Zfhczhwz4knI24dWZXDhZrRYWx5fgPOvPJKDJeUY0dnt3lGSDJSSdZ2L92a6BlA1GEgWF2BkYNHALcLJTUViPYNssROoeY6lqBprG8Q/poKRhg12tHDkjr5K8sQ6+hFsCwMZ3UFDJeLTeqAz4tShwtL/CX4/yweBN5nsZSZi6En2YvP1F+PR9attzAIL0hHDOdbRwyfwp7TPo+2n43AmwIC14dw7SLCfKh56Q+zXAw/YGFtyiypchCY0WSJmebcg2IsZezclx+Vig4CZRQDjyAQ1fKX2LEOYxe1flR2kOZ6IbalmLKKafNkWbye+ezuZNojryNRulE1FmfO/+BQBIlkkul00bx6BANmhNVOz1mybI4YxLpry8qTm0c+YhCP0FmFhSMGu1wMZsPi7BbDqMWkKEYp+L/FIwbdbI7y2my3hosbkEJ0w44Y7MCA9Jx2eVw5KsIGEdzIUJvkaaVSGRKMrIWEQA/WOQ6dX+tkc+RkGbwOHJQiEpBwkCIfTEqSjVSK1Y3Or7u7u9HT08MW/pNPPhn79u3Dk08+ia6uLtber33ta/jlL3+JdevWZRwDKkd/KM8BdyY4mCPLsBkG3jv/AlQFKvDHbesQSWU7EWZHpvH1r/9vjERieOrpZ1g0gfkGDiec5kX0vLaSbjOQN0rebPuBfQgsWgFXywK4a8oQ8Llxlt+DxRUhOFxONDc1mbkLOrvYwlxfXYVdg6N4actbeN+KhSxcRuF5qkdfXz/Tw+KFC9AbS+DeLbuxfX8Xyp0liPmdKKnxw10SRMxpwO/2wOc2c0MQk+JlzzwNZzqFR845H2knawnCyTTW+jx4dN1d+ORnbsChQCWe2LOPrZWjhDOwHKGw2wPPcBRjDgPeijDG2rrh9LrhrSxFjK4bxRMINtUiPjSCxOAo/LWVzMBHO3vhqyiFq7SEOQjhijBGXIQeTiLs8VqRGIM5CF//6LVZ2RxjiRju6XsQvel+5iCsv38iSDFlgRTvVoAUuYNAX5HHM/Xhwb4ufJBAijkcBHaGy0Byufs8/4iQhozGGMo7yGbiBQ2WTrEauS/cmpE3vgiaIEXriEFyECjdMznNTpczswnKR5TEDazItprP5tkRJXFZsv0UbddUbZ7cHvom2Uqyk/wYhoMBZbImes7foXrkI7sT22OuGWxpgmGkMBoZw0gkjrFoDEe6BxBLJJhzf+KKRQiV0Pm9gVgszr4nki5NIJEyDIZBOExMirfeCp8EUuRri+56IGIXqKwIBp3MLQYjB1GSw0gwHgQdkCLP5kia0yVK4mNkMkRJ4rpL443KiqBOJUhRxyORvbzJeCSyJyOfg/EdFG8wva/7TAR+5Co3MDCAH//4x7j//vuZc0Dl7rvvPjz11FP4zne+wxbRyspKbN68GX/zN3+De++9l6E7xTrls5k0Ly5ZdBGqglX44/b7EU+ZKFvxh8B0y5YtR3VNA8ujwAY2++OEk4FN8i8HNMnJQRil1M4jw/jEX38cGw/14q0j3Whd2ITLWmoQSscZMVIg4Ec4HGZOEd2ymN/agv5IFK/v2IfTlrSis6sLgWAQpeEwBgcHMDAwiIUL5jPK4kf2H8HmPW0Y7B1kC1mguRpeqmfAh4qyUtSGw2QGmENw5qPrmYPwwvsuRcrhRNDnRb3Xh/YdO/D8w+tw7nUfRum8VrjTwODwCHZ2HEE0lkTa40RlaQjVhhNxJ+AJlyDa2QeHxwVvWQjxwRE4UgYCdZUYGxxGOhJjTgEtwsmBYThDAfjDJTAGRyluh5FYDGctWojTli3Gwc5u/NeGZ1Hh8eBfbro+K1kTjyB0J3szIEXzFoMQQZhiNser7/kBY+/LiiA8thWONw4CfhO1TWNM3CmJa2Zh6zxPCZ1vtB793/OFZLI1sdMRGTeax/wnfXYdjCU83bOVi2HZGfjhFV9izqlsb/JFTSdj8/LJ0t29T2cEgbcnX/RYJ4LAbW/GsaH8LgYwGoliaGQM0WgcnT0DLJJADsKaFQsRCvrh8Zh5XfJGMSib4549OPSNb2QcBJ16FbK7noyDMNPZHHXbo1o/dSI14jvTDlKkStKC3NbWlqEUlQeSuKiLjoSug2DnbMhOCUUO7rnnHpb5jzw0UsTnPvc5FkHYsGEDM9KUK+Dzn/88Hn74Ybz55pvMs9L94fW4aN55qPJX4N7dDyGRSkxwMMhrO+WUUxAMlaG94wibLJN2EFwuM0rj9uLaa6/GZReejW//5j48t3MvlixoxnkNFajxUb5oIDoWZe3gt1BamhvRNxrDxjfewjmrl2BoeIS1nerPjKsDqK+theH1Yd3BDvQnDCR7BrDrQBsqSkJoPW4B+gaHEXU7EbMcGoogXPvSRrhTKdx7xpmIptJY0dKIM+sa8dxLL+LtZ57AJZ/8FFzllShzuvHEW9vRNzCMwGDaPBZpCCE+HEEEKXgrSjF2qBMOrxvBmkqsrq1BpcuLQF0F2g93YbC7H7GgF/XknIxE8eZgH8IVZVhZUoYSvxerW5px6eknozxcgmQqhQ2bNuPh51/CVz/xV1m3GOLpOO7peQhdyR5bBwHkIKQvwO8/d3rOWwyqMWIyKXIMAh0xGOYthu2H4Xh0K5Ak2mNGSqA7xPTey89rpSdH6y0e/ZjJj6oyQsleOGA0+JBeWwNHbY2ZgMQBROJWuucrv6TVurmX8mvgSHcaT/4ljq7ONF2Lg+FxYO9oEnveTsEYMZCKGUjFU0gnDeYcEBzX4XQgVBaAI+BATasT3/hMCY5r8eT92ExiEHp6B5AyvKyuNEczt8noSmw6jRJvWpsoaTjmY7kYxJsQ/N90xBByDaF+8SzFIOTtlSm+8NGPfhSPPvooSkpKJkjKujqi+R1VmXxyxKMN7iHRgigeofDP07v8XqnopMiOiFjdzBmyA7iw+RxU+ivwwN71iKfo6t648eTHEx++7jokDQde2vQqvF7P5B0Ecg7gQPO8ebj+rz+GJc31+O4f12NjRyfK02mcWOLGquZalJaGWfiOHAB2TBKP47ili/Hq/g489vSL+KtzTmAoXQZucACDQ8Ms5fKC1lb0wol79rXD8HrRGi7FG5vfQiqaQGVFKeJBH5J0G8LjpssQrP7v3/g8XOkU7l97FhIOoNbnh380gaHRPhx4+kmc+sEPIVhaia7hIXR2doNe8kfdSHsccNT4kBohByHNogORQ50sGhCqrcT8QBCetIHKeQ0Y7B3AYM8AkmE/Ai43grEU9o+NwPB7UZdyYFljPT5+4TlY3tqS0fvetg488JeNuOa8M7GgsT7TbTPmIND1TcqmyYKuxNPqgPHWHgYkVabKVPoLfFGUfykvzEV2NuyiWQV/puCCeSJrltyMeANGQxCOqgrAY2YQpWk4Fo/j8uUmBuFY+clld2QbpBPt1JWno5+O3jRu+NYgHrknBoxaXbSMzhYBdAKOYcARc4DdpaZkcRys6yYqFwNGwIARNnDqRV48dUslgkQqkuNnOh0EUS8jvQcxNByBO1DOcjFQWnvaZFEuBfoJhkJIRwdQ3TAPbu/EdY1veukWQ/fBrTC81UimHAyg6PP7mQyS5fMHACMFZ7SD5WKYtSBFHqYXwRjy3VEVDwJXqlhOfnbzzTfj2WefZdfajtYPP2Oi83UCF/Kzw+bmZoYr6O/vZ89oIaWsgxRtoGMI3i7uYMh/U3uynBMHcH7j2aj0lePB/Y8gkTYjCBkHwjoH/Pu/+zsMjozhz+sfhd/vm7SD4HB7WKbdlvmtuP76jyDg8+G2ux7GvtFRlJT4UdvVgVMWNiOaiOHQocOMe4ASSVVWlmPR0qV4bPcRDBw6iLXzalBWUYYDh9oQiYyx4wJ/wI+lK1ag3RfCpt5hLGqqw8KGGmzcuh3pjn6csno5Dg0Non1oCMfNa8KhkVH0Rcdw7YsvwJdOY91pZ8Dn9aHK50c3ETi1tWHPU4+j7sL3IhyqQNjvx0B3D0rqazAaicPhdcHvdcMYHEGUeB7KShA51AVvwAdXeQijXX1wGYC/qQaR3kG4x+II1lVhjByeI70I11XBKPFjrL0HC2ur8fnL34eLTllj5q0wDLzy1k489OyL+NRVF2c5CCYPwkOQjxiee+4FeFwiDwKBFM/AiVd9GnttQIry3KBx0T7Yi2vu/QHiyQSq/CFWl4F4BCmG4k7CiEcmLnoTNscWLWtm4uRbYIXf276q+gWnfxWrlONbVtKn7GrZyJ0w6eXFXH7B7ruyLpgZVjBL8fdcgNuPoMeLsNeP0XgU3aODuHz5mSybI0/PNx02T3UsoMsjI9tP8X4+19RkZNnd9eeLmGznTVtFDpWYj9t8lp3fO42NO5O48gsDGNmRhpscAVrfTwUc5BB00JUoWglpy239oY+SWPpDwdkSIFkGBBY48PqPKtFaaRLgUR0m1EsEKVoYhMnoWeb5YVURQKqiLCJKGhgagcsbZre3XG7iYPEibh1f+fxBOJKDIKKkfDwI5CAkXRVIGU4kEwl4LYKjRDzOZBJOw5PoZBGENF1RU3Aq6HAN5WpPvnFjpxuHHZMiv8YnsgWqmBRFwA7vWBmk+OUvf/moOwhUNzqfJEeAE+3QIKypqWH/p1sL/Aysrq4OhFcQbymIjoHKyREjCOc2vIc5CA8feCzjIPAy9B6BaL70xS9hYHgUjz72ODuDnvwRgxlBWLhkEc674Fw8uukNbO8bhDccRMrpQnh4AKWxKKrKy+FzG4gODyEBF0IVlegfHsPulAFPKomqkSHUNtahxOXASH8v0i4PShsbEHW6cbAngjF/JRrmVaKqMoStBw7Ce7gPK9Ych67RURzu7MbJSxejbXgI+4aH8JGXX0LASOPPa8/G/LpahEuCeH3fAUSPdGD3hsdRf8FFMFx+nLZoAfa0HUZ/wAMPHfUYBoJOFxpdXhheF47Q1Z+ufrTU12AwbWCsewCLaqqRLA1i+559qAsG4aoMo62rF96RMSxeugDb+3qBniGsWboQTWWlOPu4ZVjc3Ij+4VH89+NPo7unD//ns9ejtaEu46yR88RBijdZtxiIKElkUswFUhSZFDlIUdzBHervxrXr7sQp1S348OKTkTLS+P2uV7DxyD5GIjX+Iy58NgseWV7lUUSOxd40tTl88om77qw6KdftHIt31udytIMBcTMzQlE/xTd02i69Q3Ot1BfAdcvegzMaluLtvjb86NWHsbZ1Ff7tii9lQIq8z+xsnsh8SjJz2TzRENO7sv0sRJYIGuPyabyJzIC87iK4za49MiufCAYk+RQ+H4sR6ZgLDmvBotTjFAJwYJzBFkhg4640rv/GMEZ3puHiDsLJoF8BRwCM0I6IjK81FLmPwR2EIJAsBUILgCdvrcTyRjc8LtNBkOtFRYlJUQQpct3IbIFiZJgD52V90TfEciSLxgL1Ec/FkKJ0z1ZQQ4wwMJtFPAjEpOg2Sd9EWXyt5CDFkYQfcFrsjhnn2hTMbzHULT4NqZSJixEdF9W6q2KslMebyrGU7RQHqYpH6SIZYQaDoAo7qc725RCWTrlNmzaxHbmowBxWa9p+RXX49a9/jTfeeMPKzJXEP/3TP2Hbtm3sxgINIDoGIcDiXXfdhddeey0rFStvq12bWcUdwHkNZ6GCOQiPKh0EGoiXX3Y5Emlgy9Zt7BuTdhCcLtaGqpoaZrB2OVwoXXUc4zpIxxJIjYzB4XIg1j2Apc21aK4rw77+CIbTBmJjY0iVBNl6kx4ahhMOLCotQZ3XiUFvEN1eFwZ6+5FKOpB2+lBXW4qm6gq8eeAQ3B19WLp6GbpTcfQf7kZ5WSmG4jHEPU588tVX2HXEP689C63NjQh5PXhp3wEMHmlHx1NPov78i+D2hnDiwnkMzzAU9MJt3XYgcqeVZRXwhwLYdPgw/INjOMlbh4ohN1LROJoqKgCfB/s6jiBSDhyZ58Xujg7UpoETjl+Op/bsRbp3BKetXobOSASJSBTNVZUYisWx7e3dOLGhAf/yuU+ioboyM75iDINATIp5QIrpC3BXHgyCakwcHu7DB+75Ab665kJc2rKCDY57923Gra89ytqdFUxla2KexVd7wZ7kApxZy8Xv54gGsEXDPJJSOi3cAE4QYdO+CYu/jYOQuezBsRuizgRnx3qPbvisrpmPb5/5ITSGKhFNxfF3G36FkmAIP73mZmXmwWLZPJJDf2TwXz5QJN9k5XtPVU/V95hJEo44VUBzWVbPSBr/77ExbHkhCScFuayfiWPcQNeggWdfiyM5ZEUNSPdV5nEC6AIXOQocd8271TxrM6MI5Ax4AXcIuPRSH274SBAXrTZxX6o5Fd27F23/8A9osZgU+cZM1peO/nLpZjaDFO3GiNweHd3kkzXtIMVpW+0LEEwcBgRSfPzxx5nDMjg4iJ///OfsFsO3v/1tFkkoLS1ljgEdixC4kq7+sbvVFp00LcpyCJBHFxgqGg5c0MIxCH9mGAQK7WciDFYk4+yzzoI3EMKevfvYQj95B8EJj8eHRCqJno4OhM9ci9CCJTi5qRHl4RC27tqHHYc7kPZ7kR4ageF2YiyRgs/vQ6AsDA9FGsbiiNG1wXgCpR43KivLKOMDIsLVL7oKVldWiobyMuxqOwxXey9OPH0Ndgz0I9E3hJqKMhwcHISnJIBPvfoyhgeHcPfa96C0vAxVJSXY1tGBeMdhdD+9AQ0XXQxC/C5rasCeg+2Il/rJPrBl0et0ocHthy8UwI6hftQfiuJ9iRbsCcXQHutHFUUNKsIwjgxjdaIU2xcZeG6oA864A6tXLceO9oOIHT6CVcuXoDedQGdvH5wuBxyROLwDI/jKddfgirPPgFfM4aEJUjRwEX7/2dOx5vLrse+Mv1XyIKiGI4EUKVnTp5edjo8vPZVZxV9ufwE/e+s5xvuQ9WO7oxYWS9HAZu3Cpd143t25dK2SLehyhEKIAIjBAMbeJZaXFnNbwGW+RT+Xg2Q5IqKDkHGvuFzuIIzXjRyEBWV1+Me1f4Xja1pxeLQfX3j852itbsJ/XP13BViQd0eRA30pfPHfhvDYf8fhGpCyeipUwLiORG83a5xq6iwNOBcD3/lmGF++zORZUf1MJwZB/N5kHARVumcuqxjJmjQ1OC2vHXMOgsorUmnGbpdP4X1yBHgSEXII6NiBogpEjESL9Yc//GHmSPz2t79lTsTw8HCGMInjEvhRQebOtVCJy5a8DzUl1bj3rQcxEqcY28SfO+64g6H4H3jwIZMHgYF3XHCmk8zNoBCWeQbnhJMmnJFmbGTcGfe43fDT0QQRLM1rATxBfPSC8/GJyy5goMcdB9px+x8fwJb9B+EqK8FZLfOwuqkBjz22Htv3bIevPIz48Bg8DicuvvwqVFXW4an9+9BlpOA4dADpnh66jAun24V0koh80vC5vexaoTccgOH1ALEkEskEkpSPoawU1+3cwc7o7l26jD3zEIGQy4XR3l4c3voGWk44CV6P32Qii0YRWLUKqKw0d1pd3Uju349YOglvaRhL4mWYF6rC87H9GB4eMlnMykLwpJ24OLEYfWU+3LtmLVzlq1FiuNCZ7sT8x29Hebwbo2W1SC1cCp/Li8T+Dtx83dX40PlnwOsRw6O0uUnh/v5H0JXoxo21H8NjDz+GW2/5Lja+8AKANwDjewA+jXjkdPz2+lW44Avfw5vHXYd2BVGS0kEY7sfFd30XJW4vzmtcwo4Y/tKxG/3RUZP7IN8Om0cVJtAkWLt3vqZOGg8gOAO04GfkcEOvcEpyRTey2iGWFeqZtf7z6IOsNTuMgfieymFSlaMdaJrpeUV1C06oWYAd/YfxzMGtuOq49+DfjyEHYSo2L59tHBoz0DuQsnb65ip/aCCFf/79CF54IAFXvwQ7mJZlyNwlkIPwxc+V4IZzTG4E5mu6CGPqQGOlkzHMTqeDIK4ZuXIxsA0hkJNJkfeZSLVMyZrEb/B/i0RJsxKkKJIbUf9zFL9IlkHPeaIHfiVOfMbP71WyVOdEsixSlpiAgoMIVaRL9F06J+KdIGeitGuP6oyGZMlHH2InkiyKPJCj0NfXx5wJXldiVuR3rqkOmUjD7hQSA3GMLUrA6R3PFsfrRec9F198Mb7/gzsZSDEYNMGbsWSK8Ql40zGU+H0M7To4OIQo3HAESxDyuVFO3gIlZPJ6sGTpAhwJV2N32o3S4Rju/e4/IBwaR9T+/vmNuOOB9UgNj+Fbn/4ILl29Ard892ZxWXcAACAASURBVB9x/313s1sLdN2I+A/+6Z9uwaKVp+Br/+9/0OF1Ai89h8FXXoYvHEZpZSV6OztZSLyWwJu9PYgMDTFq5Xgiib6uTjS1zkNJLI4vHTqEtN+PX9ZU483+fvhcLtQ3t+DtHTvR29ONluZmVr/+3l7Ma2pE7PhTMFY5jxim4T6wHQMbn4Pb4UR1fSNGz08h8V4DnvsTSD8RRX9fHxqbGlHqr8a1FReip7wKD514Lv59bw1W9idw1VlpOB+/AefufRg9wUrEmhciHomhKhDAJWeexm5csKi4sNOhBfu5ph4MeRO48lAjnt+8H3dteA0//NsPoKymDwtPfxWHthyH7U/2wUhH8cEfPYr1g1Xo/M9sJkWRKInPAyJxOjzcjy8/8RuMxONIkOOXNsmlPC6TRIr60aSddWTVazwMbK3dRFNL4E0GGjMXSJJPhTKhVIuAi92TyDSSnEwqZ4HH2CcpEyiBpSVZUrlx+eMrAgMyc0ZINgxNd1UEs2XKWcWYb8vvuPNnmfD7eGdQPdlGlF0poyCFwfTF9Gl5MKafbF6RY8+YX5Am3zmLspfpj8uieUU8+skEvDTQAJw7/wR8/byPZYHgdG0en/v8rF+2U9x+irgB0U6ZrKlmRLHYNk8E9fH20DdEXALPMmjaPAO/fmYM3/jhCEa3GnDQLQRSXBBIzwcMAhlSAtmZuMFKnbvYIhvdP+47J2uBJee58Mg/V6Am7ER09x60C9kcxbWFR3JF0jJqv4zFkHUj9hn9jnRjZnMcQtLwWCyzJtUyUcvTeKbIasCTFECKEzEI7HhJIEoyqZZNoCP7jtvNZI5TLVM2R3OSiKDETGZIK4rNcQMiuZVqvIkYBFk34notE1JNIErK5yBw4VNxEPjibCfLbrLwQc+NngzYoXKFOgiqdM+yLF3vXXSsdz/yNqI9Y1h2zUplLgb+7i9++Sts3rKFIf5poOzqH0JPfR3q2zdjVbkP9Q2NeOWtXTgUXojRhnmYX12OFe4EPHQzgrI4Gk7siLvQ0T+MupE4/vDd/812yWT8SV9/fHETvvWnR1CbcuDz552DS9eehFtv+w7WP/wgM+rJVIIdOXzzG/+MBcediG/cdQ8Oe5xwvvoiom9uQ7CsDJ6SEgz29MDv8aC8uhqd3V3kKaK8qpqBOEcGBtAwbx68Q0P4THsbkj4ffl9dg110m8LnQ1l1Dd5+ezuG+vpQ39iIcCiEyMgIWhob0NuyDJXzViKSimFs/xbEt7yGgN+HULgS/eeOInE5ELzfifSjY4iMjqK+qRG+ZABXlJ+FvsoaPH78efj3tyuxqC+Jay9wwL3hBpzT9ji6PSF0pwM4adVynL5qBSLRGFuImSEQOirlMLCxuQ+DvgSuOFCPFzbvx++f3owffv4alJKDcMZrOPj6MsQip2LNNTfCX9OC+/Yb6P3dCPwpgECKRLWsYlIk+uR4Kom4YSZhoj1HNmjIvNlCpFkiKImqSddMyRDxdT6dSrOoCwO8WeH+jCxrwebzhzuplv9hycpOaZztKJs03Nl1MOuaJYsYUi36bD4XGZiJqB3cdJBsrtisXnQkx+uVJh5+SqtMLKHkqJhsq9QmKsdJJJksMppOc+EicQwMKGWKZXUQnpGTR/lHRDAgA5s5acdpHuOIizr93+Nyw+82eUFEtkCZxZDbFg7qExd1HQeB3heZFAvdFMnpnu1sno6DINu8Xz0dwbf+dQT9WwwTUEg/JQYci5NwdBpKB4HGqOLASDSBef8t+KyWFwxgEQH23MBeWljNyWrUGlhwgRtPfLcCtaVOjO02QYo83XM+B4GE59sw8g2huLaMDXagp6sTcZSgpCTI7DO/okj/pmPZkC+B6qalMBwm4FgGKZqLvIH+w9sxNOaAw+lHsCTIbBnNIdoAMmbeZBylgSSqmlezOWbnIORimZysg5CLdXiCg2DXm6owfd6et3lBR5buO9zjy1WXYsrSaTP/Hv1N6Z4j3SNWNkfzzqvqh/gJKBcBLVqxeAL/es9DeKrjMHzDnWjq2QWXkcZIuB69VQswbJiUvBXBADNsTAcGMByPI0k7pvYefONjH8R51vW+9u5e/OjRJ/D0gf0ogwvvXbQIJy9bhPV/vh9vbX2DGXBanNweNy6//P2oaVqAP7zyKtroOuSenXD1dMNJiUloploLA0tYQvTbLiKdcZqLiIW4jSeTqKYoisuFPouEyu2mfAgmDTFRH3vp/q8F3CJClXhTK1BaB8NpwNXbDmP3XisfhoGyhUGMXjaCxIMA9gEujxMOp4t9s8wZRMofxPb3fBzfdJyP89sSOOecNOqe+TGqendh0FOGLlcprrvyYnzwfefb6j+NBF4Z/RMGUj24sPzjeO3Pj+K/77wVP3zkRYRdm7HAdyva4zeiN/leJmMsDTy4x8CpfxqB4QSCnwjhuoUO+CQ4gc54mXtndmpAx27o1lxHlu4702XzXt6bwCPPxpCgGwdxM8I2mkpgw+4O7Hk5AocCg0B+1yQZsieojNbBLLgKRbVagXPfU4MTqqrI5DADlwoB1QtduOF9AZT6Z+6IIRWPoKd9FyKpiVfzKdblNBKoqihBuLpVORzEfo0MtKO3qwtJV5g8oCzlkSyPMcoisr5wXV5ZumOvWGv6MYlBkG9STFVpxSw/GQdB/C4tvD+970+4+9kXkXIA3tgoHKkEkv4Q0i432+XF6Bze5WKZGc11O42kw2BpkYe7+1Dh9eN9a09GScCPN3btw87eHsZSSO96HS543S4YtDtl1mYcNM+uXjldGEkkEKUdbTLJnAKOTeP15CBM+r/4O45xS1pWw2Vla7OC4dZu0mGGxa0fNoHomMhp7SKTSYx09WEsQkQkBqrrXBg46xDiz1bC1Ul5r8fBaMQj4Ewn0Df/NCxe9En85PUE7m5xY78xCiNJvBNmA4OhEpSGrAmuAE7R/eN9dX9C1NuLZV3XY++mP2PjYz/AJ77yDJqr3sJ5J92CTW/diF2HLwAcaaQMIDyYxplH4vjtogDe+4EAPkLwj5kIwRZzkBZRls4CV8TPvStFTaeO2U0mCSrSOZTCzT/px7rfRuEkDII1vtMpA9VVTlx9hR/NTXRMkqM7OPqYv0IyzH0NK7d5SwKPPhFHImnRXRuAZ7GB73+7HDdcGM6KUNBn6OSJ5vV0YhCyW2NgqGsPegfGACvXwrjtAryuJOqbWuD2ESNU7p9UYgw9bTsQSdHx70SlBT1x1DYvZUyLs+1nRq45qsL0qkGv80xHlt2xgCx/OmRRB9tFEPLV63B3L7bvO4gkpX5mbroZJTBpPs2JND4pzTAshVFZNICAfxQypTNOSjxC4Vmi9WVrpRnONhdy84yaO1lMspki0npuLq5sGI8fXWcmdhYHvuUpqHjxdZ7xs2VuNChczD98sH83/hxej8s9V2Ge0ZpJ6sQnkAsGBt1h3DGwEP6taXzu4Bh8aSfSGXIX8+yRh+wmTjyWQQKblv8Jw8FeXPjWX+OVt/6E+169A//ygSdQ3bgLyy++BXueuwFdu88FnCnmoxDr4yN1Xhw4wY/vrXXipHJ+2y+b199s00Suf9m5LXQM2s0Vs7vHPZZCxryq7nbtyfe9oyVLpedCnunYpNmgm3y2ZXxxs47acoyRjqE0vvqTYdz365gJUrSGUzJuYNUKN358ZxnWrMoG/E6YX7F2IL4XjOEsRWQHlUBZK+CkW2DAA3+K4n99jcDfdBXUXDc9S4DbvxPGDReaTr1K9yoHQXeeyfNCNXbFZ4lIPzra9iLpLOUWMVOvspAHVfXzWSTVbg6Py7Kcjf4xwEUR5XEngQjTqitLEapszsguZE7lr4PZQzrjWXyHESWJoAfxfJHCuSKBQq5sjvxMQyVLzDTFBxLJUmVzVBFciOQicjZHksezd8l1F2XxWwsiWYac2YwUQ8+IuIj/8HJiHVTtIbAiy0bmdGHX+u0Y6RzC8mtXI1A6fmUnnywT8ESYigTcBKgSAXXJlHnWa/2IrF+Z4WYBcih9Mi+bosQoFHEYtxAsvbBTuO7Hd/ZZqW+t3b74bKKstAmCE0h/WL0IkUzHELyudC5NTolwtS8ZT8BNNyGsH7MOZCxcDHT26v5X8ZOR3+BLiz+HNcGVWf3BATwERds/auCHO1NIxVwIWGENqgMZocwZtINSKptUuyLILpWO46D7QcSdfVjuuh67nliPTb/7Hq776fNoDm/D+xpuwbNHPoOdwxfBbTUnQemo/QaubnHglCpnJnpA/U9jSzzbo3EijiW7s2SRuIYaqpIlz8VssJk58TmhCj+r5ONZztRG+hHntR0Rizw/6T25PVRfu3N2bpDEs3d6xs/6ZdsiZhnk7RHrwJ/J8zqfnaJych3mbN44Y6FMutMxkMJXfjKEB3+XyIogkINw/EoPfvZ/y3DC8Wb5dDSKkVdegW/fPvhOOR2oGgC6NgC7dwKr3gNUngIYQaB/GGhaDgSC7Pjg3gei+Nu/H8LICIH7xh2E738njBsvpGPUdCbLYMaO0DHf7t3o+Md/zGAQyF6TbRExKHSuT2NLPmeXyYBoXMhEVlmyjDQ6D2xBJBlgmC22CBNOxpFGXV0tfKFKM2EcRVwt4Ly4vtE85FiV+Gg/jrTtQdJVlnE2SJzPY6CuoQkub4gpgZM1ycRPXBbTeTrN1im6/cZ/VGuSbCP4Wilnc6T3ZFm8PSyCYO4uJ5J6yM9UJBvys0JlTaYcVV6myCw0G5koi+ogAn24gaO/Ze9T1g0HddG7FEEY7RrGimvXwFc63om6bbSjURUHzUzIktutqleh44az0Y37LeNj0EgZ2LT3Ffxs9Hf4X8s+hzWBcQdh4hgkr4CcC4mZkAnOfTk7YcSxrvdBdCV7cWPd9XjsgfW45dbvYeOLdM1xC5C+BXDcBDhNDML4DzsgzZKv02c684cvoDK1aiFzUSVLdCwzhpcwLOKNCMsIZUWaFDZiMrLyzU8d3eiO+WNFFm9PoXpW6XSyslQ2r2OQjhiGcf9vJkYQVq/04OeCgzC4dy+GbrkFpe3t2Hz5VYhU9yPUeQgN+zzYeuHV8HjSzHGtqKzA2lNPhs/rZQ7CPeui+MJXBjEyyvKXWREEB77/nRBuvJBI3CbaYhqvlO6ZZXMUiJLsbHEmSjqF9S3SfxhdXd2AJwS3y8naEvB7UFvfDKfb3OCodu+qMdhzaBuGom643eZRAm0Ey0oDqKxtztwE0h278jqlU87OtuSSNWMYBFVoQ7K6yvCH6h154ZLf4Z2WD6ug6liVrMk8I5njRwxr4AuPRyMmI2c2vJuvz3T1p/Oe+E7GQYj8Dl9e+nkcHyAWQvNHR1Y2QsJek5Ss6d7eh9CV6MFn6q/Ho+vW4zYp3TNlc5zoIMx87+Tri2KPed3vFWsuzrxGp/+Lujoslp3S/V6+PmMOwk8tB6Ev+4hBjiAMPv44jD/8AW0nnIA/tLUhFijF5aWl2P7ai9g7fwEWNTezrLhLlizBjTfeyPLx5I8gFJ8oqVDdpJMxHDm4EwkE4Q8EEB2LoKwsjLLK2qxNo846FR3uxJGOLniD5aaDEI+ipq4WgZLSnHdJdeo+XaN5xhyE6WrAbJP7TnIQjpZuTQfhZRZB+PIychDGIwjFrJOZzfFBdCa78dn6v8Yj69bje7PUQShmu+dkHR0NyKDfo1OL/F/NOAgTMAjA6pVu/Me/lWDNKhOkaHR0AAMDGGxtRdvBg+y20nyfDwPxGAbpqNHhYOHryspKlJeXW4uqA+sejuOLXxnFiIRBMI8Yiu8g5G+1/RsDnfvQN0gcs254vC7U1TXAF1BncMz1HSOVQGfbHoxS8ioH2PXJ6pp6uD2zD5zI25E5YqAwgxjWVIUP7ULMkw1r0cenW5ZOe+Q28rCWTniX2mCXJW3/M7vR/vIhLL54OcIN5B1au1+LHlcLLMMAggJFjAUwLERW1vdUdbBAM/x7djt12ZNV7eZN6OR43QuRlRxL4qVNL+IXpb/HNSdfhbNKzoDbumvMvinohsvP2oVJudszdZDK9SX6cVf3vWjxN+PTtR/Fw+seZg4Cy+bo3gokv4O049OA8wqJiMec4Ixi1oIc0e0l8foXQ4enGRll5se8upWd4Vl+xg5MJFkWrMMMxVo/E8pZaHSO9jbbbCLULbwrK8mvl8n1YvfSeXusuk9oD8N1ZNfBBMpmP5sgiy0UknyFLHNO5ZbFb8xkOCJMfO1E3Qiy2EJmkWRltVGjXkRco9Sp1B6SL9ddbE/nkb3YtXs7hoaIKMlso4mVMY/WRDIju3m2ePFithOnH7sjrXw2XMfmHR5M4as/GcK638SzMAiplAuNdf344FXPY17zKMrLKzAwNMQIf/xeL1MyMc0a1EDCubjdJhGYxX3Bz8mp7tu2z8O69acjGvMwrgAOUuQOgtIWTyGbI9cptxN2x2Nmn40PQqprYmwQPUcOIWW44A8EUVHbBK93PDJst1bSt7gs1h7ST18H+vv7mE5CpRUorayF2zqq4GNCroPqGF91LKAqJz6zW99yyWIOAr0gk4ZQZ9JzEdQngqD4wOZnydxJUMniwEJVZrNcrGIqUJ8IUuQLFM9sJna+igRFbo8IUpRlsUXOGtgq3dD7HLhI/+YATno20jmMXX9+C0Ntg3D7xtG+ipt2GTxr9mm5udeQT9Dz0Z2r5ZtMfeLPxOuL5m/zy58+WWLd00kD6UAaW8/Zi1fKt8KVdmU5CHnR6MzeSLcKpEbTfymCUOkux6frP4aVweW47977rAjC8/C4u4DUt5FKEZXc2XC5A+ZNCkZkZBELUa4Hy0FIJqxbIxbLH4EiKTObm5gpLd0mk2Y5l8u6JZJDFp130srEboelTEZEt0eS5SRioXFZSSIfojJWOVq0Esk0PG4ibDH7OEl3NS1ZTCUGPaPNARkzyyG16kX/57LI0UgliZBIkJU0r63SM4snycyQKNVBrhe1henGag+rVzJt5u7JIYvqkE4S/bjpZVFtmZ4F3TBZCbMOGT2nzT4j4CwngmSySF+M08Mc+/QOOVBZ9UqY3yN5rI0EIk7Rgi7KMkGwWbKS5jVh4gIxkEJfz7PYseM1/Pg/qrBvvxc+n4MB6TizItkPbtuyJqv1H7Ixf/2pT+HTn/oUk5uIk20e7wumU9JDVnvGxw2f23FLN25hDPIxwvVweMDAzT8dwgO/yb7mSPmZXY7tcMS/gurKblRWViEYDCIai2HZ0qUsA+7+/fvR3NKC3p4elviOndkHAoyFltpL77S1tcHpuRiG93tIsqt/JrCZbjFwB0EEkXJbTNebKZtjh0SUpLLFHDDMF0WSJ5NicceMy+cgYu6scbvOsAexUesI3AWnhxgRfZkj8VwgxQygOm1iMVxOA4kYZbGiCxAeuDxeK+Wzaa9k4id6T8WkKAJLeTmqL0v8Z11143w5YnvEbI58fVPJMue1G7bXHJW7Q85Gl+OKDAlWecD0bLKZzVR1UHlrut/jA4FPQBWwQ2uXbKMHLp8NrKEYhg4PIjmWyE9Vqlqx5bv1uvHJmZSl8kiU1s16qOPxkAfvdiLcWIZUaRoHk+3oSfSxK4ns+qXFsSAytch9Zm4Xc7s8VMbv9GGBvxU1niq4HC7cd9+4g+B2E43bdiB1Fwxja/Y1J43msHmg5XSpnbMJ3S/RRCudQekd2zooZOX7nlKWVQn56qvO0NXVzUzKsnPgC65DRs8pGM4tiEcO47qPVePZ5/2orS3BNddcg5UrV6KxsRF33303nn76abbgyj98M/bZmz6Mz3/2I+zXdNNHYN42n8nXaq1Oy75ybG0+hEbx6Ar/bscwcPPPvLj/ty64+kSSBC8ceBPxwb+F07ETFRWV7PiAaOgXLlzIvk/08+ImkS/09A45DBRh6O3tQyB0NbzhO2wdBLv2xDhI8dZb4VuwwPaKYT5Qud3aogLrZq1b1rVweS3TWVt4VJvrmfdrIbKKsU6J9bCLas9hEFQLWrGejV93LZbEd48c0YBNmdjVXm1idCXbQaDID3UgsbuMEzy9ezpgrqXF04CBv/zlN/jVf96BF18yjztoYT3ppJPQ1NSEiooKvPTSS3j77bezrp+K36fIxmc/3o/PfqwfSOruFlQtkN0d6R0n0BGpwc3/9U3c/z+XwNVHzH/8HS+cxpuID/8tYtEtGfeXFpczzjgdp512GqNfb22dzxwFWvi2b9+OBx98kF3dHV+EHAiEroE3/K9IElUizTEpgmCn+5kjSipe7x/LkmbMQZiwy1NoTfcd2VtTdcDRkJUPjTxbBoqOblQevGpno9sX+d5TefR2/aojq5C+mOggzJYe07uXwQJbErnVxD7L/47Z92bJXJS6/FghH+2uznKm885s6Q3dumbeMwzc/bs/4Pbb70TSb3KC0A9x+hOoj4eG5aRx2Q6CA5/9qx589oO9ALt2z3cfYmIE4VmmsLhLsfu38CWHgY5oLW6+5//g/vuuhKuPQhW8nBcu504kR76K2Ni2TA3ouOLEE1awowXiBwiFwwiHwojGosxBeOyxpxCJxDMfofb7gpfBXfJdpBiVMT9ioGuOJg+C3U907160/cM/oMW65qg7JnRsno4N0nmH204dO5XvHR07rPuOrq7E93KCFMUzGirEyUbE+6UyGJCf+chgmXyySA4HS+SSL56r8IbI9VLJ4oAgcRLKpBRURxFTQfJ5OZ32ZCfK0ZNl1x6VLBHDoaqXLMuuPeJ5HG8jH6gZ42WRG4kgG5Vu7GTZATj5YLbTs9g/quMkMWumriweyqP3xXrJsriD8Nxzz2WwNyqd8qMpWZYINONjUOwzkjUBuGRxEExWzypZHLiWSxa9Q/qQ6yUDc+1kyeVIpyIxk4494ONSRzdyvWT5k9Gzjqx8dkpl3/LZvOTAAHZ961vY9sc/YrPPhwQxnXq98J58MkpXrEBtbS2eeeYZlnJeJKISDTU5bDetceCzJzgylMXm71VhSoWjwL05peMgyHGk0JEsxc1vfgYPvHgGnAOEOxo/fHE44/C6dsKBgfGnDhoDbhb9ICZXyn5LwDuO22C5WASadYraJdKNSLGUkRaKh4CmCx247Vu1uOmSqqwEW5n1gIiS9uxBO/EgWEcMujaP+igfgNNuTqnmtfwsn22ZzNoiy9Kpl2od0bGfdvOHz2vGpKi7kKgcBNnQ201+0ZDYORs6slSAEJ6BkY/9Qh0EKs8Bj6Is2WionA0VG52YRlN0NsRFUNWxKlkiUJLLkhdnO1kiC6RqQKjaU0xZKnYwWc92C5e4oPJxIzpPqj5T1V2eZLIs+s4999yD22+/HS+88AJb9PhYlseuSpYI/uGOi9z/qnI6snQWwcnoRtdBkJH18hjUcdZVtoWeybpRjREde6PSjY4TORM2j0cGkn192PfNb2Lfffdhu9eLqMOBMgCtCxag4/zz4Zg/H09t2IDXX3vN1kEgUOUnVoTYH0aNLiNcinSc6XCk0Zkqwbd2XotHXzkezgGKIGTtKYk7MyvFNx/v3BEntlIO6DVv7ZhA0GyHh47uEuOPyEGYD9z27QbcdEn1hAyM3IUhB4GyOXIHQQT1cWHyXNS1eXZ2Ssd+5nMQ7OyUai7ms3mq+WNn8/KtuxwvIl5GyAI3Mu+gAI5m3hk6oRuVfLncVEI3s0VWXnS9jZ6zp44eX/Z095mqP2aLnqntMqjGDmQj6zbbSGXfdHj44YfxhS98AVu2bEFp6fj11Fwycs0D3blRaP8XWk6nXqp3VP2vc5RTTFmqvii0XoXK0tFf1vxMp/Hwr36FX/zwh+jyepFyOFCVTOLa/n5sC4exMRw2I5XCLluuG12Re9/KFrx3ZTPLLzLBH+DnGfIv2AZd33twIo0howQ/3X0VXnhpJZy9BFLUL68zV5TvMAxC9hGDSs+qIwad/tfps9ls83TWFh3d68zFLHeQOwg6wufemdPAO1kDdP3q0ksvxapVq3DmmWdmHUe8k9s917bp1QDtyB557DH85S9/QVVVFTveKXO58DmPBxUnnYTR88/HBoogvP56jiMGA5ecvgqXnLpa7SAUqQlOh4GBhB//d/NaPP/0fDizbjEU6SNKz8xyEL4dwo0XzS6ipGls9awXPQdSlHajs77HZrCC+bzuqUR9VLtfOTJgt8PL916+etupkModPHgQt9xyC3p7eyc4CDoRFFkn/P9ynfPJUpWb7DMRy5Nr2Oi8p3pH51muyE6h7eG7c1GnuWTliy7p9Jnd7jJfHej3FPJ+9dVX2f3/+vp6eH0+VHg8+GIwiIazzoLjiiuwbt06PPvss1lJc8Q+o+9/5sYb8JkbbpjGOz1mHtcjIw78/U+iuPfnMRh9Bnx+yv46fYYnmTSQTDhQttyB224N4bPvLb6DoGMTdOyZzjuq8VmoLeOydCJ109FDUyZK4uf//P6oeAeWTx7OoJWPKEk8l+QkDvzckytIhyiJyojn81SWP7PL5sg7XjwbF8vJJBtcPr1DZWUSKW4Y+PfoPVkP8jMui2e65OfgJF/WjUqWSEglypJJQ0gXcr2ovhwbwevFn+WTReAkPgHtiD5IhkxAImcZJBm5iD6oPpyQSiYg4ZnaxLpTn/F+zTpXk/pMlMXH8XRMtjmZ714N/PrXv8add95pOgAOBwLpNK7p7cV+pxMbgkF43JTEZzzDouzU0Di+6aab2B9GgJWIM4KdDKOkAuRNRxFEBmWeoZu6jzOyHmcWsDSRTLJ5lyFTSqbxxMuDeP2VOPZu9+PRJ2MM8pDJpM67UXVtRiZVYCucghDE+hixhtbXuXDFJYCnKoIPXV2HpY2U0MnM5ijaKSJKomRNhEFoufVW+BcsyJBLyaR1os1T2U+OeRJtnh1RkpyllcqKNk+Fn8plp3jfihkYc9nPQmyenQ0X8W18jZWJksQ1NuMg8BsEfFGXgX7UABHZLBpebmD5B2VZYmeIyuFgM5JFf/LVgepmB1K0Q5rK7ZGdFKqDiMIWAY927VHphgOjcslSDUpZN3wwu3k9YgAAGRVJREFUc4Y17kHK9ZqMLBXIRpwY4uLJB6oMeuH1EmWJE8OuHO8z7iDI7eHjIZcsEX2sunmi0g13buR6cVkqPecD7HC7aAd4lMeg6IhRWbkcH/Okg+m4EcF1L9bLDgyqusVQCEiR2wgxulDMmwckP99tEV2Qok69VLJ0bmrIwF+KSFF0ittNY3AQjt/9DsaiRcAll2RSoeeKVBChUkNDAxuGMoBTtEl2NpxvWvLZPINYmIwkY9E0DA92700ypkha5znbJsmib1IKd+5YMOikRdk/7kNY5SRyPV5H+lR5uQN1tcQ1Qn8oL4G56Zpgi8lB2LuX3WLgDoK8IVHZKZVuVDYvl23h41m0EblsnpxqebL2U7Z58q22Yts8cQMs6mHGjhiKtXfQCRXxRUgnLKMrr1j1fzfK0dWx7nvvRh0Ws806etZ5ZzLzrJj1fyfISnZ14cgPfgD/8cej+mMfy004odngd0OfsXTPX/865t1+O3zz52tqpriv6ehZ553i1mp6pM0qB0FHqTrv6BouXVk6qi+mLJ3vzZZ3dNqt887R6LPZokOdeujoUOedYutZ95s6bXw3vZMaHsaRf/s3kKNQ8+lPw1VupgCe+7HXgJFIgNJLD6xfj4U/+xk8VjSlWDrTHcs67+m8ozsXi9W+QuRkiJKoQTIntPyMhZQcBFgZR6zIz6iMShZVTi6X73sqBdrVYTplyXVXhQF163Wsy8qn56noRnfcqMagXC9dPRfSHrs2Hm1ZumOwmHrWkSUby8nYCJ2+LsRO0fjgRwXccKrqpdKpyvirZOW0eek0Itu2oesXv0CiuxtOn8+MIuhQWJqGMX/UYZplKRdBuV6qOiie6cgy4nGQY1X1oQ+xPw6fmTBJpWd53KjGoE45nTGiW4epyDpatoURJXFACJ1D8IrQOQQ95+AvUibxadM7/PxaVU4El6jAGHwykiwR/KEqp3omAihEWSLgjc6X+PmveMZN8uxAitwZIUCIyGYmAh7ztYf0ws9y6FtU13yy7Nqj0rPYF7r1ikajrA95v1I56ludelF7RcwGyaJyok45YIf3hQojImbN5Hqm/hdlqcabnSzSs4j1IFkM/GX9iOAf/j0ZI2I3nqmusix6VwSQ2cmSwUyynjkISpQlglvt5oZKN6ozTlkWGS5qjwwGlee1nSzRHqjGszx26XucpEZkc5SfqcagaozI5ezsFMkTx/NUZMm64QCxYtg8Dj7muqFvxXp6YHRR5lDKeeBA2rJdbgINWhsxNm5oDHo85hCx+tXjJZCiuVlj5+yEz2CARIvK2QJrEwCSoxRZewh3JQAiOTA7I4vqYGU/zMii9YBAxIIseT0g/AEBHr1UT6kOInaJzWti8+TtybG2yLKcZWUINjfDQemlrRsi9Ldo11U2T7ZTdsBC6htxfsp2iq8toi2ejJ0qhs2jvlbZKZp/XA/0b44lEG24vO5Se6j/7Wxe5ohBx7uR31F54dwgq1C4ohek8z2VLCpHPzMpS/Y07eqls9uRZel4n7o7rrmdLbefE3cVOnpWjWdVOR1Zdn0m42Km0meyLJ0Igmr+2O2I843nycgS56tKz1PZqetGEPLVwS6CkK/cVGye0rZIoP+M5yv8Y9L5IFRCrGezQZaqDjr1msr8kXWvM390bfHRkDUda8uswiDkGMOZXylDUToFbd4ptrwpVOWYK6qru6P13jGn0BmosG5f6Fal2PJ0v/tueq/YOi62vHdKX+joRecdrg+dd3XeOZr6PeYchKOprLlvz2lgTgNzGpjTwJwG3i0ayJvNUbyPaXePm4fgKCRJHhE/PhDPwkihsiz57rVcjsvKl9xIvnvNzuPS6Qn3pUlevmyOch3o/zyEKZ73yc907l5PRZZdvVTZD8XQsOq+tF17ZD3r3M+XdaoKO8u6obEg3uOl/3Pd5GuPagyq7sbL9eLluG5U45SeqWTxscuNgkqW3f18mYNA1CmvA68Tnz9TlSWe/+vwBqi4C/gzURafU6Ie6N/yuMlnD1TzQLyXTjLF/uGhU1Wf2clS6bnQehUiS24PtUGHI0Jl8+T7+SpZk7Et1J5cGTgnI0u+n283F0Vbr5Iv26lcfZ3PRujaPLt5LR4p2clS1UEup9KNKiNvvvYcTZtny6QoguC4QRBBQ/zsR1QgDTzqfCorEy/Q+/mYFOVyoiwRIEj1EVnyJoBsFHXg7RHBLCJojLdHZlJUtUcGCFJZDvRS1YsbOFmn1CYOqBOZwGRWRpJP72WxiinYIlWkIQRmycekyAE7MqsYH+B84VLJIv1w9kPeHr5oiCArlSwZWCrK4kYwnywqIzOBiSBF3q/iJOPt4eOZL9B2suTxpiOLg5lkxkpunMX5I+tGrpc4RvhYEhcNu7nIxyVjybNAY7Ju6LkdqQt3bvi85mMw11yU7QEfu3ayuG0RAVX5bIsoS9Yzdz5Jp/RePll2DKl2No+3h8/XXDZPZac48JPkcIdUrIPK5uWyU+KmRbafsp2i+ujYPJWdsrN5HDBsZz91bZ4Oe6zKTunaPNKr3NfiJkKcB9yZod+LNo/bJDubpyLh47JE2yJunAuxn5OxeaL95PZAHrsq+8nHbuaIgQqLoCfe4fIz8f/c08/3TEeW6h2VfF0wk257uMHlBkEuN91t1NGNqg525QppT6GydMvp9JmuLB19TUZWoWN3NupZZ+zq6I+Pt3xt5IucfAUrn04nM57zyZqJvs5Xh0Lb806wefl0MxP9k2+cTqZ/8smaTHuKKeto6XkOg8A9g7m/5zQwp4E5DcxpYE4DcxrIaGDGHATV7kbsBztvWu4rnfd03rHbJRXyPbsow2wdZ/n6Ilc05VjpM9njnq19oVsvnT7TGfc67xyNuaHTPl1dTfd7unXVeU/3HXk3OhU7VUxZx8o8e6frWad9hcyLDEhRB8ykA8Sjisqy+NmReEYjy7IDFspgQ5mUQvU9XZCi6ux1MiAbEVzCcQP5AGJUXxmsSR2XS1au9ujIskvWJJ5f6tYrnywOzhLrJYOs6FscpCiex9Fzfr5M/+aARxlYKoN/RHwG6dIO8EbfygUk4ue/Ik5FV5bc/1ORpQJGUT3keont4fMgH2hMhcWxA0GJslRjUGcu5pqfsj3g+AzuoHBQX745JZ4vU9lC7RRvYy47pWrPnM1zsrXHrq91bYuYoO5o2DwdO6W7tqjGoK7Ny2enuP0sxE6p1l2VbeFrEmNSnMwkVmV4k5/xRZ17LBy1Khv6QmTJBpsbBBkdKhsNuzqIRslOFl+4crVHXiCmKktciHn/6CBg5bqKoEtxEueTJS8aVFaWpTKoKj2r+kwlS667qg6qGxFTkSWPQZWzIU9YO93IfVaoLG5IxPEmj2dd3ciyVM46X4i5s5ZrERTHjapfVbKo7vKNJRFQp1rUuaOnKif2mc6izuXnszd2svKV052fsuM3FT3rjJGZsHnFtFOFyNKxLbr9oyPLzubRGMu1+bCzn6q1RSVLHIMqWaq68w1WrlsZds4Gt3k5jxjksMVUwhg6snTk0ztyiExVrpiydEIzhdZBJftYkaXqi6m0Z67PTO0V2v865YrZZ7qydMaETt/bzUMd26Izh1W6n+566cifs3m6vTe75k8x16l8IEVdDenYCFHWjGEQdBsw996cBuY0MKeBOQ3MaWBOA0dfA7bXHHW9aV2PRMfLL9Sb1tmh2L2j4+XpyNfVwztJlu4OUuc9nXf4mMzXZzrjSHenfizJ0qnrZPScD4A2lZ1tofZAZ57pvDOV/i9Uvm452UYcjT57J9kpu74uRM+T6QvZThXyvamMU50+zLfOMweBzi/4mSAZBfpDZ1z0TMxaZUdmwcElVI7LEgli6IyYFCuTFMmkISKIQ5bFjZWYQY53lorMQgRe2MmizFZUd5HciGe/452rao9IXEOyqR486xuXRc9UBBScGIPL5+0RiZJ4xi1O9DJVWTybI8mRwXO8r+l3IpEIJ1QRQYNUL5UsesaNn0xcQu3k2fW4LKoD1zM/H7MjN6Ly4vkb17NIQCJm4KT2qMaICEAS+4yPQXrG68UzA05FFo0bqocsi2SK482uXpzcSDUXeb1kMiARB8Pbw8cgnz/0PWon7zPSL8d1iOx6OrJI7ySXE2WJssT+Uc1reibaFj7eRFlyHXTtlExaRmOTn//zek1GlkgGxGWJZDO5bJ6oZ06ARXUgOflk8T5T6dmOwEcmA+J2kMsqts2j7xXLTlHf55OlslM07mT7WQybp7JTvK+nw+bxuT6TNs/OTlEdmA0iB0FEZvKFyw61zJHNfHEWQUncKNHvuOHnizPJlZHtKlkimx8H2eRD6qtQ33IddAA7VIbaY1cHUTdcPl9sciGuVeVEB0TUDa+DHRq9EFkqUJeqjXxy8j4TwXmibrixEQE73EGwAynqyCIZqjpwp1VegLj3K/eZCNjh9eKgPi5L1R5V/8uy6JvURi5H7P98ehaBhXz+zLQsEaQo60Z1W0C2B3YgxVzt4SDFXLZFR8/FtlMimJrbLv5MdKhkO6Vqj53Ns7uBI+pLtJXTYfPy3Sg61myebCNU9jPfXBTtlM48yGfzeB34rl3nJk2uOsyUzVPNKXEuHnMYBN6ZqvDJ3LM5DcxpYGY1MDcfp1/fczqefh3PfUGtgVnlIOhMBJ13+M6Se312na8rS2fwFFOWzvdmyzs67dZ552j02WzRoU49dHSo806x9az7TZ02vhvf0dGfzjvF7ledvtCtl46s2fCObnt03tN5R7fPjqZuMkRJYoiMV1x+JoZDeaXlZ1RGVU4OwdiVE0Mrk5El88HzDuJOwlRlyfKpPaIDYqebfOV4qHGmZKn0YFeHfH2mumerq2cxrEnfUcmy06lYL93v2bVRNW4K7bOjKYvrQZw/pKdC9KySpavnYs/rfPbArl6yHnTslI4sOz2Lxw669nOqep6zeeaV4Hy2eCo2T+b1sLN5qjrIdko80rKzeYW2ZzL1moydYkRJJJyTuqjATNwZ4AAxfq7Gy3GgF2+0CHikZyJoTJQll+NgJt4AEfzD66WSxcFz4jmR3B6SRfUVgZIcPMfPValzRGAhN7BUTiTxKKYsEZzHdUPt4eAfrlMR8GZXLztZctZEGXwqnkvzOohZ38R68cyQvA6yLFUdVHqmNhKAj/eZSqeqOshjkPpMBClSvVR1kFnS6D0OBuXjjfpZ1rNcB/qeDOojWRzAK45deo+DFHm96G9xvNnJkjMwUt1EUJ/cHlW9uG7E/hdBimJfc8AjX9xEQJ3dGJTnIq+DyIjH55RqrssgRfoOn58qWSp7I4LGRNtC7eF6trNTujYvn50i+cWyeSpbLIIUxbko9quqDjq6marN4wBOPkZk8Cmf16L9tLNTom1RzcVCZan0oGPzSDciMFu0u+I6woHZIj5Hx+bp2qmZtnlivWb9NUceCeATQ+Vhye9wIycfMRQqi39b/FslK9/3VHJUddVtz9Gul6ov7OpEz0X96PTFVGTlO16azBg5VmTpjJujMX9066Uzf96Nso5Gnx1t22I3P6ezXjp6Plo2L9/cUM0LHV3lW39mFQbBbgGdez6ngTkNzGlgTgNzGpjTwMxqYM5BmFl9z31tTgNzGpjTwJwG5jRwTGhgAg+CfN9TvE9qd7eT37O1u0vMz3tyyRLvY+arA/1eJHXhQKxc5bh8OVObjiwK34h3iVV3lSdz71XF6yA+m2pmSFmWeP5np2dqo3hnW7wLy0cyP5dW3Qnm76jK2Z2Xy7gOqoPqnr0dfwYPj4lEPPRMVQc7HgSZbyKfLKqjCHjLxYMgn0uLPAi87iIISodTQcRs0L9l7gKd9sh6zjWvRXyGqj2iLPp3oe1RjRFZz5OxESoeEdFO8bra3ZcXsVj5OElUslRn3LKeJ9MeGi8idmUyNk+2u8e6zVPZqWLYPB07pVpH7GxeIXNRtlPU76r5mc9OcTvIwbqTtVNUno0bTpSkmvwyqM8upa0ISlKBZWQwhh0Aya4O4kKiAo2pAFU6slRAElnxqkmscnhUQBJVJ/KFWDT0ssFWgUHtjLM8+WVDoqsbuV4y8IaDmUTwnApYqALscGY70anjTIq5QIpclthGlSx6JoP6VAZVNowkXx67MshKpQc+icX2yLJUwChdYGExZal0Q30pgwFlkKKdbkQ9q0CK3EEQHReVLBWoj/pHXgRFI8tti9hnqjGoGiM6dZBl5bJT72Sbp7JvM2Hz8oHd7Taahdo8vgiKGyB5DE7GTombm0JtHnc2cm0Y7S4V2Nk8HVkyAJrLmjUgRTvwR6FgQF0wEykiF3iO7/QKAYno1EEVZ5rucjqAFp06TAawk09/dnqW9aMDJJqMrGLWS0eWqj065Yo1Dyajv3xzYzKy8rVRZ7zNxFwslp5VdVXJlnWsU05XD3ay8vWrrvyp9Fmh86DQckfD5hWq56PdRrH/5zAIqhV67tmcBuY0MKeBOQ3MaeBdroFpiSDo6FTXmy5kBzmZna2Ol1dIe3R3scWMIMy0rGLquZiydPpLd5d0LMnS2dEVW886OzOdcakrR7eN+SIWuv2v871Cx0gx+6KYsgptz2y2eTpt0unrYutZd9zrRBWK1UZRji1I0e5sT3X2Jj/jjFG5ztlVeAa5nOr8X3UmXChuwO6sMh+oTwVA0pGV62xPJtmQCUgKwSBQR/OsbyKwUCWL3pXBgOKZvUoWHyNiJjWR0UsExsjn//LZuKwbmjgqWRywI57/q8itqDzHLoiycuEG+Nme6jxOlFVMDIIsi/Qsg0HtsB4qsNlkgVGkGxVuQH5mhy2i+ubCDajkc1ky2Uy+9sw0BoH3hcq+ydiIo2HzdO1uPgyPjv1UgfOKbfOKgUGws3mq/sln82jsFmKnSK4KbzQZWXZJvrgTVojNsxvPdrgrNm6ISZEbULFSHKkvI0bFRYQ+yA0JX4AKlcXLifJVsrhBFeki+QDnno+qnOqZjA7l7RHbbCeLnst1EI2GrixxEeT154AqUad8URfbKNfBTpbofOi2p1BZqnKqPuOThbdHNd7sZMljUO5/VblC9fz/t3d1PY6DQEz31v//a/t4ck4+WaOZ4CTQ9GNWWqmbDc5gBhOBC6uxMm5wLfZFxKHtqA5/chj7IoUqluPL0165rF/HHKShaoZGVDyM9MDViFfrlKOf36B5+vLx6Zrn6FQ1vvFlQ/uUfsuIg7O+FH+C5rUHwZmX6XuagWagGWgGmoEfY6BfEH6swbu6zUAz0Aw0A82Aw8ASk6Jr9jhjJMpMIs7zuHYTv9KI66OvOWZExme6MXwT1kzDzmysmFsO71WOfAqWk4N39B83rjN64LaZE8O7Yt3RZk5/cTn9FCyH59k6Fccfhys3T2dgbS8IWHvBOi43QUFHxRoxyOA1fOYGPljTxN/41Q1IUA5Y+OVaC66hHH4iFk8sVCwa3iIWxSOebMa4slMGNQbEyY2fiIWTurDGyfvwfzV/VPWJWIxhhKXlmBgZzzzNkWvHbB+a5xBXhQVcNQ0+n8/tREH6JVAOeBELdeDz2GYoowa0eLIZYwAWxYKb56jRM25IBZ65AYnGhevEQj3UkKrtr3ERi6cmKjcRiyY4mid5AiPX0MGLnubIfsDcpTioOYtYGTeIX+PS3N3DorGU3OB55IZ5o5wqFo1riIv5rH2DWIgrliMPNGsqluYg24K5qzyr+ZgxZBpBYxT5Y944WKoRms+Khc+o955OuZoXdUo3HxtpHvsZNeKs5qHdI9Y7aB5yRE/NjPp5RPNQH+2Lap47onnZCYxxTAL2SPMyneL4tlLzVKfQ7pV+qrZkfVGNkmc1b3tBoPFiZAiqjD6xHPDUwOeYzaoYMixc2zNGuViuMYqDH4WRoqN1dLCuGN7owuVboYOFOGl409hnYR0x2eD5urtejGs2Fng6k4PRiOfwjGc5pj4Hi7k7MgxHk6Lbhyue0T4xR0Z6UNXnbqzYF/e4GdXxDs2L/dMxg7rt7+gU9S1rR0d3o8nbGQ8yY3bkIdPdmINXNC/Lm9U6Fccyd6zM4lqheR/nQeBgPVo/ce8b4fT/rzPgtoV73/WIfhvB4dm5J5vq/G1m19S+22INr2dRnfZw7jn7/FeW+9oXBJfEb2lIt759XzMwk4HuPzPZzLFmczwbbz0D/YS7GPi/xBCn0d3pQ2f6fea05ium20ZTZNUSQ7ZHxAjLnVI6M91WTX3Pwpq9LOBOt8XlCnfJRKdMXW6cfnAEK8YQlwqINdqL48gSg+Zl1mbuNDrKjrCyuDKNONNm2dS3k4PVlHmmeVkOxqn21rx/w1W27wanvjmgOcsCbv9ZjfUuSwzvoFNok62vVybFyoh3xbCzZ1JER+f6LwlSw6Oa1BD8uxl2YIyBqO8ZHjNjTGVSVMMOuHHNP+BmlUmxMjzS8KamvpFJEXxF8yTqOTIpkmc1RuHa4/HYNIkxQEyOmhTx/AwLuDS84bNjUswMj5WxEB1Rd2qMJqsrJsVoBq1MitH4OTIWggeajx1j4Z7hEW0126TI+nBQqeqjxuzM8KhGVmK1SfHPZvBDnjo6hXvVAJ1pHrQFeaRG2UzzMqxVmkc9yEzeI82rdMrRvGhSzLCQl68wKf4FO9aNbeS1SskAAAAASUVORK5CYII=;" vertex="1" parent="1">
          <mxGeometry x="195.49" y="522.29" width="444.02" height="225.42" as="geometry" />
        </mxCell>
        <mxCell id="vNcr9SBU0Z8C4WFo4syq-8" value="" style="endArrow=classic;html=1;exitX=0.286;exitY=0;exitDx=0;exitDy=0;entryX=0.335;entryY=0.993;entryDx=0;entryDy=0;exitPerimeter=0;entryPerimeter=0;" edge="1" parent="1" source="vNcr9SBU0Z8C4WFo4syq-5" target="vNcr9SBU0Z8C4WFo4syq-2">
          <mxGeometry width="50" height="50" relative="1" as="geometry">
            <mxPoint x="320" y="400" as="sourcePoint" />
            <mxPoint x="304" y="350" as="targetPoint" />
          </mxGeometry>
        </mxCell>
        <mxCell id="vNcr9SBU0Z8C4WFo4syq-9" value="" style="endArrow=classic;html=1;exitX=0.63;exitY=0.997;exitDx=0;exitDy=0;entryX=0.5;entryY=0;entryDx=0;entryDy=0;exitPerimeter=0;" edge="1" parent="1" source="vNcr9SBU0Z8C4WFo4syq-2" target="vNcr9SBU0Z8C4WFo4syq-5">
          <mxGeometry width="50" height="50" relative="1" as="geometry">
            <mxPoint x="460" y="420" as="sourcePoint" />
            <mxPoint x="510" y="370" as="targetPoint" />
          </mxGeometry>
        </mxCell>
        <mxCell id="vNcr9SBU0Z8C4WFo4syq-10" value="Send Sensor Data" style="text;html=1;strokeColor=none;fillColor=none;align=center;verticalAlign=middle;whiteSpace=wrap;rounded=0;" vertex="1" parent="1">
          <mxGeometry x="230" y="410" width="80" height="20" as="geometry" />
        </mxCell>
        <mxCell id="vNcr9SBU0Z8C4WFo4syq-11" value="Send Actuator Commands" style="text;html=1;strokeColor=none;fillColor=none;align=center;verticalAlign=middle;whiteSpace=wrap;rounded=0;" vertex="1" parent="1">
          <mxGeometry x="425" y="410" width="80" height="20" as="geometry" />
        </mxCell>
        <mxCell id="vNcr9SBU0Z8C4WFo4syq-13" value="" style="shape=cylinder3;whiteSpace=wrap;html=1;boundedLbl=1;backgroundOutline=1;size=15;" vertex="1" parent="1">
          <mxGeometry x="700" y="210" width="90" height="100" as="geometry" />
        </mxCell>
        <mxCell id="vNcr9SBU0Z8C4WFo4syq-15" value="" style="endArrow=classic;html=1;exitX=1;exitY=0.25;exitDx=0;exitDy=0;" edge="1" parent="1" source="vNcr9SBU0Z8C4WFo4syq-2">
          <mxGeometry width="50" height="50" relative="1" as="geometry">
            <mxPoint x="620" y="360" as="sourcePoint" />
            <mxPoint x="701" y="230" as="targetPoint" />
          </mxGeometry>
        </mxCell>
        <mxCell id="vNcr9SBU0Z8C4WFo4syq-16" value="MySQL Database" style="text;html=1;strokeColor=none;fillColor=none;align=center;verticalAlign=middle;whiteSpace=wrap;rounded=0;" vertex="1" parent="1">
          <mxGeometry x="695" y="190" width="100" height="20" as="geometry" />
        </mxCell>
        <mxCell id="vNcr9SBU0Z8C4WFo4syq-17" value="&lt;font style=&quot;font-size: 11px&quot;&gt;Store Processed Sensor Data&lt;/font&gt;" style="text;html=1;strokeColor=none;fillColor=none;align=center;verticalAlign=middle;whiteSpace=wrap;rounded=0;" vertex="1" parent="1">
          <mxGeometry x="550" y="200" width="130" height="20" as="geometry" />
        </mxCell>
        <mxCell id="vNcr9SBU0Z8C4WFo4syq-18" value="Hosted Web Application" style="text;html=1;strokeColor=none;fillColor=none;align=center;verticalAlign=middle;whiteSpace=wrap;rounded=0;" vertex="1" parent="1">
          <mxGeometry x="275" y="210" width="200" height="20" as="geometry" />
        </mxCell>
      </root>
    </mxGraphModel>
  </diagram>
</mxfile>
